<svg xmlns="http://www.w3.org/2000/svg" xmlns:xlink="http://www.w3.org/1999/xlink" width="362" height="200" viewBox="0 0 362 200">
  <defs>
    <rect id="img-location-newtaipei-a" width="362" height="200" x="0" y="0" rx="20"/>
  </defs>
  <g fill="none" fill-rule="evenodd">
    <mask id="img-location-newtaipei-b" fill="#fff">
      <use xlink:href="#img-location-newtaipei-a"/>
    </mask>
    <use fill="#06F3F9" xlink:href="#img-location-newtaipei-a"/>
    <g mask="url(#img-location-newtaipei-b)" opacity=".6">
      <g transform="translate(-317 -86)">
        <path fill="#FFF" d="M54.332114,924.876123 C65.4470971,947.113854 74.7085652,965.645805 80.574467,976.146022 C86.4403688,986.649294 88.9076508,989.117777 91.3779863,992.518051 C93.8452683,995.912215 96.3186574,1000.23817 97.5522984,1003.32683 C98.7889929,1006.41243 98.7889929,1008.26685 98.4775291,1009.19558 C98.1691189,1010.11821 97.5522984,1010.11821 95.6987834,1010.73533 C93.8452683,1011.35856 90.7611658,1012.5928 89.8328815,1015.06434 C88.9076508,1017.53282 90.1443454,1021.2386 93.8452683,1026.7988 C97.5522984,1032.359 103.72661,1039.77055 108.047407,1044.71363 C112.371258,1049.65671 114.83854,1052.12519 117.308876,1054.59673 C119.779211,1057.06826 122.249547,1059.53675 124.25574,1061.54392 C126.261933,1063.55414 127.807038,1065.09694 128.423859,1066.33424 C129.040679,1067.56848 128.732269,1068.49416 128.268127,1068.95853 C127.807038,1069.41984 127.187164,1069.41984 125.336703,1068.34141 C123.483188,1067.25687 120.396032,1065.09694 118.85398,1064.32707 C117.308876,1063.55414 117.308876,1064.17126 117.308876,1064.94419 C117.308876,1065.71712 117.308876,1066.6428 119.159337,1068.1856 C121.012852,1069.73146 124.719882,1071.89138 127.807038,1072.97593 C130.891141,1074.05436 133.361476,1074.05436 135.214991,1074.51567 C137.065453,1074.9831 138.302147,1075.90878 140.772483,1077.60433 C143.239765,1079.306 146.946795,1081.77448 151.267592,1084.24602 C155.588389,1086.72061 160.52906,1089.18909 164.233036,1091.04351 C167.937013,1092.89487 170.407349,1094.12911 172.260864,1094.12911 C174.111325,1094.12911 175.344966,1092.89487 176.581661,1091.04351 C177.815302,1089.18909 179.051996,1086.72061 180.285637,1086.09738 C181.519278,1085.48331 182.755973,1086.72061 183.989614,1088.57197 C185.226308,1090.42333 186.459949,1092.89487 187.69359,1094.74929 C188.930285,1096.60065 190.163926,1097.83795 192.017441,1099.07524 C193.867902,1100.30948 196.338238,1101.54373 199.425394,1103.08653 C202.51255,1104.63238 206.216526,1106.48375 209.923556,1110.18953 C228.446493,1128.72453 243.262399,1141.69629 251.907046,1148.79928 C260.54864,1155.90228 263.018976,1157.13652 264.25567,1158.37382 C265.489311,1159.60806 265.489311,1160.8423 268.271111,1166.09394 C271.046803,1171.34558 276.601241,1180.61155 291.423254,1202.84928 C295.124177,1210.26084 295.124177,1212.11526 294.507357,1214.89536 C293.890536,1217.67545 292.656895,1221.38123 291.423254,1225.70413 C290.18656,1230.03009 288.952919,1234.97011 288.333045,1238.05877 C287.719278,1241.14437 287.719278,1242.38472 288.952919,1244.85321 C290.18656,1247.32474 292.656895,1251.03052 296.666228,1255.97054 C300.684722,1260.91362 306.23916,1267.09399 309.634727,1272.96275 C313.030293,1278.82845 314.263934,1284.38865 316.117449,1287.16874 C317.970964,1289.94579 320.438246,1289.94579 321.67494,1288.40298 C322.908581,1286.85713 322.908581,1283.77152 323.220045,1280.37125 C323.525402,1276.97403 324.142222,1273.26825 325.070507,1271.41689 C325.995737,1269.56247 327.229378,1269.56247 328.774483,1270.48815 C330.319588,1271.41689 332.17005,1273.26825 339.581056,1280.67981 C350.692986,1284.38865 350.692986,1288.09442 351.001396,1291.18003 C351.309806,1294.27174 351.926627,1296.74328 353.160268,1297.97752 C354.396962,1299.21176 356.250477,1299.21176 357.175708,1298.59464 C358.100939,1297.97752 358.100939,1296.74328 358.720813,1293.0375 C359.337633,1289.32867 360.571274,1283.15135 360.571274,1278.20827 C360.571274,1273.26825 359.337633,1269.56247 359.646044,1263.0766 C359.954454,1256.59072 361.804915,1247.32474 361.804915,1239.91013 C361.804915,1236.20435 367.362407,1230.64721 370.141153,1227.24999 C372.919898,1223.84972 372.919898,1222.61547 371.686257,1221.38123 C370.449563,1220.14394 367.979227,1218.9097 366.125712,1216.43816 C364.275251,1213.96662 363.04161,1210.26084 363.35002,1200.99486 C363.65843,1191.72889 365.511945,1176.90577 361.804915,1158.37382 C358.100939,1147.25343 359.954454,1139.84187 360.882738,1132.43031 C361.804915,1125.01875 361.804915,1117.60414 363.65843,1112.047 C365.511945,1106.48375 369.212868,1102.77797 372.303078,1097.21777 C375.390234,1091.66063 377.857516,1084.24602 378.474336,1078.68887 C379.091157,1073.12562 377.857516,1069.41984 379.091157,1063.24558 C380.327851,1057.06826 384.034882,1048.41635 385.885343,1041.62497 C387.738858,1034.83053 387.738858,1029.88746 390.822961,1023.08997 C393.910117,1016.29858 400.084429,1007.64973 412.433053,992.823556 C424.781677,978.000439 443.304613,956.99695 453.182902,945.259437 C463.064244,933.521923 464.297885,931.050385 464.297885,928.581902 C464.297885,926.110365 463.064244,923.641882 462.44437,920.550168 C461.827549,917.46151 461.827549,913.75573 464.297885,911.904368 C466.765167,910.049951 471.708891,910.049951 475.409814,910.049951 C479.113791,910.049951 481.58718,910.049951 483.437641,908.81571 C485.291156,907.578413 486.524797,905.106875 492.079235,895.226834 C497.639781,885.343738 507.515016,868.042973 516.159663,854.457152 C524.804311,840.865222 532.212264,830.985181 534.682599,824.187688 C537.152935,817.390195 534.682599,813.684416 533.445905,809.981691 C532.212264,806.275912 532.212264,802.567078 531.595443,798.244178 C530.978623,793.921278 529.741928,788.981257 530.361802,785.272423 C530.978623,781.566644 533.445905,779.092051 537.769755,767.977768 C542.090552,756.857376 548.267918,737.088128 551.355074,725.353669 C554.439177,713.619211 554.439177,709.910377 553.822356,706.204597 C553.205536,702.498818 551.971895,698.789984 551.971895,696.318446 C551.971895,693.849963 553.205536,692.615722 554.439177,690.761305 C555.675871,688.909943 556.909512,686.438405 557.529386,683.966867 C558.143153,681.495329 558.143153,679.023791 556.292692,675.009452 C554.439177,670.992057 550.7352,665.434916 550.7352,661.729137 C550.7352,654.314523 554.439177,652.463161 556.292692,649.683063 C558.143153,646.902964 558.143153,643.197185 559.999722,631.459672 C561.84713,619.722158 565.55416,599.959021 568.024495,583.278432 C570.494831,566.600897 571.728472,553.008967 572.965166,543.125871 C574.198807,533.242774 575.432448,527.065457 576.669143,520.271019 C577.902784,513.476582 579.136425,506.065023 581.60676,499.270585 C584.074042,492.473092 587.778019,486.295775 589.634587,482.589996 C591.485049,478.884217 591.485049,477.64692 590.868228,475.178438 C590.251408,472.7069 589.017767,469.001121 588.397893,465.292286 C587.778019,461.589562 587.778019,457.883783 588.397893,454.174949 C589.017767,450.469169 590.251408,446.76339 592.101869,441.820314 C593.955384,436.880294 596.422666,430.702977 597.659361,426.994142 C598.893002,423.288363 598.893002,422.054122 597.659361,418.965463 C596.422666,415.876805 593.955384,410.933729 593.338564,408.465246 C592.71869,405.993708 593.955384,405.993708 600.126643,401.670808 C606.304009,397.344853 617.415938,388.699054 622.97343,383.755978 C628.530921,378.812902 628.530921,377.578661 627.914101,374.490002 C627.29728,371.401344 626.060586,366.458268 626.060586,362.752489 C626.060586,359.046709 627.29728,356.575172 629.147742,352.252272 C631.001257,347.926317 633.468539,341.749 637.172515,335.571683 C640.879545,329.397421 645.817163,323.220103 648.287498,317.659907 C650.75478,312.099711 650.75478,307.15969 651.991475,303.453911 C653.228169,299.745076 655.695451,297.273539 656.932146,292.950639 C658.165787,288.627739 658.165787,282.450422 660.019302,276.890225 C661.872817,271.330029 665.576794,266.390008 667.427255,263.30135 C669.28077,260.212691 669.28077,258.975395 668.66395,258.358274 C668.044076,257.741153 666.810435,257.741153 663.106458,254.035374 C659.399428,250.329595 653.228169,242.914981 649.521139,238.592081 C645.817163,234.269181 644.583522,233.031885 643.966701,231.797644 C643.349881,230.560347 643.349881,229.326106 642.730007,225.620327 C642.113186,221.914547 640.879545,215.73723 640.262725,209.559913 C639.645904,203.382596 639.645904,197.205279 639.02603,193.4995 C638.40921,189.79372 637.172515,188.556424 637.789336,185.467765 C638.40921,182.379107 640.879545,177.439086 642.730007,173.113131 C644.583522,168.790231 645.817163,165.084452 647.670678,160.141376 C649.521139,155.198301 651.991475,149.024039 656.315325,142.226546 C660.639176,135.432108 666.810435,128.02055 671.131232,123.080529 C675.452029,118.137453 677.925418,115.665915 680.3927,114.431674 C682.863035,113.194378 685.333371,113.194378 687.803706,112.577257 C690.270988,111.960136 692.741324,110.725895 693.978018,109.488598 C695.211659,108.254357 695.211659,107.017061 694.594839,105.165698 C693.978018,103.311281 692.741324,100.839743 690.270988,98.9883813 C687.803706,97.1370192 684.096676,95.8997228 681.012574,95.2826021 C677.925418,94.6654814 675.452029,94.6654814 673.601567,92.1939436 C671.748052,89.7224057 670.514411,84.7823851 668.044076,80.4564301 C665.576794,76.1335301 661.872817,72.4277509 657.548966,70.5733338 C653.228169,68.7189166 648.287498,68.7189166 643.966701,68.1017959 C639.645904,67.4846752 635.938874,66.2473788 632.234898,65.0131374 C628.530921,63.778896 624.823891,62.5415995 621.736735,61.3073581 C618.652633,60.0731167 616.182297,58.8358203 612.475267,58.2186996 C608.771291,57.6015789 603.833673,57.6015789 599.509822,56.9844582 C595.189025,56.3642824 591.485049,55.130041 589.017767,53.278679 C586.544378,51.4242618 585.310737,48.952724 581.915171,45.8640654 C578.519604,42.7754069 572.965166,39.0696276 569.258136,31.6550141 C550.7352,27.9522899 550.7352,26.0978728 549.501559,22.0835332 C548.267918,18.0661385 545.797582,11.8888215 542.710426,7.56592152 C539.62327,3.24302158 535.91624,0.771483734 530.978623,0.151307983 C526.041005,-0.465812715 519.866693,0.771483734 513.072507,4.47726297 C506.281375,8.18304221 498.873422,14.3603593 492.079235,19.303435 C485.291156,24.2434556 479.113791,27.9522899 475.409814,32.2751899 C471.708891,36.5980898 470.472197,41.5411655 469.238556,45.2469447 C468.001861,48.952724 466.765167,51.4242618 465.531526,53.278679 C464.297885,55.130041 463.064244,56.3642824 458.740393,58.8358203 C454.416543,61.3073581 447.011643,65.0131374 440.834277,67.4846752 C434.663019,69.9562131 429.725401,71.1904545 421.0777,73.0448716 C412.433053,74.8962337 400.084429,77.3677715 393.293296,79.8393094 C386.502163,82.3108472 385.268523,84.7823851 379.091157,89.7224057 C372.919898,94.6654814 361.804915,102.07704 355.016836,106.39994 C348.22265,110.725895 345.755368,111.960136 342.051392,114.431674 C338.344362,116.900157 333.406744,120.608991 328.463019,125.549012 C323.525402,130.492087 318.587784,136.669405 313.650167,143.463842 C308.709496,150.25828 303.768825,157.672894 298.211333,163.850211 C292.656895,170.024473 286.47953,174.967548 283.395427,181.761986 C280.308271,188.556424 280.308271,197.205279 279.691451,203.999717 C279.071577,210.794155 277.834882,215.73723 277.221115,220.06013 C276.601241,224.38303 276.601241,228.091864 275.3676,230.560347 C274.133959,233.031885 271.663623,234.269181 268.576467,238.592081 C265.489311,242.914981 261.785335,250.329595 258.081358,254.652495 C254.377382,258.975395 250.670352,260.212691 246.966375,260.829812 C243.262399,261.446933 239.558422,261.446933 236.471266,263.30135 C233.38411,265.155767 230.913775,268.861546 225.973104,274.418687 C221.035486,279.978884 213.627533,287.390442 209.923556,294.805056 C198.808573,317.042786 191.40062,330.014541 183.989614,342.677736 C176.581661,355.34093 169.170654,367.695564 164.849857,376.344419 C160.52906,384.990219 159.295419,389.933295 156.82203,396.727733 C154.354748,403.52217 150.650771,412.171025 146.326921,418.965463 C142.006124,425.759901 137.065453,430.702977 132.127835,439.348777 C127.187164,447.997631 122.249547,460.352266 118.542517,468.384 C114.83854,476.412679 112.371258,480.118458 109.284102,484.444413 C106.193892,488.767313 102.489916,493.710389 98.7889929,498.65041 C95.0819629,503.593485 91.3779863,508.533506 87.0571893,515.327944 C82.7333387,522.125436 77.7957212,530.774291 74.3971014,540.654333 C71.0015351,550.540484 69.1510736,561.657822 58.0360905,572.778215 C43.2201844,591.307111 37.6626928,600.576141 32.4136115,610.767798 C27.1675838,620.959455 22.2269127,632.076792 19.1397567,641.962944 C16.0526006,651.84604 14.8189597,660.49184 14.1990856,668.523574 C13.5822651,676.555309 13.5822651,683.966867 14.1990856,690.144184 C14.8189597,696.318446 16.0526006,701.261522 16.6694211,706.204597 C17.2892952,711.144618 17.2892952,716.087694 17.2892952,722.882132 C17.2892952,729.676569 17.2892952,738.325424 16.6694211,745.736983 C16.0526006,753.148541 14.8189597,759.328913 13.5822651,767.357593 C12.3486241,775.386272 11.1149831,785.272423 9.26146809,795.77264 C7.40795304,806.275912 4.94067107,817.390195 3.08715603,824.187688 C1.23364099,830.985181 0,833.453663 0,835.308081 C0,837.159443 1.23364099,838.393684 2.47033554,839.63098 C3.70397652,840.865222 4.94067107,842.099463 5.55749157,847.662715 C6.17431206,853.219856 6.17431206,863.102952 7.40795304,869.283324 C8.6446476,875.457587 11.1149831,877.929124 18.8313464,885.649243 C26.5477097,893.372417 39.5131543,906.344172 54.332114,924.876123" opacity=".801"/>
        <path stroke="#FFF" stroke-width="6.208" d="M54.332114,924.876123 C65.4470971,947.113854 74.7085652,965.645805 80.574467,976.146022 C86.4403688,986.649294 88.9076508,989.117777 91.3779863,992.518051 C93.8452683,995.912215 96.3186574,1000.23817 97.5522984,1003.32683 C98.7889929,1006.41243 98.7889929,1008.26685 98.4775291,1009.19558 C98.1691189,1010.11821 97.5522984,1010.11821 95.6987834,1010.73533 C93.8452683,1011.35856 90.7611658,1012.5928 89.8328815,1015.06434 C88.9076508,1017.53282 90.1443454,1021.2386 93.8452683,1026.7988 C97.5522984,1032.359 103.72661,1039.77055 108.047407,1044.71363 C112.371258,1049.65671 114.83854,1052.12519 117.308876,1054.59673 C119.779211,1057.06826 122.249547,1059.53675 124.25574,1061.54392 C126.261933,1063.55414 127.807038,1065.09694 128.423859,1066.33424 C129.040679,1067.56848 128.732269,1068.49416 128.268127,1068.95853 C127.807038,1069.41984 127.187164,1069.41984 125.336703,1068.34141 C123.483188,1067.25687 120.396032,1065.09694 118.85398,1064.32707 C117.308876,1063.55414 117.308876,1064.17126 117.308876,1064.94419 C117.308876,1065.71712 117.308876,1066.6428 119.159337,1068.1856 C121.012852,1069.73146 124.719882,1071.89138 127.807038,1072.97593 C130.891141,1074.05436 133.361476,1074.05436 135.214991,1074.51567 C137.065453,1074.9831 138.302147,1075.90878 140.772483,1077.60433 C143.239765,1079.306 146.946795,1081.77448 151.267592,1084.24602 C155.588389,1086.72061 160.52906,1089.18909 164.233036,1091.04351 C167.937013,1092.89487 170.407349,1094.12911 172.260864,1094.12911 C174.111325,1094.12911 175.344966,1092.89487 176.581661,1091.04351 C177.815302,1089.18909 179.051996,1086.72061 180.285637,1086.09738 C181.519278,1085.48331 182.755973,1086.72061 183.989614,1088.57197 C185.226308,1090.42333 186.459949,1092.89487 187.69359,1094.74929 C188.930285,1096.60065 190.163926,1097.83795 192.017441,1099.07524 C193.867902,1100.30948 196.338238,1101.54373 199.425394,1103.08653 C202.51255,1104.63238 206.216526,1106.48375 209.923556,1110.18953 C228.446493,1128.72453 243.262399,1141.69629 251.907046,1148.79928 C260.54864,1155.90228 263.018976,1157.13652 264.25567,1158.37382 C265.489311,1159.60806 265.489311,1160.8423 268.271111,1166.09394 C271.046803,1171.34558 276.601241,1180.61155 291.423254,1202.84928 C295.124177,1210.26084 295.124177,1212.11526 294.507357,1214.89536 C293.890536,1217.67545 292.656895,1221.38123 291.423254,1225.70413 C290.18656,1230.03009 288.952919,1234.97011 288.333045,1238.05877 C287.719278,1241.14437 287.719278,1242.38472 288.952919,1244.85321 C290.18656,1247.32474 292.656895,1251.03052 296.666228,1255.97054 C300.684722,1260.91362 306.23916,1267.09399 309.634727,1272.96275 C313.030293,1278.82845 314.263934,1284.38865 316.117449,1287.16874 C317.970964,1289.94579 320.438246,1289.94579 321.67494,1288.40298 C322.908581,1286.85713 322.908581,1283.77152 323.220045,1280.37125 C323.525402,1276.97403 324.142222,1273.26825 325.070507,1271.41689 C325.995737,1269.56247 327.229378,1269.56247 328.774483,1270.48815 C330.319588,1271.41689 332.17005,1273.26825 339.581056,1280.67981 C350.692986,1284.38865 350.692986,1288.09442 351.001396,1291.18003 C351.309806,1294.27174 351.926627,1296.74328 353.160268,1297.97752 C354.396962,1299.21176 356.250477,1299.21176 357.175708,1298.59464 C358.100939,1297.97752 358.100939,1296.74328 358.720813,1293.0375 C359.337633,1289.32867 360.571274,1283.15135 360.571274,1278.20827 C360.571274,1273.26825 359.337633,1269.56247 359.646044,1263.0766 C359.954454,1256.59072 361.804915,1247.32474 361.804915,1239.91013 C361.804915,1236.20435 367.362407,1230.64721 370.141153,1227.24999 C372.919898,1223.84972 372.919898,1222.61547 371.686257,1221.38123 C370.449563,1220.14394 367.979227,1218.9097 366.125712,1216.43816 C364.275251,1213.96662 363.04161,1210.26084 363.35002,1200.99486 C363.65843,1191.72889 365.511945,1176.90577 361.804915,1158.37382 C358.100939,1147.25343 359.954454,1139.84187 360.882738,1132.43031 C361.804915,1125.01875 361.804915,1117.60414 363.65843,1112.047 C365.511945,1106.48375 369.212868,1102.77797 372.303078,1097.21777 C375.390234,1091.66063 377.857516,1084.24602 378.474336,1078.68887 C379.091157,1073.12562 377.857516,1069.41984 379.091157,1063.24558 C380.327851,1057.06826 384.034882,1048.41635 385.885343,1041.62497 C387.738858,1034.83053 387.738858,1029.88746 390.822961,1023.08997 C393.910117,1016.29858 400.084429,1007.64973 412.433053,992.823556 C424.781677,978.000439 443.304613,956.99695 453.182902,945.259437 C463.064244,933.521923 464.297885,931.050385 464.297885,928.581902 C464.297885,926.110365 463.064244,923.641882 462.44437,920.550168 C461.827549,917.46151 461.827549,913.75573 464.297885,911.904368 C466.765167,910.049951 471.708891,910.049951 475.409814,910.049951 C479.113791,910.049951 481.58718,910.049951 483.437641,908.81571 C485.291156,907.578413 486.524797,905.106875 492.079235,895.226834 C497.639781,885.343738 507.515016,868.042973 516.159663,854.457152 C524.804311,840.865222 532.212264,830.985181 534.682599,824.187688 C537.152935,817.390195 534.682599,813.684416 533.445905,809.981691 C532.212264,806.275912 532.212264,802.567078 531.595443,798.244178 C530.978623,793.921278 529.741928,788.981257 530.361802,785.272423 C530.978623,781.566644 533.445905,779.092051 537.769755,767.977768 C542.090552,756.857376 548.267918,737.088128 551.355074,725.353669 C554.439177,713.619211 554.439177,709.910377 553.822356,706.204597 C553.205536,702.498818 551.971895,698.789984 551.971895,696.318446 C551.971895,693.849963 553.205536,692.615722 554.439177,690.761305 C555.675871,688.909943 556.909512,686.438405 557.529386,683.966867 C558.143153,681.495329 558.143153,679.023791 556.292692,675.009452 C554.439177,670.992057 550.7352,665.434916 550.7352,661.729137 C550.7352,654.314523 554.439177,652.463161 556.292692,649.683063 C558.143153,646.902964 558.143153,643.197185 559.999722,631.459672 C561.84713,619.722158 565.55416,599.959021 568.024495,583.278432 C570.494831,566.600897 571.728472,553.008967 572.965166,543.125871 C574.198807,533.242774 575.432448,527.065457 576.669143,520.271019 C577.902784,513.476582 579.136425,506.065023 581.60676,499.270585 C584.074042,492.473092 587.778019,486.295775 589.634587,482.589996 C591.485049,478.884217 591.485049,477.64692 590.868228,475.178438 C590.251408,472.7069 589.017767,469.001121 588.397893,465.292286 C587.778019,461.589562 587.778019,457.883783 588.397893,454.174949 C589.017767,450.469169 590.251408,446.76339 592.101869,441.820314 C593.955384,436.880294 596.422666,430.702977 597.659361,426.994142 C598.893002,423.288363 598.893002,422.054122 597.659361,418.965463 C596.422666,415.876805 593.955384,410.933729 593.338564,408.465246 C592.71869,405.993708 593.955384,405.993708 600.126643,401.670808 C606.304009,397.344853 617.415938,388.699054 622.97343,383.755978 C628.530921,378.812902 628.530921,377.578661 627.914101,374.490002 C627.29728,371.401344 626.060586,366.458268 626.060586,362.752489 C626.060586,359.046709 627.29728,356.575172 629.147742,352.252272 C631.001257,347.926317 633.468539,341.749 637.172515,335.571683 C640.879545,329.397421 645.817163,323.220103 648.287498,317.659907 C650.75478,312.099711 650.75478,307.15969 651.991475,303.453911 C653.228169,299.745076 655.695451,297.273539 656.932146,292.950639 C658.165787,288.627739 658.165787,282.450422 660.019302,276.890225 C661.872817,271.330029 665.576794,266.390008 667.427255,263.30135 C669.28077,260.212691 669.28077,258.975395 668.66395,258.358274 C668.044076,257.741153 666.810435,257.741153 663.106458,254.035374 C659.399428,250.329595 653.228169,242.914981 649.521139,238.592081 C645.817163,234.269181 644.583522,233.031885 643.966701,231.797644 C643.349881,230.560347 643.349881,229.326106 642.730007,225.620327 C642.113186,221.914547 640.879545,215.73723 640.262725,209.559913 C639.645904,203.382596 639.645904,197.205279 639.02603,193.4995 C638.40921,189.79372 637.172515,188.556424 637.789336,185.467765 C638.40921,182.379107 640.879545,177.439086 642.730007,173.113131 C644.583522,168.790231 645.817163,165.084452 647.670678,160.141376 C649.521139,155.198301 651.991475,149.024039 656.315325,142.226546 C660.639176,135.432108 666.810435,128.02055 671.131232,123.080529 C675.452029,118.137453 677.925418,115.665915 680.3927,114.431674 C682.863035,113.194378 685.333371,113.194378 687.803706,112.577257 C690.270988,111.960136 692.741324,110.725895 693.978018,109.488598 C695.211659,108.254357 695.211659,107.017061 694.594839,105.165698 C693.978018,103.311281 692.741324,100.839743 690.270988,98.9883813 C687.803706,97.1370192 684.096676,95.8997228 681.012574,95.2826021 C677.925418,94.6654814 675.452029,94.6654814 673.601567,92.1939436 C671.748052,89.7224057 670.514411,84.7823851 668.044076,80.4564301 C665.576794,76.1335301 661.872817,72.4277509 657.548966,70.5733338 C653.228169,68.7189166 648.287498,68.7189166 643.966701,68.1017959 C639.645904,67.4846752 635.938874,66.2473788 632.234898,65.0131374 C628.530921,63.778896 624.823891,62.5415995 621.736735,61.3073581 C618.652633,60.0731167 616.182297,58.8358203 612.475267,58.2186996 C608.771291,57.6015789 603.833673,57.6015789 599.509822,56.9844582 C595.189025,56.3642824 591.485049,55.130041 589.017767,53.278679 C586.544378,51.4242618 585.310737,48.952724 581.915171,45.8640654 C578.519604,42.7754069 572.965166,39.0696276 569.258136,31.6550141 C550.7352,27.9522899 550.7352,26.0978728 549.501559,22.0835332 C548.267918,18.0661385 545.797582,11.8888215 542.710426,7.56592152 C539.62327,3.24302158 535.91624,0.771483734 530.978623,0.151307983 C526.041005,-0.465812715 519.866693,0.771483734 513.072507,4.47726297 C506.281375,8.18304221 498.873422,14.3603593 492.079235,19.303435 C485.291156,24.2434556 479.113791,27.9522899 475.409814,32.2751899 C471.708891,36.5980898 470.472197,41.5411655 469.238556,45.2469447 C468.001861,48.952724 466.765167,51.4242618 465.531526,53.278679 C464.297885,55.130041 463.064244,56.3642824 458.740393,58.8358203 C454.416543,61.3073581 447.011643,65.0131374 440.834277,67.4846752 C434.663019,69.9562131 429.725401,71.1904545 421.0777,73.0448716 C412.433053,74.8962337 400.084429,77.3677715 393.293296,79.8393094 C386.502163,82.3108472 385.268523,84.7823851 379.091157,89.7224057 C372.919898,94.6654814 361.804915,102.07704 355.016836,106.39994 C348.22265,110.725895 345.755368,111.960136 342.051392,114.431674 C338.344362,116.900157 333.406744,120.608991 328.463019,125.549012 C323.525402,130.492087 318.587784,136.669405 313.650167,143.463842 C308.709496,150.25828 303.768825,157.672894 298.211333,163.850211 C292.656895,170.024473 286.47953,174.967548 283.395427,181.761986 C280.308271,188.556424 280.308271,197.205279 279.691451,203.999717 C279.071577,210.794155 277.834882,215.73723 277.221115,220.06013 C276.601241,224.38303 276.601241,228.091864 275.3676,230.560347 C274.133959,233.031885 271.663623,234.269181 268.576467,238.592081 C265.489311,242.914981 261.785335,250.329595 258.081358,254.652495 C254.377382,258.975395 250.670352,260.212691 246.966375,260.829812 C243.262399,261.446933 239.558422,261.446933 236.471266,263.30135 C233.38411,265.155767 230.913775,268.861546 225.973104,274.418687 C221.035486,279.978884 213.627533,287.390442 209.923556,294.805056 C198.808573,317.042786 191.40062,330.014541 183.989614,342.677736 C176.581661,355.34093 169.170654,367.695564 164.849857,376.344419 C160.52906,384.990219 159.295419,389.933295 156.82203,396.727733 C154.354748,403.52217 150.650771,412.171025 146.326921,418.965463 C142.006124,425.759901 137.065453,430.702977 132.127835,439.348777 C127.187164,447.997631 122.249547,460.352266 118.542517,468.384 C114.83854,476.412679 112.371258,480.118458 109.284102,484.444413 C106.193892,488.767313 102.489916,493.710389 98.7889929,498.65041 C95.0819629,503.593485 91.3779863,508.533506 87.0571893,515.327944 C82.7333387,522.125436 77.7957212,530.774291 74.3971014,540.654333 C71.0015351,550.540484 69.1510736,561.657822 58.0360905,572.778215 C43.2201844,591.307111 37.6626928,600.576141 32.4136115,610.767798 C27.1675838,620.959455 22.2269127,632.076792 19.1397567,641.962944 C16.0526006,651.84604 14.8189597,660.49184 14.1990856,668.523574 C13.5822651,676.555309 13.5822651,683.966867 14.1990856,690.144184 C14.8189597,696.318446 16.0526006,701.261522 16.6694211,706.204597 C17.2892952,711.144618 17.2892952,716.087694 17.2892952,722.882132 C17.2892952,729.676569 17.2892952,738.325424 16.6694211,745.736983 C16.0526006,753.148541 14.8189597,759.328913 13.5822651,767.357593 C12.3486241,775.386272 11.1149831,785.272423 9.26146809,795.77264 C7.40795304,806.275912 4.94067107,817.390195 3.08715603,824.187688 C1.23364099,830.985181 0,833.453663 0,835.308081 C0,837.159443 1.23364099,838.393684 2.47033554,839.63098 C3.70397652,840.865222 4.94067107,842.099463 5.55749157,847.662715 C6.17431206,853.219856 6.17431206,863.102952 7.40795304,869.283324 C8.6446476,875.457587 11.1149831,877.929124 18.8313464,885.649243 C26.5477097,893.372417 39.5131543,906.344172 54.332114,924.876123 Z"/>
        <path stroke="#FFF" stroke-width="6.208" d="M86.2559071,585.174695 C86.2559071,586.408502 87.4882246,587.645364 88.7235924,588.882225 C89.95591,590.116033 91.1882275,591.34984 91.8043863,592.586702 C92.420545,593.820509 92.420545,595.054317 91.1882275,595.674274 C89.95591,596.291178 87.4882246,596.291178 85.0205393,596.908082 C82.5559042,597.524986 80.0882188,598.761847 77.6205336,599.375697 C75.1528481,599.998708 72.6882131,599.998708 71.4497949,600.612558 C70.2174774,601.232516 70.2174774,602.466323 70.2174774,604.320089 C70.2174774,606.1708 70.2174774,608.641469 70.8366865,610.49218 C71.4497949,612.342891 72.6882131,613.579753 75.7690069,614.199711 C78.852851,614.816614 83.7851714,614.816614 87.4882246,615.433518 C91.1882275,616.050422 93.6559129,617.287283 94.2720716,619.137994 C94.8882304,620.99176 93.6559129,623.459375 93.0428044,626.546947 C92.4510479,629.500145 92.420545,633.015275 93.500348,636.014282 C89.8857533,637.251144 87.2838551,637.663431 84.4043805,638.900292 C80.0882188,640.751003 75.1528481,644.45548 71.4497949,646.926149 C67.7528423,649.393764 65.285157,650.633679 62.8174716,653.101294 C60.3528366,655.571963 57.8851512,659.27644 55.4205161,662.360958 C52.9497805,665.448531 50.4820951,667.922254 48.6336188,670.389869 C46.7851425,672.860538 45.5467244,675.331207 44.3144069,678.418779 C43.0820894,681.506352 41.8467215,685.210829 41.2305628,688.298401 C40.614404,691.38292 40.614404,693.856643 39.9982452,701.885554 C39.3820865,709.91141 38.1497689,723.495509 37.5305599,732.758227 C36.9144011,742.020945 36.9144011,746.962283 36.2982424,750.046801 C35.6820836,753.137428 34.4497661,754.368182 33.2143982,755.608097 L29.5143953,759.312573 C28.2790275,760.546381 27.04671,761.780188 25.8143925,763.633954 C24.5790246,765.487719 23.3467071,767.958388 22.7305483,770.426003 C22.1143896,772.896672 22.1143896,775.364287 22.7305483,777.834956 C23.3467071,780.308679 24.5790246,782.776294 25.8143925,784.630059 C27.04671,786.48077 28.2790275,787.714578 29.5143953,792.039012 C30.7497632,796.360392 31.9820807,803.769345 33.2143982,808.093779 C34.4497661,812.415159 35.6820836,813.652021 39.3820865,816.736539 C43.0820894,819.824112 49.2497776,824.76545 52.3336217,828.469926 C55.4205161,832.177457 55.4205161,834.648126 55.4205161,838.349548 C55.4205161,842.054025 55.4205161,846.995363 54.7982568,850.699839 C54.182098,854.404315 52.9497805,856.878038 51.1013042,858.725696 C49.2497776,860.582515 46.7851425,861.816322 40.614404,864.286991 C34.4497661,866.754606 24.5790246,870.459083 19.6436539,873.549709 C14.7113335,876.637282 14.7113335,879.104897 13.479016,884.660085 C12.2436481,890.22138 9.77901308,898.867195 7.31132772,906.276148 C4.84669265,913.6851 2.37595701,919.8633 1.14363947,924.801584 C-0.0917283486,929.739868 -0.0917283486,933.444344 0.527480709,936.534971 C1.14363947,939.622544 2.37595701,942.090159 4.84669265,948.882208 C7.31132772,955.674257 11.0113306,966.79074 12.8598069,974.819651 C14.7113335,982.845507 14.7113335,987.786845 14.7113335,992.108225 C14.7113335,996.429606 14.7113335,1000.13408 15.3274923,1002.60781 C15.943651,1005.07542 17.1790189,1006.30923 19.6436539,1006.92919 C22.1143896,1007.54609 25.8143925,1007.54609 27.6628688,1008.7799 C29.5143953,1010.0137 29.5143953,1012.48743 29.5143953,1015.575 C29.5143953,1018.65952 29.5143953,1022.36399 30.1305541,1024.83466 C30.7497632,1027.30533 31.9820807,1028.54219 33.830557,1030.39291 C35.6820836,1032.24667 38.1497689,1034.71429 40.614404,1035.95115 C43.0820894,1037.18801 45.5467244,1037.18801 48.6336188,1038.42182 C51.717463,1039.65562 55.4205161,1042.12629 59.120519,1043.3601 C62.8174716,1044.59696 66.5174745,1044.59696 72.9932422,1044.59696 C74.4543315,1044.59696 76.0587845,1044.59696 77.6632376,1044.80769 C77.6510364,1044.73439 77.6357849,1044.6672 77.6205336,1044.59696 C73.9205306,1033.48048 75.7690069,1026.07153 76.6962953,1018.65952 C77.6205336,1011.25362 77.6205336,1003.84161 79.4690098,998.286425 C81.3235867,992.725129 85.0205393,989.020653 88.1043834,983.462411 C91.1882275,977.907223 93.6559129,970.495217 94.2720716,964.940029 C94.8882304,959.378733 93.6559129,955.674257 94.8882304,949.502165 C96.1205479,943.323966 99.8236011,934.678152 101.675128,927.889156 C103.523604,921.097107 103.523604,916.155769 106.607448,909.360666 C109.691292,902.571671 115.85898,893.925857 128.194357,879.104897 C140.529733,864.286991 159.029748,843.290886 168.900489,831.557499 C178.76818,819.824112 180.000498,817.353443 180.000498,814.885828 C180.000498,812.415159 178.76818,809.947544 178.152022,806.856917 C177.535863,803.769345 177.535863,800.064868 180.000498,798.214157 C182.468183,796.360392 187.403554,796.360392 191.103557,796.360392 C194.80356,796.360392 197.271245,796.360392 199.122772,795.126584 C200.971248,793.889723 202.206616,791.419054 207.755095,781.542486 C213.306625,771.65981 223.174316,754.368182 231.809689,740.787137 C240.445063,727.199985 247.845069,717.323417 250.309704,710.528314 C252.780439,703.733211 250.309704,700.028734 249.077386,696.327312 C247.845069,692.622836 247.845069,688.915305 247.22586,684.593925 C246.609701,680.272545 245.377383,675.331207 245.993542,671.62673 C246.609701,667.922254 249.077386,665.448531 253.396598,654.335102 C257.71276,643.221672 263.880448,623.459375 266.964292,611.729042 C270.048136,599.998708 270.048136,596.291178 269.431978,592.586702 C268.815819,588.882225 267.580451,585.174695 267.580451,582.704026 C267.580451,580.236411 268.815819,579.002603 270.048136,577.148838 C271.280454,575.298127 272.512771,572.827458 273.135031,570.353735 C273.748139,567.88612 273.748139,565.415451 271.896613,561.402523 C270.048136,557.38654 266.348133,551.831353 266.348133,548.126876 C266.348133,540.714869 270.048136,538.864158 271.896613,536.085037 C273.748139,533.305917 273.748139,529.60144 275.599666,517.868053 C277.448142,506.134666 281.151195,486.375422 283.61583,469.703751 C286.086566,453.029026 287.318884,439.444928 288.551201,429.565306 C289.786569,419.685684 291.018886,413.510539 292.251204,406.71849 C293.483521,399.926441 294.718889,392.517488 297.183524,385.722385 C299.65121,378.930336 303.351213,372.75519 305.202739,369.050714 C307.054266,365.346237 307.054266,364.109376 306.438107,361.641761 C305.818898,359.171092 304.58658,355.466615 303.970422,351.759085 C303.351213,348.054609 303.351213,344.353186 303.970422,340.645656 C304.58658,336.941179 305.818898,333.236703 307.670425,328.295365 C309.518901,323.357081 311.986586,317.181936 313.218904,313.474405 C314.454272,309.769929 314.454272,308.536121 313.218904,305.448548 C311.986586,302.360976 309.518901,297.419638 308.902742,294.952023 C308.286583,292.481354 309.518901,292.481354 315.686589,288.159974 C321.854277,283.83554 332.957336,275.192779 338.505815,270.251441 C344.060395,265.310103 344.060395,264.076296 343.441186,260.988723 C342.825027,257.901151 341.59271,252.959813 341.59271,249.255336 C341.59271,245.55086 342.825027,243.080191 344.676554,238.758811 C346.52503,234.434376 348.992716,228.259231 352.692719,222.084086 C356.395772,215.911994 361.328092,209.733795 363.792727,204.178607 C366.260413,198.620365 366.260413,193.682082 367.49273,189.977605 C368.728098,186.270075 371.195783,183.799406 372.428101,179.478026 C373.663469,175.156645 373.663469,168.9815 375.511945,163.423258 C377.366522,157.865017 381.063474,152.926733 382.915001,149.83916 C384.763477,146.751587 384.763477,145.514726 384.147319,144.897822 C383.53116,144.280918 382.298842,144.280918 378.598839,140.576442 C374.895786,136.871965 368.728098,129.459959 365.028095,125.138578 C361.328092,120.817198 360.092724,119.580337 359.476566,118.346529 C358.860407,117.109668 358.860407,115.87586 358.244248,112.171384 C357.628089,108.466907 356.395772,102.291762 355.776563,96.1166166 C355.160404,89.9414712 355.160404,83.7663258 354.541195,80.0587954 C353.928086,76.3573729 352.692719,75.1205114 353.308877,72.0329387 C353.928086,68.945366 356.395772,64.0070821 358.244248,59.6826479 C360.092724,55.3612678 361.328092,51.6567913 363.176568,46.7154534 C365.028095,41.7741155 367.49273,35.6020241 371.811942,28.806921 C376.131154,22.0148718 382.298842,14.6059189 386.615004,9.66763499 C390.897612,4.7659988 393.359197,2.29532985 395.80553,1.04930644 C388.930175,-0.157015237 385.391837,-0.0256941427 382.603871,0.401862908 C378.598839,1.02182063 376.131154,2.25562812 371.195783,4.72629707 C366.260413,7.19696603 358.860407,10.9014425 354.541195,13.9890152 C350.225033,17.0735339 348.992716,19.5472568 347.757348,22.0148718 C346.52503,24.4855408 345.292713,26.9562097 342.825027,28.806921 C340.357342,30.6606862 336.657339,31.8944937 334.189654,31.2775899 C331.725019,30.6606862 330.489651,28.1900172 329.254283,28.806921 C328.021966,29.4238247 326.786598,33.1313551 324.938121,36.2189278 C323.089645,39.3065005 320.62196,41.7741155 310.13506,48.5692186 C299.65121,55.3612678 281.151195,66.4746971 271.280454,72.6498425 C261.415813,78.8249879 260.180445,80.0587954 260.180445,83.7663258 C260.180445,87.4708022 261.415813,93.6459476 260.796604,97.3504241 C260.180445,101.054901 257.71276,102.291762 254.012757,104.142473 C250.309704,105.996238 245.377383,108.466907 239.212745,110.934522 C233.042007,113.405191 225.638951,115.87586 221.322789,117.726572 C218.409761,118.978703 216.899867,119.949868 215.469281,119.687226 C212.123112,125.334033 208.215689,130.72736 205.595489,135.0182 C202.206616,140.576442 200.971248,144.280918 200.355089,148.91075 C199.897546,152.343423 199.778584,156.28611 198.241238,159.605785 C199.72978,161.911539 199.653522,164.250887 198.503563,167.127735 C197.271245,170.215307 194.80356,173.919784 191.719716,177.627314 C188.635872,181.331791 184.938919,185.036267 180.619707,190.594509 C176.300495,196.149697 171.368175,203.561703 167.665122,207.883084 C166.576168,209.156593 165.593974,210.164406 164.669736,210.98898 C167.689524,216.574708 170.565948,220.93579 172.603543,224.246303 C175.068178,228.259231 176.300495,230.7299 178.152022,231.966761 C180.000498,233.200569 182.468183,233.200569 185.555078,233.200569 C188.635872,233.200569 192.335874,233.200569 195.419719,232.583665 C198.503563,231.966761 200.971248,230.7299 204.055092,230.7299 C207.138936,230.7299 210.84199,231.966761 214.541992,233.817473 C214.773815,233.933524 215.005637,234.052629 215.237459,234.174788 C204.76581,247.261088 198.829944,254.53872 194.187401,259.44341 C188.635872,265.310103 184.938919,267.780772 183.087392,269.634538 C181.235866,271.485249 181.235866,272.719056 181.235866,275.809683 C181.235866,278.894202 181.235866,283.83554 181.852025,288.159974 C182.468183,292.481354 183.700501,296.18583 186.171237,301.127168 C188.635872,306.065452 192.335874,312.240598 193.571242,315.32817 C194.80356,318.415743 193.571242,318.415743 191.103557,318.415743 C188.635872,318.415743 184.938919,318.415743 182.468183,319.652605 C180.000498,320.886412 178.76818,323.357081 178.152022,325.824696 C177.535863,328.295365 177.535863,330.766034 178.152022,333.236703 C178.76818,335.704318 180.000498,338.174987 179.384339,340.645656 C178.76818,343.116325 176.300495,345.586994 171.981283,351.142181 C167.665122,356.700423 161.500484,365.346237 158.416639,370.904479 C155.329745,376.459667 155.329745,378.930336 155.948954,380.784101 C156.565113,382.634812 157.79743,383.871673 159.029748,385.105481 C160.265116,386.342342 161.500484,387.57615 162.732801,389.426861 C163.968169,391.280626 165.200486,393.751295 165.200486,398.072676 C165.200486,402.394056 163.968169,408.572255 162.732801,413.510539 C161.500484,418.451877 160.265116,422.156353 159.029748,425.243926 C157.79743,428.331499 156.565113,430.802168 155.329745,433.269783 C154.097427,435.740452 152.86511,438.211121 150.397425,441.915597 C147.93279,445.620073 144.229736,450.561411 142.37821,453.648984 C140.529733,456.736557 140.529733,457.970364 141.762051,459.204172 C142.997419,460.441033 145.465104,461.677895 147.93279,463.528606 C150.397425,465.379317 152.86511,467.849986 154.713586,469.703751 C156.565113,471.554463 157.79743,472.791324 157.79743,474.645089 C157.79743,476.4958 156.565113,478.966469 154.713586,487.612284 C152.86511,496.255044 150.397425,511.076004 148.545898,518.484957 C146.697422,525.896964 145.465104,525.896964 142.37821,527.130771 C139.297416,528.364579 134.358995,530.835248 131.89436,533.305917 C129.426675,535.776586 129.426675,538.247254 129.426675,541.334827 C129.426675,544.419346 129.426675,548.126876 128.810516,549.980642 C128.194357,551.831353 126.962039,551.831353 123.258986,552.448257 C119.562034,553.06516 113.391295,554.302022 109.691292,554.918925 C105.991289,555.535829 104.755922,555.535829 103.523604,557.38654 C102.291286,559.24336 101.058969,562.947836 98.5912836,567.269216 C96.1205479,571.590596 92.420545,576.531934 89.95591,579.619507 C87.4882246,582.704026 86.2559071,583.940887 86.2559071,585.174695" transform="translate(284 114)"/>
        <path stroke="#FFF" stroke-width="6.208" d="M401.713716,288.98949 C368.185964,273.722277 334.658213,267.615391 310.274393,240.134406 C304.178438,234.027521 291.986529,237.080964 285.890574,234.027521 C282.842596,230.974078 285.890574,221.81375 282.842596,218.760307 C281.196689,218.525192 279.578213,218.268703 277.965833,218 C277.807338,218.903819 277.657987,219.783211 277.539116,220.629014 C276.920376,224.949636 276.920376,228.656515 275.688993,231.123697 C274.457611,233.593932 271.991797,234.830576 268.910292,239.151198 C265.828786,243.471819 262.13159,250.882525 258.431345,255.203146 C254.734149,259.523768 251.036952,260.760412 247.339755,261.377208 C243.642559,261.994003 239.942314,261.994003 236.863857,263.847443 C233.779304,265.700883 231.316538,269.401655 226.387959,274.958921 C221.456331,280.516187 214.05889,287.923839 210.361693,295.334544 C199.270103,317.560554 191.872662,330.525472 184.478269,343.181992 C183.984497,344.024742 183.490724,344.870546 183,345.713296 C188.977084,351.701097 190.485833,353.209498 192.183556,354.910266 C194.338476,357.072103 196.80429,359.542338 199.885795,361.392725 C202.9673,363.246164 206.664497,364.482809 210.980433,366.94999 C215.290273,369.420226 220.224948,373.124052 223.922145,374.977491 C227.619341,376.830931 230.082107,376.830931 232.547921,377.447727 C235.013735,378.064522 237.479548,379.298113 240.561054,378.681318 C243.642559,378.064522 247.339755,375.594287 251.036952,373.740847 C254.734149,371.890461 258.431345,370.65687 260.897159,369.420226 C263.362973,368.186635 264.597404,366.94999 267.063217,366.333195 C269.525983,365.7164 273.22318,365.7164 275.688993,365.7164 C278.151759,365.7164 279.38619,365.7164 281.236312,366.94999 C283.083387,368.186635 285.5492,370.65687 287.399323,372.507256 C289.249445,374.357643 290.480828,375.594287 291.715259,376.211082 C292.946642,376.830931 294.178024,376.830931 296.025099,376.830931 L302.803801,376.830931 C305.266566,376.830931 307.735428,376.830931 310.201242,377.447727 C312.667056,378.064522 315.132869,379.298113 316.976896,379.914908 C318.830066,380.531704 320.061449,380.531704 321.911571,379.914908 C323.758645,379.298113 326.221411,378.064522 328.074581,377.447727 C329.918608,376.830931 331.156087,376.830931 331.771778,377.447727 C332.387469,378.064522 332.387469,379.298113 333.003161,380.531704 C333.6219,381.768348 334.853283,383.004992 336.700357,383.621788 C338.55048,384.238583 341.016294,384.238583 342.86032,384.855379 C344.71349,385.472174 345.944873,386.705765 347.794995,385.472174 C349.64207,384.238583 352.107883,380.531704 354.570649,378.681318 C357.039511,376.830931 359.505325,376.830931 361.352399,376.830931 L365.668335,376.830931 C366.899718,376.830931 368.131101,376.830931 369.981223,374.977491 C371.828297,373.124052 374.294111,369.420226 376.144233,367.566786 C377.991308,365.7164 379.22269,365.7164 380.454073,365.7164 C381.688504,365.7164 382.922935,365.7164 384.157366,364.482809 C385.388749,363.246164 386.620132,360.775929 389.701637,358.308748 C392.783142,355.838512 397.71477,353.368277 401.408918,352.134686 C405.109163,350.898042 407.571929,350.898042 408.809407,351.517891 C410.04079,352.134686 410.04079,353.368277 411.272173,352.751482 C412.506604,352.134686 414.96937,349.664451 416.200753,346.577421 C417.432135,343.49039 417.432135,339.786564 421.13238,336.079684 C422.912399,335.633882 424.521731,335.218613 426,334.821666 C425.512324,313.270467 422.354619,296.745235 401.713716,288.98949 Z"/>
        <path stroke="#FFF" stroke-width="6.208" d="M497.836543,232.462983 C495.367944,229.990996 491.663519,223.812558 489.19492,218.871641 C486.729372,213.930724 485.496598,210.221217 484.260773,206.514765 C483.024947,202.808313 481.795225,199.101861 481.178838,194.157889 C480.5594,189.216971 480.5594,183.038533 479.939961,179.329026 C479.326626,175.622574 478.0908,174.388109 476.238588,175.005341 C474.389427,175.622574 471.923879,178.094561 467.603068,178.711793 C463.282256,179.329026 457.115335,178.094561 453.410911,176.860095 C449.712589,175.622574 448.476764,174.388109 447.860377,171.916122 C447.24399,169.444136 447.24399,165.737684 446.011216,162.031233 C444.772339,158.324781 442.30374,154.615273 439.838192,151.52911 C437.369593,148.436835 434.904045,145.967904 434.281555,142.878685 C433.671271,139.789466 434.904045,136.083015 435.520432,133.611028 C436.136819,131.139042 436.136819,129.904576 437.369593,129.284288 C438.602367,128.667055 441.070966,128.667055 443.539565,128.049823 C446.011216,127.43259 448.476764,126.198125 450.325925,124.960604 C452.178137,123.726138 453.410911,122.488617 454.646736,121.254152 C455.882562,120.019687 457.115335,118.782166 458.348109,116.310179 C459.580883,113.841248 460.816709,110.131741 461.433096,107.045578 C462.049482,103.953303 462.049482,101.484372 462.049482,99.0123857 C462.049482,96.5403993 462.049482,94.068413 460.200322,91.5964266 C458.348109,89.1274958 454.646736,86.6555094 451.558699,84.183523 C448.476764,81.7145923 446.011216,79.2395503 443.539565,78.0050849 C441.070966,76.7706195 438.602367,76.7706195 434.5928,75.8447705 C432.511731,75.3619845 430.009567,74.6316943 424.455981,73 C423.470372,73.2200037 422.429838,73.4461187 421.328275,73.6814004 C412.692755,75.5361541 400.349759,78.0050849 393.563399,80.4770713 C386.780092,82.9490577 385.544266,85.421044 379.371242,90.3619612 C373.204321,95.3059339 362.100202,102.718837 355.310791,107.045578 C348.524432,111.369262 346.055833,112.603727 342.357511,115.075714 C338.653086,117.5477 333.718939,121.254152 328.77869,126.198125 C323.844542,131.139042 318.910395,137.31748 313.976248,144.113151 C309.035999,150.911877 304.0988,158.324781 298.548266,164.503219 C292.997732,170.681657 286.824708,175.622574 283.742773,182.418245 C280.657787,189.216971 280.657787,197.86434 280.0414,204.660011 C279.540967,210.126493 278.649953,214.382954 278,218.095517 C279.614201,218.361355 281.237557,218.618026 282.882273,218.853308 C285.933693,221.908915 282.882273,231.075737 285.933693,234.131344 C292.036535,237.186952 304.242217,234.131344 310.345058,240.242559 C334.756422,267.743026 368.322049,273.854241 401.887675,289.132277 C422.551895,296.89352 425.713166,313.430467 426.201394,335 C437.009525,332.112451 440.210466,330.511313 442.92623,329.154623 C446.011216,327.608486 448.476764,326.37402 452.178137,322.04728 C455.882562,317.723596 460.816709,310.310692 465.134469,304.749487 C469.45528,299.188281 473.156653,295.48183 476.238588,291.775378 C479.326626,288.068926 481.795225,284.359419 483.024947,281.273255 C484.175333,278.394873 484.251618,276.051222 482.762525,273.747294 C484.300441,270.425849 484.422498,266.48106 484.880211,263.046557 C485.496598,258.411201 486.729372,254.704749 490.122552,249.143544 C492.743722,244.853471 496.64954,239.454213 500,233.804394 C499.307328,233.676059 498.639066,233.266608 497.836543,232.462983 Z"/>
        <path stroke="#FFF" stroke-width="6.208" d="M424 72.3051294C429.561752 73.9352736 432.067597 74.6648699 434.151726 75.1471972 438.170245 76.0721667 440.639418 76.0721667 443.111648 77.3054593 445.583877 78.5387519 448.056107 81.0114425 451.145629 83.4780277 454.235152 85.9476657 457.941968 88.4173036 459.796905 90.8838888 461.648785 93.3565794 461.648785 95.8231646 461.648785 98.2928026 461.648785 100.76244 461.648785 103.229026 461.031491 106.318363 460.414198 109.401594 459.179611 113.107577 457.941968 115.574163 456.707382 118.0438 455.472795 119.280146 454.235152 120.513438 452.99751 121.746731 451.762923 122.983076 449.911043 124.216369 448.056107 125.452714 445.583877 126.686007 443.111648 127.302653 440.639418 127.919299 438.170245 127.919299 436.932602 128.535946 435.698015 129.155645 435.698015 130.388937 435.080722 132.858575 434.463428 135.328213 433.228842 139.031144 433.843079 142.117428 434.463428 145.203712 436.932602 147.670297 439.404831 150.759634 441.877061 153.842866 444.346234 157.548849 445.583877 161.25178 446.82152 164.95471 446.82152 168.657641 447.438813 171.127279 448.056107 173.596917 449.290693 174.830209 452.99751 176.066554 456.707382 177.299847 462.886427 178.53314 467.213593 177.916493 471.537702 177.299847 474.006876 174.830209 475.861812 174.213563 477.713692 173.596917 478.948279 174.830209 479.568628 178.53314 480.185922 182.239123 480.185922 188.411691 480.806271 193.347914 481.423564 198.28719 482.655095 201.990121 483.892738 205.693051 485.130381 209.395982 486.364967 213.101965 488.837197 218.038188 491.30637 222.974411 495.016243 229.14698 497.488472 231.616618 498.292176 232.419479 498.96142 232.828541 499.655111 232.956755 501.088331 233.219288 502.601006 232.25158 505.519398 230.999971 509.843507 229.14698 517.260196 226.680395 523.439241 224.210757 529.618287 221.741119 534.55969 219.271481 538.269562 217.421542 541.973323 215.56855 544.445552 214.335258 545.062845 210.632327 545.683195 206.926344 544.445552 200.756828 544.445552 197.050845 544.445552 193.347914 545.683195 192.114622 555.569057 185.942053 565.454918 179.769485 583.989 168.657641 594.495211 161.868426 604.998366 155.079211 607.470595 152.609573 609.325532 149.523289 611.177412 146.437005 612.411998 142.734074 613.649641 142.117428 614.887284 141.500782 616.121871 143.97042 618.5941 144.587066 621.063274 145.203712 624.77009 143.97042 627.245375 142.117428 629.714549 140.264436 630.952191 137.797851 632.186778 135.328213 633.421365 132.858575 634.659008 130.388937 638.983117 127.302653 643.310283 124.216369 650.720859 120.513438 655.668374 118.0438 660.612833 115.574163 663.082006 114.34087 667.097469 113.724224 669.890569 113.293792 673.432366 113.162526 680.323439 114.371397 680.341774 114.359186 680.363165 114.350028 680.381501 114.34087 682.85373 113.107577 685.32596 113.107577 687.798189 112.490931 690.267363 111.871232 692.739592 110.637939 693.977235 109.401594 695.211822 108.168302 695.211822 106.935009 694.594528 105.082017 693.977235 103.229026 692.739592 100.76244 690.267363 98.9094489 687.798189 97.0595099 684.088317 95.8231646 681.00185 95.2065183 677.912327 94.589872 675.437042 94.589872 673.585162 92.1202341 671.730226 89.6505962 670.495639 84.7143731 668.026465 80.3917435 665.554236 76.0721667 661.84742 72.3692362 657.520254 70.5162445 653.196145 68.6663056 648.251686 68.6663056 643.927576 68.0466066 639.603466 67.4299603 635.893594 66.1966677 632.186778 64.9603224 628.479962 63.7270298 624.77009 62.4937372 621.680567 61.2573919 618.5941 60.0240993 616.121871 58.7908067 612.411998 58.1711077 608.705182 57.5544614 603.763779 57.5544614 599.436614 56.937815 595.112504 56.3211687 591.405688 55.0848234 588.936514 53.2348845 586.461229 51.3818929 585.226642 48.912255 581.828473 45.8290235 578.430303 42.7396865 572.871607 39.036756 569.161735 31.630895 550.627654 27.9279644 550.627654 26.0749728 549.390011 22.0637191 548.155424 18.0524655 545.683195 11.879897 542.593672 7.56032019 539.504149 3.23769065 535.794277.768052736 530.852874.151406432 525.911471-.465239871 519.732425.768052736 512.936086 4.47098326 506.136691 8.17696649 498.723059 14.3464822 491.92672 19.2857581 485.130381 24.2250339 478.948279 27.9279644 475.244519 32.2475413 471.537702 36.5671181 470.30006 41.5063939 469.065473 45.2093245 467.82783 48.912255 466.593244 51.3818929 465.355601 53.2348845 464.121014 55.0848234 462.886427 56.3211687 458.562318 58.7908067 454.235152 61.2573919 446.82152 64.9603224 440.639418 67.4299603 435.251853 69.5851697 430.799395 70.8001461 424 72.3051294zM288.84918 175C286.934192 177.276306 285.262763 179.65385 284.066276 182.313631 280.98829 189.136415 280.98829 197.821352 280.373302 204.644135 279.755269 211.466919 278.522248 216.430617 277.910304 220.771551 277.51452 223.547909 277.374473 226.069639 277 228.174149 278.537471 227.496165 279.484309 226.397893 280.062763 225.425401 280.98829 223.873095 280.98829 222.633705 281.603279 222.01401 282.218267 221.391247 283.451288 221.391247 284.066276 222.01401 284.681265 222.633705 284.681265 223.873095 285.296253 225.112486 285.911241 226.354944 287.141218 227.597403 287.759251 229.456488 288.36815 231.297167 288.377283 233.74527 289.564637 235 292.079391 232.091727 292.143326 230.355353 292.685246 227.904182 293.300234 225.112486 294.530211 221.391247 295.763232 218.289702 296.993208 215.191226 298.223185 212.709377 300.071194 210.847224 301.916159 208.988138 304.379157 207.74568 306.227166 206.506289 308.072131 205.263831 309.305152 204.02444 311.150117 203.404745 312.998126 202.78505 315.461124 202.78505 316.694145 203.404745 317.924122 204.02444 317.924122 205.263831 318.53911 205.883526 319.154098 206.506289 320.384075 206.506289 321.617096 207.125984 322.847073 207.74568 324.077049 208.988138 324.692037 210.227528 325.31007 211.466919 325.31007 212.709377 325.925059 213.329073 326.540047 213.948768 327.770023 213.948768 328.388056 213.329073 329 212.709377 329 211.466919 329 210.227528 329 208.988138 329 207.74568 328.388056 206.506289 327.770023 205.263831 326.540047 204.02444 325.925059 202.162287 325.31007 200.303201 325.31007 197.821352 324.692037 195.339503 324.077049 192.857654 322.847073 190.378873 321.002108 188.51672 319.154098 186.654566 316.694145 185.415175 314.231148 184.79548 311.765105 184.175785 309.305152 184.175785 306.227166 184.175785 303.146136 184.175785 299.453162 184.175785 297.608197 182.933327 295.763232 181.693936 295.763232 179.212087 294.837705 177.972697 294.119204 177.00634 292.84356 176.791594 288.84918 175zM482.86825 273C484.36995 275.285663 484.293019 277.610735 483.132894 280.466298 481.892761 283.531027 479.400186 287.208096 476.289083 290.885164 473.181057 294.562233 469.448348 298.242332 465.090958 303.756419 460.736644 309.273538 455.757648 316.630706 452.02494 320.920114 450.923283 322.184201 449.932408 323.181526 449 324"/>
        <g transform="translate(482 233)">
          <path fill="#F0F0F0" d="M18.0693289,0.583047205 C14.6345411,6.25144816 10.6304168,11.6684652 7.94327407,15.9757142 C4.46469113,21.5521454 3.20088942,25.2707881 2.56898856,29.9213907 C2.09975525,33.3671899 1.97462637,37.3249539 0.401130665,40.6573237"/>
          <path stroke="#FFF" stroke-width="6.208" d="M18.0693289,0.583047205 C14.6345411,6.25144816 10.6304168,11.6684652 7.94327407,15.9757142 C4.46469113,21.5521454 3.20088942,25.2707881 2.56898856,29.9213907 C2.09975525,33.3671899 1.97462637,37.3249539 0.401130665,40.6573237"/>
        </g>
        <path stroke="#FFF" stroke-width="6.208" d="M500 233.956604C501.427919 234.220053 502.934998 233.248969 505.842594 231.992992 510.150708 230.133534 517.53996 227.658341 523.696149 225.180085 529.852337 222.701829 534.77546 220.223573 538.471609 218.367179 542.164713 216.507721 544.624753 215.270124 545.239763 211.554272 545.860862 207.835356 544.624753 201.644311 544.624753 197.925395 544.624753 194.209543 545.860862 192.971946 555.707109 186.777838 565.556401 180.583729 584.024966 169.433109 594.489268 162.620202 604.956614 155.807295 607.416654 153.329039 609.264728 150.231985 611.109758 147.134931 612.339778 143.419078 613.572842 142.80028 614.805907 142.181482 616.035926 144.659738 618.499011 145.278536 620.95905 145.897334 624.652154 144.659738 627.118283 142.80028 629.581367 140.940822 630.811387 138.465629 632.041407 135.987373 633.271426 133.509117 634.504491 131.030861 638.812605 127.933807 643.123763 124.836753 650.509971 121.1209 655.436139 118.642644 660.362308 116.164388 662.822347 114.926792 666.822956 114.307993 669.605724 113.87606 673.134419 113.744336 680 114.957425M424 72C429.587107 73.6336792 432.104375 74.3648577 434.198005 74.8482309 438.234843 75.7752062 440.715272 75.7752062 443.198772 77.0111732 445.682272 78.2471402 448.165771 80.7251929 451.269378 83.1971269 454.372985 85.6721202 458.0967 88.1471136 459.960092 90.6190476 461.820414 93.0971003 461.820414 95.5690343 461.820414 98.0440277 461.820414 100.519021 461.820414 102.990955 461.200307 106.086991 460.5802 109.176909 459.339985 112.890928 458.0967 115.362862 456.856485 117.837856 455.61627 119.076882 454.372985 120.312849 453.129701 121.548816 451.889486 122.787843 450.029163 124.02381 448.165771 125.262836 445.682272 126.498803 443.198772 127.116786 440.715272 127.73477 438.234843 127.73477 436.991558 128.352753 435.751343 128.973796 435.751343 130.209763 435.131236 132.684757 434.511128 135.15975 433.270913 138.87071 433.887951 141.963687 434.511128 145.056664 436.991558 147.528598 439.475058 150.624634 441.958557 153.714552 444.438987 157.428571 445.682272 161.139532 446.925556 164.850492 446.925556 168.561453 447.545664 171.036446 448.165771 173.511439 449.405986 174.747406 453.129701 175.986433 456.856485 177.2224 463.063699 178.458367 467.410591 177.840383 471.754413 177.2224 474.234843 174.747406 476.098235 174.129423 477.958557 173.511439 479.198772 174.747406 479.821949 178.458367 480.442057 182.172386 480.442057 188.35834 481.065234 193.305267 481.685342 198.255254 482.922487 201.966214 484.165771 205.677175 485.409056 209.388135 486.649271 213.102155 489.132771 218.049082 491.6132 222.99601 495.339985 229.181963 497.823484 231.656957 498.630852 232.461559 499.303147 232.871508 500 233M317 140C320.909542 140.62208 323.16317 141.527754 325.410699 142.088846 329.109821 143.012817 332.811993 143.012817 337.127126 144.247828 341.44531 145.479789 346.376456 147.946761 350.69159 149.797753 355.006724 151.645695 358.708895 152.880706 362.408017 155.96061 366.110188 159.046612 369.803211 163.977508 372.889371 167.676442 375.97248 171.378425 378.436529 173.842348 380.287614 176.30932 382.135651 178.776293 383.373774 181.240216 385.837822 183.707188 388.30492 186.17416 392.004042 188.641133 398.786273 191.108105 405.568505 193.572028 415.433846 196.039 421.603116 197.889992 427.766286 199.737934 430.236433 200.972945 432.700481 202.823937 435.167579 204.671879 437.634677 207.138851 438.250689 209.605824 438.866701 212.069747 437.634677 214.536719 437.015615 218.235653 436.399603 221.937636 436.399603 226.868531 435.783591 230.567465 435.167579 234.269449 433.935555 236.733372 434.548517 238.584363 435.167579 240.435355 437.634677 241.667316 442.565823 245.36625 447.500018 249.065184 454.898262 255.23109 460.44847 258.930024 465.995628 262.628958 469.697799 263.863969 473.396921 265.71496 477.096043 267.562903 480.795165 270.029875 482.646251 272.496847 482.771283 272.664565 482.890216 272.832282 483 273M277 227.626682C278.536997 226.945764 279.480499 225.847707 280.061819 224.875405 280.987061 223.32647 280.987061 222.084255 281.601859 221.464681 282.216658 220.845106 283.446255 220.845106 284.061054 221.464681 284.675852 222.084255 284.675852 223.32647 285.293695 224.565618 285.908493 225.804766 287.138091 227.046981 287.752889 228.905704 288.370731 230.767493 288.370731 233.248856 289.603372 234.488005 290.832969 235.73022 293.295208 235.73022 296.369201 236.349794 299.446238 236.969368 303.138073 238.208516 306.218153 238.82809 309.292147 239.450731 311.754385 239.450731 313.598781 240.68988 315.449264 241.932095 316.678861 244.410391 320.985495 248.13397 325.292129 251.854481 332.678844 256.814141 337.600276 260.534653 342.524753 264.255164 344.986991 266.736528 347.446185 268.598317 349.908423 270.457039 352.370662 271.699255 354.829856 272.318829 357.295138 272.938403 359.754332 272.938403 361.601772 273.561044 363.446168 274.180618 364.678809 275.419766 368.370644 276.658914 372.062479 277.90113 378.216553 279.140278 383.141029 280.382493 388.062462 281.621641 391.754297 282.860789 394.216536 283.480363 396.678774 284.103005 397.911415 284.103005 399.755811 284.722579 401.600206 285.342153 404.065488 286.584368 407.139481 289.682238 410.216518 292.786243 413.908354 297.745903 416.370592 301.466414 418.83283 305.189993 420.062427 307.668289 421.909867 308.907437 423.757306 310.149653 426.216501 310.149653 426.831299 310.769227 427.449142 311.388801 426.216501 312.631016 425.601702 314.489738 424.986903 316.351528 424.986903 318.832891 424.986903 321.933829 424.986903 325.034766 424.986903 328.755278 424.064705 331.546428 423.532083 333.162842 422.685974 334.466401 422.068132 336"/>
        <path stroke="#FFF" stroke-width="6.208" d="M289.106847,235 C291.647714,232.091727 291.71547,230.358421 292.260602,227.904182 C292.885809,225.115554 294.130064,221.391247 295.374319,218.29277 C296.618574,215.191226 297.865909,212.709377 299.732291,210.847224 C301.601753,208.988138 304.090263,207.74568 305.962805,206.506289 C307.829187,205.266898 309.073442,204.02444 310.942905,203.404745 C312.809287,202.78505 315.303956,202.78505 316.548211,203.404745 C317.792466,204.02444 317.792466,205.266898 318.417674,205.886594 C319.039801,206.506289 320.284056,206.506289 321.528311,207.125984 C322.775646,207.74568 324.0199,208.988138 324.642028,210.227528 C325.264155,211.469987 325.264155,212.709377 325.886283,213.329073 C326.51149,213.951836 327.755745,213.951836 328.380952,213.329073 C329,212.709377 329,211.469987 329,210.227528 C329,208.988138 329,207.74568 328.380952,206.506289 C327.755745,205.266898 326.51149,204.02444 325.886283,202.165354 C325.264155,200.303201 325.264155,197.821352 324.642028,195.339503 C324.0199,192.860722 322.775646,190.378873 320.906183,188.519787 C319.039801,186.657634 316.548211,185.415175 314.059701,184.79548 C311.565032,184.175785 309.073442,184.175785 305.962805,184.175785 C302.846008,184.175785 299.110163,184.175785 297.243781,182.936394 C295.374319,181.693936 295.374319,179.212087 294.438048,177.972697 C293.714286,177.009408 292.423833,176.794662 288.383085,175 L283.541578,182.313631 L280.06136,201.395337 L277.748401,218.133245 L277,223.32396 L285.755982,234.23305 L289.106847,235 Z"/>
      </g>
    </g>
    <path fill="#173E6F" fill-rule="nonzero" d="M153.768,122.848 L153.768,118.24 L145.032,118.24 C144.456,116.704 143.928,115.312 143.352,114.064 L138.168,114.928 C138.84,115.936 139.464,117.04 140.04,118.24 L131.736,118.24 L131.736,122.848 L153.768,122.848 Z M170.856,159.04 L170.856,134.032 L175.272,134.032 L175.272,129.28 L160.776,129.28 L160.776,121.84 C165.672,121.552 170.184,120.736 174.264,119.392 L171.816,114.928 C167.112,116.704 161.832,117.664 155.928,117.76 L155.928,138.544 C155.736,145.648 154.248,151.168 151.512,155.152 L155.112,158.944 C158.664,153.856 160.536,147.088 160.776,138.544 L160.776,134.032 L165.912,134.032 L165.912,159.04 L170.856,159.04 Z M145.224,159.184 L145.224,142.144 L153.24,142.144 L153.24,137.584 L145.224,137.584 L145.224,133.696 L154.056,133.696 L154.056,129.136 L149.352,129.136 C150.024,127.744 150.6,126.256 151.128,124.624 L146.664,123.04 C146.136,125.152 145.512,127.168 144.84,129.136 L140.616,129.136 C139.944,126.784 139.272,124.768 138.552,123.04 L134.184,124.72 C134.952,126.064 135.576,127.552 136.152,129.136 L131.256,129.136 L131.256,133.696 L140.232,133.696 L140.232,137.584 L132.024,137.584 L132.024,142.144 L140.232,142.144 L140.232,159.184 L145.224,159.184 Z M148.824,153.568 L153,151.936 C152.328,149.44 151.416,146.704 150.264,143.728 L146.136,144.832 C147.192,147.664 148.104,150.592 148.824,153.568 Z M134.472,157.696 C136.488,154.096 138.024,149.872 139.128,144.976 L134.616,144.016 C133.8,147.904 132.36,151.6 130.344,155.056 L134.472,157.696 Z M184.216,158.08 C191.32,156.928 197.944,155.536 204.184,153.808 L204.184,149.008 C203.176,149.296 202.12,149.584 201.016,149.872 L201.016,114.688 L195.976,114.688 L195.976,127.504 L184.216,127.504 L184.216,132.256 L195.976,132.256 L195.976,151.12 C191.752,152.08 187.432,152.8 183.064,153.328 L184.216,158.08 Z M219.736,157.408 C222.328,157.408 224.104,156.832 225.064,155.776 C226.024,154.672 226.648,151.504 226.984,146.32 L222.328,144.784 C222.136,148.72 221.848,151.072 221.368,151.744 C220.888,152.368 220.024,152.704 218.872,152.704 L214.696,152.704 C213.64,152.704 213.112,152.272 213.112,151.408 L213.112,132.592 L225.784,131.68 L225.784,126.928 L213.112,127.792 L213.112,114.736 L208.024,114.736 L208.024,152.08 C208.024,155.632 209.848,157.408 213.592,157.408 L219.736,157.408 Z" mask="url(#img-location-newtaipei-b)"/>
    <g fill-rule="nonzero" mask="url(#img-location-newtaipei-b)">
      <g transform="translate(148 27)">
        <path fill="#FFF" d="M32.9998182,0 C51.2254872,0 66,14.998369 66,33.4998154 C66,51.1530281 52.5496996,65.6168018 35.4847565,66.9064537 L32.628536,71.9208443 C32.5684367,72.0263852 32.4315633,72.0263852 32.3718114,71.9208443 L32.3718114,71.9208443 L29.4591826,66.8094371 C12.898824,65.0161967 0,50.7873404 0,33.4998154 C0,14.998369 14.7745128,0 32.9998182,0 Z"/>
        <path fill="#06F3F9" d="M49.3576534,44.1802628 C50.683973,44.7065438 51.3400021,46.2291059 50.8236626,47.5805894 C47.941011,55.1251922 40.9448305,60 32.9997116,60 C25.0549584,60 18.0587779,55.1248195 15.176492,47.5802167 C14.6597868,46.2287332 15.3161816,44.7061711 16.6421355,44.1798901 C17.9680894,43.6532364 19.4618902,44.3222692 19.9782297,45.6737528 C22.0841781,51.1862849 27.1952807,54.7472539 32.9997116,54.7472539 C38.8045083,54.7472539 43.9156109,51.1862849 46.0215592,45.6741255 C46.537533,44.322642 48.0309681,43.6532364 49.3576534,44.1802628 Z M42.5,23 C47.1869541,23 51,26.8131292 51,31.5001856 C51,36.187242 47.1869541,40 42.5,40 C37.8130459,40 34,36.187242 34,31.5001856 C34,26.8131292 37.8130459,23 42.5,23 Z M23.3982637,11.000563 C27.996304,10.9478957 31.7760707,14.5970364 31.9839268,19.1698795 C31.992694,19.3621334 31.8392677,19.5234498 31.6482154,19.5234498 L31.6482154,19.5234498 L27.133829,19.5234498 C26.9610418,19.5234498 26.8211316,19.3893878 26.8032318,19.2162856 C26.6300793,17.546034 25.2357264,16.2363505 23.5389045,16.214989 C21.6875604,16.1917859 20.172293,17.7659106 20.172293,19.633204 L20.172293,19.633204 L20.172293,31.433246 C20.172293,33.2622359 21.6327653,34.7534925 23.4395427,34.7847982 C25.299654,34.8164722 26.8222275,33.241611 26.8222275,31.3662149 L26.8222275,31.3662149 L26.8222275,28.0805888 L23.7865784,28.0805888 C23.601371,28.0805888 23.4512324,27.9292165 23.4512324,27.7424872 L23.4512324,27.7424872 L23.4512324,23.7574547 C23.4512324,23.5707254 23.601371,23.4193531 23.7865784,23.4193531 L23.7865784,23.4193531 L31.832327,23.4193531 C31.9251134,23.4193531 32,23.4948551 32,23.5884039 L32,23.5884039 L32,28.0805888 L31.9941552,28.0805888 L31.9941552,31.433246 C31.9941552,36.1847158 28.1369448,40.0456303 23.4132411,39.9995925 C18.7355652,39.953923 15,36.0407095 15,31.3238601 L15,31.3238601 L15,19.6755588 C15,14.9653388 18.7264327,11.0547035 23.3982637,11.000563 Z M42.5,28 C40.5701384,28 39,29.5699345 39,31.5 C39,33.4300655 40.5701384,35 42.5,35 C44.4298616,35 46,33.4300655 46,31.5 C46,29.5699345 44.4298616,28 42.5,28 Z"/>
      </g>
    </g>
  </g>
</svg>
