<svg xmlns="http://www.w3.org/2000/svg" xmlns:xlink="http://www.w3.org/1999/xlink" width="362" height="200" viewBox="0 0 362 200">
  <defs>
    <rect id="img-location-taoyuan-a" width="362" height="200" x="0" y="0" rx="20"/>
  </defs>
  <g fill="none" fill-rule="evenodd">
    <mask id="img-location-taoyuan-b" fill="#fff">
      <use xlink:href="#img-location-taoyuan-a"/>
    </mask>
    <use fill="#06F3F9" xlink:href="#img-location-taoyuan-a"/>
    <g mask="url(#img-location-taoyuan-b)" opacity=".6">
      <g transform="translate(-296 -69)">
        <path fill="#FFF" d="M63.7131984,1082.2261 C76.7473153,1108.24716 87.6078858,1129.93197 94.4866052,1142.21859 C101.365325,1154.5088 104.258612,1157.39724 107.15548,1161.37601 C110.048768,1165.34763 112.949217,1170.40956 114.395861,1174.02369 C115.846085,1177.63425 115.846085,1179.80416 115.480844,1180.89091 C115.119183,1181.9705 114.395861,1181.9705 112.222314,1182.69261 C110.048768,1183.42187 106.432159,1184.8661 105.343595,1187.75812 C104.258612,1190.64657 105.708837,1194.98282 110.048768,1201.48897 C114.395861,1207.99513 121.636241,1216.66762 126.703075,1222.45167 C131.77349,1228.23571 134.666777,1231.12416 137.563645,1234.01619 C140.460514,1236.90821 143.357382,1239.79666 145.709969,1242.14531 C148.062555,1244.49753 149.87444,1246.30281 150.597762,1247.75061 C151.321084,1249.19484 150.959423,1250.278 150.415141,1250.82138 C149.87444,1251.36117 149.147538,1251.36117 146.977572,1250.09926 C144.804026,1248.83021 141.183836,1246.30281 139.375531,1245.40196 C137.563645,1244.49753 137.563645,1245.21965 137.563645,1246.12407 C137.563645,1247.0285 137.563645,1248.11167 139.733611,1249.91695 C141.907157,1251.7258 146.25425,1254.25319 149.87444,1255.52225 C153.49105,1256.78416 156.387918,1256.78416 158.561465,1257.32396 C160.73143,1257.8709 162.181655,1258.95407 165.078523,1260.93809 C167.971811,1262.92926 172.318903,1265.81771 177.385737,1268.70973 C182.452571,1271.60533 188.246308,1274.49378 192.58982,1276.66369 C196.933332,1278.83003 199.8302,1280.27425 202.003747,1280.27425 C204.173712,1280.27425 205.620356,1278.83003 207.07058,1276.66369 C208.517224,1274.49378 209.967449,1271.60533 211.414092,1270.87607 C212.860736,1270.15753 214.310961,1271.60533 215.757605,1273.77167 C217.207829,1275.938 218.654473,1278.83003 220.101117,1280.99994 C221.551341,1283.16627 222.997985,1284.61407 225.171531,1286.06187 C227.341497,1287.50609 230.238365,1288.95032 233.858555,1290.7556 C237.478745,1292.56445 241.822258,1294.73079 246.16935,1299.06704 C267.890491,1320.75542 285.26454,1335.93407 295.401788,1344.24551 C305.535456,1352.55694 308.432324,1354.00117 309.882549,1355.44897 C311.329193,1356.89319 311.329193,1358.33741 314.591303,1364.48252 C317.846251,1370.62762 324.359729,1381.47002 341.740938,1407.49108 C346.08087,1416.16357 346.08087,1418.33348 345.357548,1421.58656 C344.634226,1424.83964 343.187582,1429.17588 341.740938,1434.23424 C340.290714,1439.29618 338.84407,1445.07665 338.117167,1448.69078 C337.397426,1452.30134 337.397426,1453.75272 338.84407,1456.64116 C340.290714,1459.53319 343.187582,1463.86943 347.889174,1469.6499 C352.601509,1475.43395 359.114987,1482.66579 363.096838,1489.53301 C367.078689,1496.39665 368.525332,1502.9028 370.698879,1506.15588 C372.872425,1509.40539 375.765713,1509.40539 377.215937,1507.60011 C378.662581,1505.79125 378.662581,1502.18069 379.027823,1498.20193 C379.385903,1494.22673 380.109225,1489.89049 381.197788,1487.72415 C382.282771,1485.55424 383.729415,1485.55424 385.5413,1486.63741 C387.353186,1487.72415 389.523152,1489.89049 398.213756,1498.56298 C411.244293,1502.9028 411.244293,1507.23905 411.605954,1510.84961 C411.967614,1514.46732 412.690936,1517.35934 414.13758,1518.80357 C415.587805,1520.24779 417.761351,1520.24779 418.846334,1519.52568 C419.931317,1518.80357 419.931317,1517.35934 420.658219,1513.0231 C421.381541,1508.68327 422.828185,1501.455 422.828185,1495.67096 C422.828185,1489.89049 421.381541,1485.55424 421.743202,1477.96492 C422.104863,1470.37559 424.274829,1459.53319 424.274829,1450.85712 C424.274829,1446.52087 430.791887,1440.01829 434.050416,1436.0431 C437.308946,1432.06433 437.308946,1430.62011 435.862302,1429.17588 C434.412077,1427.72809 431.515209,1426.28386 429.341663,1423.39184 C427.171697,1420.49982 425.725053,1416.16357 426.086714,1405.32117 C426.448375,1394.47876 428.621922,1377.13377 424.274829,1355.44897 C419.931317,1342.43665 422.104863,1333.76416 423.193427,1325.09167 C424.274829,1316.41917 424.274829,1307.7431 426.448375,1301.24052 C428.621922,1294.73079 432.961853,1290.39454 436.585624,1283.88838 C440.205814,1277.3858 443.099101,1268.70973 443.822423,1262.20715 C444.545745,1255.69742 443.099101,1251.36117 444.545745,1244.13648 C445.99597,1236.90821 450.343063,1226.78434 452.513028,1218.83753 C454.686575,1210.88715 454.686575,1205.10311 458.303184,1197.14915 C461.923374,1189.20235 469.163754,1179.08205 483.644515,1161.73349 C498.125276,1144.3885 519.846417,1119.81167 531.430309,1106.07725 C543.017782,1092.34282 544.464426,1089.4508 544.464426,1086.56235 C544.464426,1083.67033 543.017782,1080.78188 542.29088,1077.16417 C541.567558,1073.55003 541.567558,1069.21379 544.464426,1067.04745 C547.357713,1064.87754 553.155031,1064.87754 557.494962,1064.87754 C561.838474,1064.87754 564.738923,1064.87754 566.908889,1063.43332 C569.082435,1061.98552 570.529079,1059.0935 577.042557,1047.53255 C583.563196,1035.96804 595.143507,1015.72388 605.280756,999.826691 C615.418005,983.922354 624.105029,972.361412 627.001897,964.407456 C629.898765,956.4535 627.001897,952.117253 625.551673,947.784581 C624.105029,943.448335 624.105029,939.108513 623.381707,934.050154 C622.658385,928.991796 621.208161,923.211325 621.935063,918.871504 C622.658385,914.535257 625.551673,911.639659 630.622087,898.634494 C635.688921,885.622179 642.932882,862.489572 646.553072,848.75872 C650.169682,835.027868 650.169682,830.688047 649.44636,826.3518 C648.723038,822.015553 647.276394,817.675732 647.276394,814.783709 C647.276394,811.895261 648.723038,810.451037 650.169682,808.281126 C651.619906,806.114791 653.06655,803.222768 653.793453,800.330745 C654.513194,797.438722 654.513194,794.5467 652.343228,789.849397 C650.169682,785.148519 645.82617,778.645937 645.82617,774.30969 C645.82617,765.633622 650.169682,763.467286 652.343228,760.214207 C654.513194,756.961129 654.513194,752.624882 656.690321,738.890455 C658.856706,725.156028 663.203799,702.030571 666.100667,682.512099 C668.997535,662.997201 670.444179,647.092863 671.894404,635.528347 C673.341047,623.963831 674.787691,616.735562 676.237916,608.78518 C677.684559,600.834799 679.131203,592.162306 682.028071,584.211924 C684.921359,576.257968 689.264871,569.029699 691.441998,564.693452 C693.611964,560.357205 693.611964,558.909407 692.888642,556.020959 C692.16532,553.128936 690.718676,548.792689 689.991774,544.452868 C689.264871,540.120196 689.264871,535.783949 689.991774,531.444128 C690.718676,527.107881 692.16532,522.771634 694.335286,516.987589 C696.508832,511.207118 699.40212,503.978849 700.852344,499.639027 C702.298988,495.302781 702.298988,493.858557 700.852344,490.244422 C699.40212,486.630287 696.508832,480.846242 695.78551,477.957794 C695.058608,475.065771 696.508832,475.065771 703.745632,470.007412 C710.989593,464.945479 724.020129,454.828762 730.537187,449.044716 C737.054246,443.260671 737.054246,441.816447 736.330924,438.202312 C735.607602,434.588177 734.157377,428.804132 734.157377,424.467885 C734.157377,420.131638 735.607602,417.239616 737.777568,412.181257 C739.951114,407.119324 742.844402,399.891054 747.187914,392.662785 C751.535006,385.43809 757.325162,378.209821 760.22203,371.703663 C763.115318,365.197506 763.115318,359.417035 764.565543,355.080789 C766.015767,350.740967 768.909055,347.848944 770.359279,342.790586 C771.805923,337.732227 771.805923,330.503958 773.979469,323.9978 C776.153016,317.491643 780.496528,311.711172 782.666493,308.097037 C784.84004,304.482903 784.84004,303.035104 784.116718,302.312992 C783.389815,301.59088 781.943171,301.59088 777.599659,297.254633 C773.252567,292.918387 766.015767,284.242318 761.668674,279.18396 C757.325162,274.125601 755.878518,272.677802 755.155197,271.233578 C754.431875,269.78578 754.431875,268.341556 753.704972,264.005309 C752.98165,259.669062 751.535006,252.440793 750.811685,245.212523 C750.088363,237.984254 750.088363,230.755985 749.36146,226.419738 C748.638138,222.083491 747.187914,220.635692 747.911235,217.021558 C748.638138,213.407423 751.535006,207.626952 753.704972,202.565019 C755.878518,197.50666 757.325162,193.170414 759.498709,187.386368 C761.668674,181.602323 764.565543,174.377628 769.635957,166.423672 C774.706372,158.47329 781.943171,149.800797 787.010005,144.020326 C792.076839,138.236281 794.977288,135.344258 797.870576,133.900034 C800.767444,132.452236 803.664312,132.452236 806.561181,131.730124 C809.454468,131.008012 812.351337,129.563788 813.801561,128.115989 C815.248205,126.671765 815.248205,125.223966 814.524883,123.05763 C813.801561,120.887719 812.351337,117.995697 809.454468,115.829361 C806.561181,113.663025 802.214088,112.215226 798.597479,111.493114 C794.977288,110.771002 792.076839,110.771002 789.906874,107.878979 C787.733327,104.986957 786.286684,99.206486 783.389815,94.1445525 C780.496528,89.0861939 776.153016,84.7499472 771.082601,82.5800364 C766.015767,80.4101257 760.22203,80.4101257 755.155197,79.6880137 C750.088363,78.9659017 745.74127,77.5181029 741.397758,76.073879 C737.054246,74.629655 732.707153,73.1818563 729.086963,71.7376323 C725.470353,70.2934083 722.573485,68.8456096 718.226392,68.1234976 C713.88288,67.4013856 708.092724,67.4013856 703.02231,66.6792736 C697.955476,65.9535868 693.611964,64.5093629 690.718676,62.3430269 C687.818227,60.1731162 686.371583,57.2810935 682.389732,53.6669588 C678.407881,50.0528241 671.894404,45.7165774 667.547311,37.0405092 C645.82617,32.7078373 645.82617,30.5379266 644.379526,25.8406239 C642.932882,21.1397464 640.036014,13.911477 636.415824,8.85311832 C632.795634,3.79475966 628.448541,0.902736932 622.658385,0.177050141 C616.868229,-0.545061838 609.627849,0.902736932 601.660566,5.23898362 C593.696864,9.5752303 585.00984,16.8034997 577.042557,22.5875452 C569.082435,28.3680158 561.838474,32.7078373 557.494962,37.766196 C553.155031,42.8245546 551.704806,48.6086001 550.258163,52.9448468 C548.807938,57.2810935 547.357713,60.1731162 545.91107,62.3430269 C544.464426,64.5093629 543.017782,65.9535868 537.947368,68.8456096 C532.876953,71.7376323 524.19351,76.073879 516.949548,78.9659017 C509.712749,81.8579244 503.922593,83.3021484 493.781764,85.4720591 C483.644515,87.6383951 469.163754,90.5304178 461.200052,93.4224405 C453.23635,96.3144633 451.789706,99.206486 444.545745,104.986957 C437.308946,110.771002 424.274829,119.443495 416.314707,124.501854 C408.347424,129.563788 405.454137,131.008012 401.110625,133.900034 C396.763532,136.788482 390.973376,141.128304 385.176059,146.908774 C379.385903,152.69282 373.595747,159.921089 367.805591,167.871471 C362.011855,175.821852 356.218118,184.49792 349.70106,191.72619 C343.187582,198.950884 335.943621,204.73493 332.327012,212.685311 C328.706821,220.635692 328.706821,230.755985 327.9835,238.706366 C327.256597,246.656747 325.806372,252.440793 325.086631,257.499151 C324.359729,262.55751 324.359729,266.897332 322.913085,269.78578 C321.466441,272.677802 318.569573,274.125601 314.949383,279.18396 C311.329193,284.242318 306.98568,292.918387 302.642168,297.976745 C298.298656,303.035104 293.951564,304.482903 289.608052,305.205015 C285.26454,305.927127 280.921027,305.927127 277.300837,308.097037 C273.680647,310.266948 270.783779,314.603195 264.990042,321.105777 C259.199886,327.611935 250.512862,336.284428 246.16935,344.960496 C233.135233,370.981551 224.448209,386.160202 215.757605,400.977797 C207.07058,415.795392 198.379976,430.251931 193.313142,440.372223 C188.246308,450.48894 186.799664,456.272986 183.899215,464.223367 C181.005927,472.173748 176.662415,482.29404 171.592001,490.244422 C166.525167,498.194803 160.73143,503.978849 154.941274,514.095566 C149.147538,524.215858 143.357382,538.672397 139.010289,548.070577 C134.666777,557.465183 131.77349,561.801429 128.153299,566.863363 C124.529529,571.921721 120.186016,577.705767 115.846085,583.486237 C111.498992,589.270283 107.15548,595.050754 102.088646,603.001135 C97.0182318,610.955091 91.228076,621.075383 87.2426441,632.636325 C83.260793,644.204416 81.0908274,657.213156 68.0567104,670.22547 C50.6826623,691.906704 44.1656038,702.752683 38.0102063,714.678255 C31.8583896,726.603827 26.064653,739.612567 22.4444629,751.180658 C18.8242727,762.745174 17.3776289,772.861891 16.6507263,782.260072 C15.9274044,791.658252 15.9274044,800.330745 16.6507263,807.559014 C17.3776289,814.783709 18.8242727,820.567755 19.5475946,826.3518 C20.2744972,832.132271 20.2744972,837.916316 20.2744972,845.866697 C20.2744972,853.817079 20.2744972,863.937371 19.5475946,872.609864 C18.8242727,881.282358 17.3776289,888.514202 15.9274044,897.908807 C14.4807607,907.303413 13.0341169,918.871504 10.8605705,931.158132 C8.68702407,943.448335 5.79373658,956.4535 3.62019016,964.407456 C1.44664375,972.361412 0,975.24986 0,977.419771 C0,979.586107 1.44664375,981.030331 2.89686829,982.47813 C4.34351204,983.922354 5.79373658,985.366577 6.51705846,991.87631 C7.24038033,998.378892 7.24038033,1009.94341 8.68702407,1017.17525 C10.1372486,1024.39995 13.0341169,1027.29197 22.0828019,1036.32552 C31.1314869,1045.36264 46.3355695,1060.54129 63.7131984,1082.2261" opacity=".801"/>
        <path stroke="#FFF" stroke-width="6.208" d="M63.7131984,1082.2261 C76.7473153,1108.24716 87.6078858,1129.93197 94.4866052,1142.21859 C101.365325,1154.5088 104.258612,1157.39724 107.15548,1161.37601 C110.048768,1165.34763 112.949217,1170.40956 114.395861,1174.02369 C115.846085,1177.63425 115.846085,1179.80416 115.480844,1180.89091 C115.119183,1181.9705 114.395861,1181.9705 112.222314,1182.69261 C110.048768,1183.42187 106.432159,1184.8661 105.343595,1187.75812 C104.258612,1190.64657 105.708837,1194.98282 110.048768,1201.48897 C114.395861,1207.99513 121.636241,1216.66762 126.703075,1222.45167 C131.77349,1228.23571 134.666777,1231.12416 137.563645,1234.01619 C140.460514,1236.90821 143.357382,1239.79666 145.709969,1242.14531 C148.062555,1244.49753 149.87444,1246.30281 150.597762,1247.75061 C151.321084,1249.19484 150.959423,1250.278 150.415141,1250.82138 C149.87444,1251.36117 149.147538,1251.36117 146.977572,1250.09926 C144.804026,1248.83021 141.183836,1246.30281 139.375531,1245.40196 C137.563645,1244.49753 137.563645,1245.21965 137.563645,1246.12407 C137.563645,1247.0285 137.563645,1248.11167 139.733611,1249.91695 C141.907157,1251.7258 146.25425,1254.25319 149.87444,1255.52225 C153.49105,1256.78416 156.387918,1256.78416 158.561465,1257.32396 C160.73143,1257.8709 162.181655,1258.95407 165.078523,1260.93809 C167.971811,1262.92926 172.318903,1265.81771 177.385737,1268.70973 C182.452571,1271.60533 188.246308,1274.49378 192.58982,1276.66369 C196.933332,1278.83003 199.8302,1280.27425 202.003747,1280.27425 C204.173712,1280.27425 205.620356,1278.83003 207.07058,1276.66369 C208.517224,1274.49378 209.967449,1271.60533 211.414092,1270.87607 C212.860736,1270.15753 214.310961,1271.60533 215.757605,1273.77167 C217.207829,1275.938 218.654473,1278.83003 220.101117,1280.99994 C221.551341,1283.16627 222.997985,1284.61407 225.171531,1286.06187 C227.341497,1287.50609 230.238365,1288.95032 233.858555,1290.7556 C237.478745,1292.56445 241.822258,1294.73079 246.16935,1299.06704 C267.890491,1320.75542 285.26454,1335.93407 295.401788,1344.24551 C305.535456,1352.55694 308.432324,1354.00117 309.882549,1355.44897 C311.329193,1356.89319 311.329193,1358.33741 314.591303,1364.48252 C317.846251,1370.62762 324.359729,1381.47002 341.740938,1407.49108 C346.08087,1416.16357 346.08087,1418.33348 345.357548,1421.58656 C344.634226,1424.83964 343.187582,1429.17588 341.740938,1434.23424 C340.290714,1439.29618 338.84407,1445.07665 338.117167,1448.69078 C337.397426,1452.30134 337.397426,1453.75272 338.84407,1456.64116 C340.290714,1459.53319 343.187582,1463.86943 347.889174,1469.6499 C352.601509,1475.43395 359.114987,1482.66579 363.096838,1489.53301 C367.078689,1496.39665 368.525332,1502.9028 370.698879,1506.15588 C372.872425,1509.40539 375.765713,1509.40539 377.215937,1507.60011 C378.662581,1505.79125 378.662581,1502.18069 379.027823,1498.20193 C379.385903,1494.22673 380.109225,1489.89049 381.197788,1487.72415 C382.282771,1485.55424 383.729415,1485.55424 385.5413,1486.63741 C387.353186,1487.72415 389.523152,1489.89049 398.213756,1498.56298 C411.244293,1502.9028 411.244293,1507.23905 411.605954,1510.84961 C411.967614,1514.46732 412.690936,1517.35934 414.13758,1518.80357 C415.587805,1520.24779 417.761351,1520.24779 418.846334,1519.52568 C419.931317,1518.80357 419.931317,1517.35934 420.658219,1513.0231 C421.381541,1508.68327 422.828185,1501.455 422.828185,1495.67096 C422.828185,1489.89049 421.381541,1485.55424 421.743202,1477.96492 C422.104863,1470.37559 424.274829,1459.53319 424.274829,1450.85712 C424.274829,1446.52087 430.791887,1440.01829 434.050416,1436.0431 C437.308946,1432.06433 437.308946,1430.62011 435.862302,1429.17588 C434.412077,1427.72809 431.515209,1426.28386 429.341663,1423.39184 C427.171697,1420.49982 425.725053,1416.16357 426.086714,1405.32117 C426.448375,1394.47876 428.621922,1377.13377 424.274829,1355.44897 C419.931317,1342.43665 422.104863,1333.76416 423.193427,1325.09167 C424.274829,1316.41917 424.274829,1307.7431 426.448375,1301.24052 C428.621922,1294.73079 432.961853,1290.39454 436.585624,1283.88838 C440.205814,1277.3858 443.099101,1268.70973 443.822423,1262.20715 C444.545745,1255.69742 443.099101,1251.36117 444.545745,1244.13648 C445.99597,1236.90821 450.343063,1226.78434 452.513028,1218.83753 C454.686575,1210.88715 454.686575,1205.10311 458.303184,1197.14915 C461.923374,1189.20235 469.163754,1179.08205 483.644515,1161.73349 C498.125276,1144.3885 519.846417,1119.81167 531.430309,1106.07725 C543.017782,1092.34282 544.464426,1089.4508 544.464426,1086.56235 C544.464426,1083.67033 543.017782,1080.78188 542.29088,1077.16417 C541.567558,1073.55003 541.567558,1069.21379 544.464426,1067.04745 C547.357713,1064.87754 553.155031,1064.87754 557.494962,1064.87754 C561.838474,1064.87754 564.738923,1064.87754 566.908889,1063.43332 C569.082435,1061.98552 570.529079,1059.0935 577.042557,1047.53255 C583.563196,1035.96804 595.143507,1015.72388 605.280756,999.826691 C615.418005,983.922354 624.105029,972.361412 627.001897,964.407456 C629.898765,956.4535 627.001897,952.117253 625.551673,947.784581 C624.105029,943.448335 624.105029,939.108513 623.381707,934.050154 C622.658385,928.991796 621.208161,923.211325 621.935063,918.871504 C622.658385,914.535257 625.551673,911.639659 630.622087,898.634494 C635.688921,885.622179 642.932882,862.489572 646.553072,848.75872 C650.169682,835.027868 650.169682,830.688047 649.44636,826.3518 C648.723038,822.015553 647.276394,817.675732 647.276394,814.783709 C647.276394,811.895261 648.723038,810.451037 650.169682,808.281126 C651.619906,806.114791 653.06655,803.222768 653.793453,800.330745 C654.513194,797.438722 654.513194,794.5467 652.343228,789.849397 C650.169682,785.148519 645.82617,778.645937 645.82617,774.30969 C645.82617,765.633622 650.169682,763.467286 652.343228,760.214207 C654.513194,756.961129 654.513194,752.624882 656.690321,738.890455 C658.856706,725.156028 663.203799,702.030571 666.100667,682.512099 C668.997535,662.997201 670.444179,647.092863 671.894404,635.528347 C673.341047,623.963831 674.787691,616.735562 676.237916,608.78518 C677.684559,600.834799 679.131203,592.162306 682.028071,584.211924 C684.921359,576.257968 689.264871,569.029699 691.441998,564.693452 C693.611964,560.357205 693.611964,558.909407 692.888642,556.020959 C692.16532,553.128936 690.718676,548.792689 689.991774,544.452868 C689.264871,540.120196 689.264871,535.783949 689.991774,531.444128 C690.718676,527.107881 692.16532,522.771634 694.335286,516.987589 C696.508832,511.207118 699.40212,503.978849 700.852344,499.639027 C702.298988,495.302781 702.298988,493.858557 700.852344,490.244422 C699.40212,486.630287 696.508832,480.846242 695.78551,477.957794 C695.058608,475.065771 696.508832,475.065771 703.745632,470.007412 C710.989593,464.945479 724.020129,454.828762 730.537187,449.044716 C737.054246,443.260671 737.054246,441.816447 736.330924,438.202312 C735.607602,434.588177 734.157377,428.804132 734.157377,424.467885 C734.157377,420.131638 735.607602,417.239616 737.777568,412.181257 C739.951114,407.119324 742.844402,399.891054 747.187914,392.662785 C751.535006,385.43809 757.325162,378.209821 760.22203,371.703663 C763.115318,365.197506 763.115318,359.417035 764.565543,355.080789 C766.015767,350.740967 768.909055,347.848944 770.359279,342.790586 C771.805923,337.732227 771.805923,330.503958 773.979469,323.9978 C776.153016,317.491643 780.496528,311.711172 782.666493,308.097037 C784.84004,304.482903 784.84004,303.035104 784.116718,302.312992 C783.389815,301.59088 781.943171,301.59088 777.599659,297.254633 C773.252567,292.918387 766.015767,284.242318 761.668674,279.18396 C757.325162,274.125601 755.878518,272.677802 755.155197,271.233578 C754.431875,269.78578 754.431875,268.341556 753.704972,264.005309 C752.98165,259.669062 751.535006,252.440793 750.811685,245.212523 C750.088363,237.984254 750.088363,230.755985 749.36146,226.419738 C748.638138,222.083491 747.187914,220.635692 747.911235,217.021558 C748.638138,213.407423 751.535006,207.626952 753.704972,202.565019 C755.878518,197.50666 757.325162,193.170414 759.498709,187.386368 C761.668674,181.602323 764.565543,174.377628 769.635957,166.423672 C774.706372,158.47329 781.943171,149.800797 787.010005,144.020326 C792.076839,138.236281 794.977288,135.344258 797.870576,133.900034 C800.767444,132.452236 803.664312,132.452236 806.561181,131.730124 C809.454468,131.008012 812.351337,129.563788 813.801561,128.115989 C815.248205,126.671765 815.248205,125.223966 814.524883,123.05763 C813.801561,120.887719 812.351337,117.995697 809.454468,115.829361 C806.561181,113.663025 802.214088,112.215226 798.597479,111.493114 C794.977288,110.771002 792.076839,110.771002 789.906874,107.878979 C787.733327,104.986957 786.286684,99.206486 783.389815,94.1445525 C780.496528,89.0861939 776.153016,84.7499472 771.082601,82.5800364 C766.015767,80.4101257 760.22203,80.4101257 755.155197,79.6880137 C750.088363,78.9659017 745.74127,77.5181029 741.397758,76.073879 C737.054246,74.629655 732.707153,73.1818563 729.086963,71.7376323 C725.470353,70.2934083 722.573485,68.8456096 718.226392,68.1234976 C713.88288,67.4013856 708.092724,67.4013856 703.02231,66.6792736 C697.955476,65.9535868 693.611964,64.5093629 690.718676,62.3430269 C687.818227,60.1731162 686.371583,57.2810935 682.389732,53.6669588 C678.407881,50.0528241 671.894404,45.7165774 667.547311,37.0405092 C645.82617,32.7078373 645.82617,30.5379266 644.379526,25.8406239 C642.932882,21.1397464 640.036014,13.911477 636.415824,8.85311832 C632.795634,3.79475966 628.448541,0.902736932 622.658385,0.177050141 C616.868229,-0.545061838 609.627849,0.902736932 601.660566,5.23898362 C593.696864,9.5752303 585.00984,16.8034997 577.042557,22.5875452 C569.082435,28.3680158 561.838474,32.7078373 557.494962,37.766196 C553.155031,42.8245546 551.704806,48.6086001 550.258163,52.9448468 C548.807938,57.2810935 547.357713,60.1731162 545.91107,62.3430269 C544.464426,64.5093629 543.017782,65.9535868 537.947368,68.8456096 C532.876953,71.7376323 524.19351,76.073879 516.949548,78.9659017 C509.712749,81.8579244 503.922593,83.3021484 493.781764,85.4720591 C483.644515,87.6383951 469.163754,90.5304178 461.200052,93.4224405 C453.23635,96.3144633 451.789706,99.206486 444.545745,104.986957 C437.308946,110.771002 424.274829,119.443495 416.314707,124.501854 C408.347424,129.563788 405.454137,131.008012 401.110625,133.900034 C396.763532,136.788482 390.973376,141.128304 385.176059,146.908774 C379.385903,152.69282 373.595747,159.921089 367.805591,167.871471 C362.011855,175.821852 356.218118,184.49792 349.70106,191.72619 C343.187582,198.950884 335.943621,204.73493 332.327012,212.685311 C328.706821,220.635692 328.706821,230.755985 327.9835,238.706366 C327.256597,246.656747 325.806372,252.440793 325.086631,257.499151 C324.359729,262.55751 324.359729,266.897332 322.913085,269.78578 C321.466441,272.677802 318.569573,274.125601 314.949383,279.18396 C311.329193,284.242318 306.98568,292.918387 302.642168,297.976745 C298.298656,303.035104 293.951564,304.482903 289.608052,305.205015 C285.26454,305.927127 280.921027,305.927127 277.300837,308.097037 C273.680647,310.266948 270.783779,314.603195 264.990042,321.105777 C259.199886,327.611935 250.512862,336.284428 246.16935,344.960496 C233.135233,370.981551 224.448209,386.160202 215.757605,400.977797 C207.07058,415.795392 198.379976,430.251931 193.313142,440.372223 C188.246308,450.48894 186.799664,456.272986 183.899215,464.223367 C181.005927,472.173748 176.662415,482.29404 171.592001,490.244422 C166.525167,498.194803 160.73143,503.978849 154.941274,514.095566 C149.147538,524.215858 143.357382,538.672397 139.010289,548.070577 C134.666777,557.465183 131.77349,561.801429 128.153299,566.863363 C124.529529,571.921721 120.186016,577.705767 115.846085,583.486237 C111.498992,589.270283 107.15548,595.050754 102.088646,603.001135 C97.0182318,610.955091 91.228076,621.075383 87.2426441,632.636325 C83.260793,644.204416 81.0908274,657.213156 68.0567104,670.22547 C50.6826623,691.906704 44.1656038,702.752683 38.0102063,714.678255 C31.8583896,726.603827 26.064653,739.612567 22.4444629,751.180658 C18.8242727,762.745174 17.3776289,772.861891 16.6507263,782.260072 C15.9274044,791.658252 15.9274044,800.330745 16.6507263,807.559014 C17.3776289,814.783709 18.8242727,820.567755 19.5475946,826.3518 C20.2744972,832.132271 20.2744972,837.916316 20.2744972,845.866697 C20.2744972,853.817079 20.2744972,863.937371 19.5475946,872.609864 C18.8242727,881.282358 17.3776289,888.514202 15.9274044,897.908807 C14.4807607,907.303413 13.0341169,918.871504 10.8605705,931.158132 C8.68702407,943.448335 5.79373658,956.4535 3.62019016,964.407456 C1.44664375,972.361412 0,975.24986 0,977.419771 C0,979.586107 1.44664375,981.030331 2.89686829,982.47813 C4.34351204,983.922354 5.79373658,985.366577 6.51705846,991.87631 C7.24038033,998.378892 7.24038033,1009.94341 8.68702407,1017.17525 C10.1372486,1024.39995 13.0341169,1027.29197 22.0828019,1036.32552 C31.1314869,1045.36264 46.3355695,1060.54129 63.7131984,1082.2261 Z"/>
        <path stroke="#FFF" stroke-width="6.208" d="M101.294005,684.873073 C101.294005,686.317089 102.741168,687.764679 104.191914,689.212269 C105.639077,690.656285 107.08624,692.100301 107.809822,693.547891 C108.533403,694.991907 108.533403,696.435923 107.08624,697.161505 C105.639077,697.883513 102.741168,697.883513 99.8432598,698.605521 C96.9489333,699.327529 94.0510247,700.775119 91.1531161,701.493552 C88.2552075,702.222709 85.360881,702.222709 83.9065536,702.941143 C82.4593904,703.666725 82.4593904,705.110741 82.4593904,707.280339 C82.4593904,709.446362 82.4593904,712.337968 83.1865541,714.503992 C83.9065536,716.670016 85.360881,718.117606 88.9787892,718.843188 C92.6002794,719.565196 98.3925144,719.565196 102.741168,720.287204 C107.08624,721.009212 109.984149,722.456802 110.70773,724.622826 C111.431312,726.792424 109.984149,729.680456 109.264149,733.29407 C108.569224,736.750414 108.533403,740.86443 109.801462,744.374389 C105.556689,745.821979 102.501168,746.304509 99.1196781,747.752099 C94.0510247,749.918123 88.2552075,754.253745 83.9065536,757.145351 C79.5650639,760.033383 76.6671553,761.484547 73.7692467,764.372579 C70.8749202,767.264185 67.9770117,771.599806 65.0826852,775.209846 C62.1811945,778.82346 59.2832859,781.71864 57.1125411,784.606672 C54.9417962,787.498278 53.4874688,790.389884 52.0403055,794.003498 C50.5931423,797.617112 49.142397,801.952733 48.4188153,805.566347 C47.6952337,809.176387 47.6952337,812.071567 46.9716521,821.468393 C46.2480705,830.861644 44.8009072,846.760116 44.0737435,857.600958 C43.3501619,868.441799 43.3501619,874.225011 42.6265803,877.835051 C41.9029986,881.452239 40.4558354,882.89268 39.0050901,884.343845 L34.6600182,888.679467 C33.2092729,890.123483 31.7621097,891.567498 30.3149464,893.737096 C28.8642011,895.906694 27.4170378,898.7983 26.6934562,901.686332 C25.9698746,904.577938 25.9698746,907.46597 26.6934562,910.357576 C27.4170378,913.252756 28.8642011,916.140788 30.3149464,918.310386 C31.7621097,920.476409 33.2092729,921.920425 34.6600182,926.981629 C36.1107636,932.039259 37.5579268,940.710503 39.0050901,945.771707 C40.4558354,950.829336 41.9029986,952.276927 46.2480705,955.886966 C50.5931423,959.50058 57.8361227,965.283792 61.4576129,969.619414 C65.0826852,973.95861 65.0826852,976.850216 65.0826852,981.182263 C65.0826852,985.517885 65.0826852,991.301097 64.3519394,995.636719 C63.6283578,999.972341 62.1811945,1002.86752 60.0104496,1005.02997 C57.8361227,1007.20314 54.9417962,1008.64716 47.6952337,1011.53876 C40.4558354,1014.4268 28.8642011,1018.76242 23.0683839,1022.37961 C17.2761489,1025.99322 17.2761489,1028.88125 15.8289856,1035.3829 C14.3782403,1041.89169 11.4839138,1052.01053 8.58600521,1060.68177 C5.69167872,1069.35301 2.79018805,1076.58381 1.34302481,1082.36345 C-0.107720528,1088.14309 -0.107720528,1092.47871 0.619443182,1096.0959 C1.34302481,1099.70951 2.79018805,1102.59755 5.69167872,1110.54678 C8.58600521,1118.49602 12.931077,1131.50646 15.1018219,1140.90328 C17.2761489,1150.29653 17.2761489,1156.07975 17.2761489,1161.13738 C17.2761489,1166.19501 17.2761489,1170.53063 17.9997305,1173.42581 C18.7233121,1176.31384 20.1740574,1177.75785 23.0683839,1178.48344 C25.9698746,1179.20544 30.3149464,1179.20544 32.4856913,1180.64946 C34.6600182,1182.09348 34.6600182,1184.98866 34.6600182,1188.60227 C34.6600182,1192.21231 34.6600182,1196.54793 35.3835999,1199.43954 C36.1107636,1202.33114 37.5579268,1203.77873 39.7286717,1205.94476 C41.9029986,1208.11436 44.8009072,1211.00239 47.6952337,1212.44998 C50.5931423,1213.89757 53.4874688,1213.89757 57.1125411,1215.34158 C60.7340313,1216.7856 65.0826852,1219.67721 69.427757,1221.12122 C73.7692467,1222.56881 78.1143186,1222.56881 85.7190898,1222.56881 C87.4349096,1222.56881 89.3190874,1222.56881 91.2032653,1222.81544 C91.188937,1222.72965 91.1710266,1222.65102 91.1531161,1222.56881 C86.8080443,1209.55837 88.9787892,1200.88713 90.0677437,1192.21231 C91.1531161,1183.54464 91.1531161,1174.86982 93.323861,1168.36818 C95.50177,1161.85938 99.8432598,1157.52376 103.46475,1151.01854 C107.08624,1144.5169 109.984149,1135.84208 110.70773,1129.34043 C111.431312,1122.83164 109.984149,1118.49602 111.431312,1111.27236 C112.878475,1104.04156 117.227129,1093.92273 119.401456,1085.97707 C121.572201,1078.02783 121.572201,1072.24462 125.193691,1064.29181 C128.815181,1056.34615 136.058162,1046.22731 150.544123,1028.88125 C165.030083,1011.53876 186.755442,986.965475 198.347077,973.233028 C209.935129,959.50058 211.382292,956.608974 211.382292,953.720942 C211.382292,950.829336 209.935129,947.941305 209.211547,944.324117 C208.487966,940.710503 208.487966,936.374881 211.382292,934.208857 C214.280201,932.039259 220.076018,932.039259 224.42109,932.039259 C228.766162,932.039259 231.66407,932.039259 233.838397,930.595243 C236.009142,929.147653 237.459887,926.256047 243.975704,914.696772 C250.495103,903.130348 262.083155,882.89268 272.224044,866.997783 C282.364933,851.095738 291.055077,839.536462 293.949403,831.583652 C296.850894,823.630842 293.949403,819.295221 292.50224,814.963173 C291.055077,810.627551 291.055077,806.288355 290.327913,801.230725 C289.604331,796.173096 288.157168,790.389884 288.88075,786.054262 C289.604331,781.71864 292.50224,778.82346 297.574475,765.816595 C302.643129,752.809729 309.886109,729.680456 313.5076,715.951582 C317.12909,702.222709 317.12909,697.883513 316.405508,693.547891 C315.681926,689.212269 314.231181,684.873073 314.231181,681.981467 C314.231181,679.093436 315.681926,677.64942 317.12909,675.479822 C318.576253,673.313798 320.023416,670.422192 320.754162,667.527012 C321.474162,664.63898 321.474162,661.747374 319.299835,657.050748 C317.12909,652.350548 312.784018,645.848903 312.784018,641.513281 C312.784018,632.838463 317.12909,630.672439 319.299835,627.419829 C321.474162,624.167219 321.474162,619.831597 323.648489,606.09915 C325.819233,592.366702 330.167887,569.241003 333.062214,549.728918 C335.963704,530.213258 337.410868,514.314787 338.858031,502.751937 C340.308776,491.189088 341.75594,483.96186 343.203103,476.012624 C344.650266,468.063388 346.101011,459.392145 348.995338,451.439335 C351.893246,443.490099 356.238318,436.262871 358.412645,431.92725 C360.586972,427.591628 360.586972,426.144038 359.863391,423.256006 C359.136227,420.3644 357.689064,416.028778 356.965482,411.689582 C356.238318,407.35396 356.238318,403.021913 356.965482,398.682717 C357.689064,394.347095 359.136227,390.011473 361.310554,384.228261 C363.481299,378.448624 366.379207,371.221396 367.82637,366.8822 C369.277116,362.546578 369.277116,361.102562 367.82637,357.488948 C366.379207,353.875334 363.481299,348.092122 362.757717,345.204091 C362.034135,342.312485 363.481299,342.312485 370.724279,337.254855 C377.967259,332.193651 391.006057,322.078391 397.521874,316.29518 C404.044855,310.511968 404.044855,309.067952 403.317691,305.454338 C402.594109,301.840724 401.146946,296.057512 401.146946,291.72189 C401.146946,287.386268 402.594109,284.494662 404.768436,279.437033 C406.939181,274.375829 409.83709,267.148601 414.182161,259.921373 C418.530815,252.69772 424.32305,245.466918 427.217377,238.965272 C430.115285,232.460052 430.115285,226.680415 431.562449,222.344793 C433.013194,218.005597 435.911103,215.113991 437.358266,210.056361 C438.809011,204.998731 438.809011,197.771503 440.979756,191.266284 C443.157665,184.761064 447.499155,178.981426 449.673482,175.367812 C451.844227,171.754198 451.844227,170.306608 451.120645,169.5846 C450.397063,168.862592 448.9499,168.862592 444.604828,164.526971 C440.256174,160.191349 433.013194,151.516531 428.668122,146.458901 C424.32305,141.401271 422.872305,139.953681 422.148723,138.509665 C421.425142,137.062075 421.425142,135.618059 420.70156,131.282438 C419.977979,126.946816 418.530815,119.719588 417.803652,112.49236 C417.08007,105.265133 417.08007,98.0379047 416.352906,93.6987086 C415.632907,89.3666611 414.182161,87.919071 414.905743,84.3054571 C415.632907,80.6918432 418.530815,74.9122056 420.70156,69.8510016 C422.872305,64.7933718 424.32305,60.45775 426.493795,54.6745381 C428.668122,48.8913262 431.562449,41.6676727 436.634684,33.7148627 C441.70692,25.765627 448.9499,17.0943834 454.018554,11.3147457 C459.047804,5.57799965 461.938549,2.68639369 464.811383,1.22808066 C456.737358,-0.183766504 452.582137,-0.0300717489 449.308109,0.470329779 C444.604828,1.19591199 441.70692,2.63992783 435.911103,5.5315338 C430.115285,8.42313977 421.425142,12.7587616 416.352906,16.3723755 C411.284253,19.9824151 409.83709,22.8775953 408.386344,25.765627 C406.939181,28.657233 405.492018,31.5488389 402.594109,33.7148627 C399.696201,35.8844607 395.351129,37.3284766 392.45322,36.6064687 C389.558894,35.8844607 388.108148,32.9928548 386.657403,33.7148627 C385.21024,34.4368706 383.759495,38.7760667 381.58875,42.3896806 C379.418005,46.0032945 376.520096,48.8913262 364.20488,56.8441361 C351.893246,64.7933718 330.167887,77.8002373 318.576253,85.027465 C306.991783,92.2546928 305.541038,93.6987086 305.541038,98.0379047 C305.541038,102.373527 306.991783,109.600754 306.264619,113.936376 C305.541038,118.271998 302.643129,119.719588 298.298057,121.885612 C293.949403,124.05521 288.157168,126.946816 280.91777,129.834848 C273.671207,132.726453 264.977482,135.618059 259.908828,137.784083 C256.487935,139.249545 254.714802,140.386171 253.034803,140.078782 C249.105253,146.687656 244.516599,152.999864 241.439586,158.021751 C237.459887,164.526971 236.009142,168.862592 235.28556,174.281226 C234.748247,178.298735 234.608546,182.913152 232.803174,186.798413 C234.551233,189.497007 234.46168,192.234918 233.111233,195.601905 C231.66407,199.215519 228.766162,203.551141 225.144671,207.890337 C221.523181,212.225959 217.181692,216.561581 212.109456,223.066801 C207.03722,229.568446 201.244985,238.243264 196.896331,243.300894 C195.617526,244.791376 194.464094,245.970893 193.378722,246.935954 C196.924988,253.473342 200.302896,258.577438 202.695731,262.451975 C205.590057,267.148601 207.03722,270.040207 209.211547,271.487797 C211.382292,272.931813 214.280201,272.931813 217.905273,272.931813 C221.523181,272.931813 225.868253,272.931813 229.489743,272.209805 C233.111233,271.487797 236.009142,270.040207 239.630632,270.040207 C243.252122,270.040207 247.600776,271.487797 251.945848,273.653821 C252.218087,273.789644 252.490325,273.929042 252.762564,274.072013 C240.465259,289.387875 233.494517,297.905423 228.04258,303.645744 C221.523181,310.511968 217.181692,313.403574 215.007365,315.573172 C212.833038,317.739195 212.833038,319.183211 212.833038,322.800399 C212.833038,326.410439 212.833038,332.193651 213.556619,337.254855 C214.280201,342.312485 215.727364,346.648106 218.628855,352.431318 C221.523181,358.210956 225.868253,365.438184 227.318998,369.051798 C228.766162,372.665412 227.318998,372.665412 224.42109,372.665412 C221.523181,372.665412 217.181692,372.665412 214.280201,374.113002 C211.382292,375.557018 209.935129,378.448624 209.211547,381.336655 C208.487966,384.228261 208.487966,387.119867 209.211547,390.011473 C209.935129,392.899505 211.382292,395.791111 210.658711,398.682717 C209.935129,401.574323 207.03722,404.465929 201.964985,410.967574 C196.896331,417.472794 189.656933,427.591628 186.035443,434.096848 C182.410371,440.598493 182.410371,443.490099 183.137534,445.659697 C183.861116,447.825721 185.308279,449.273311 186.755442,450.717327 C188.206188,452.164917 189.656933,453.608933 191.104096,455.774957 C192.554842,457.944555 194.002005,460.836161 194.002005,465.89379 C194.002005,470.95142 192.554842,478.182222 191.104096,483.96186 C189.656933,489.745072 188.206188,494.080694 186.755442,497.694308 C185.308279,501.307921 183.861116,504.199527 182.410371,507.087559 C180.963207,509.979165 179.516044,512.870771 176.618136,517.206393 C173.723809,521.542015 169.375155,527.325227 167.200828,530.93884 C165.030083,534.552454 165.030083,535.99647 166.477247,537.440486 C167.927992,538.888076 170.825901,540.335666 173.723809,542.50169 C176.618136,544.667714 179.516044,547.55932 181.686789,549.728918 C183.861116,551.894942 185.308279,553.342532 185.308279,555.51213 C185.308279,557.678153 183.861116,560.569759 181.686789,570.688593 C179.516044,580.803853 176.618136,598.149914 174.443809,606.821158 C172.273064,615.495976 170.825901,615.495976 167.200828,616.939992 C163.58292,618.384007 157.783521,621.275613 154.889194,624.167219 C151.991286,627.058825 151.991286,629.950431 151.991286,633.564045 C151.991286,637.174085 151.991286,641.513281 151.267704,643.682879 C150.544123,645.848903 149.096959,645.848903 144.748305,646.570911 C140.406816,647.292918 133.160253,648.740509 128.815181,649.462516 C124.47011,650.184524 123.019364,650.184524 121.572201,652.350548 C120.125038,654.523721 118.677874,658.859342 115.779966,663.916972 C112.878475,668.974602 108.533403,674.757814 105.639077,678.371428 C102.741168,681.981467 101.294005,683.429057 101.294005,684.873073" transform="translate(333 134)"/>
        <path stroke="#FFF" stroke-width="6.208" d="M470.516087,336.243629 C431.193415,318.341003 391.870743,311.179953 363.272437,278.955227 C356.12286,271.794176 341.823706,275.374701 334.67413,271.794176 C331.099341,268.213651 334.67413,257.472076 331.099341,253.891551 C329.168956,253.61585 327.270743,253.315086 325.37968,253 C325.193791,254.059835 325.018627,255.091027 324.87921,256.082832 C324.153528,261.149275 324.153528,265.496033 322.709313,268.389097 C321.265099,271.285742 318.373095,272.735854 314.758984,277.802298 C311.144873,282.868741 306.808655,291.558675 302.468862,296.625118 C298.132643,301.691561 293.796425,303.141674 289.460207,303.86494 C285.123989,304.588206 280.784196,304.588206 277.173659,306.761585 C273.555974,308.934963 270.667545,313.27456 264.887112,319.791116 C259.103104,326.307671 250.427093,334.994025 246.090875,343.68396 C233.08222,369.746602 224.406209,384.949512 215.733772,399.790788 C215.154657,400.779013 214.575541,401.770819 214,402.759044 C221.01016,409.780454 222.77968,411.549233 224.770837,413.543585 C227.298213,416.078597 230.190216,418.975242 233.804327,421.14504 C237.418438,423.318419 241.754657,424.768532 246.816557,427.661596 C251.871308,430.558241 257.65889,434.901418 261.995108,437.074797 C266.331326,439.248175 269.219755,439.248175 272.111759,439.971441 C275.003763,440.694707 277.895767,442.14124 281.509878,441.417974 C285.123989,440.694707 289.460207,437.798063 293.796425,435.624684 C298.132643,433.454886 302.468862,432.008353 305.360865,430.558241 C308.252869,429.111709 309.700659,427.661596 312.592662,426.93833 C315.481091,426.215064 319.81731,426.215064 322.709313,426.215064 C325.597742,426.215064 327.045532,426.215064 329.215428,427.661596 C331.38175,429.111709 334.273754,432.008353 336.44365,434.178152 C338.613547,436.34795 340.057761,437.798063 341.50555,438.521329 C342.949765,439.248175 344.393979,439.248175 346.560301,439.248175 L354.51063,439.248175 C357.399059,439.248175 360.294638,439.248175 363.186642,439.971441 C366.078645,440.694707 368.970649,442.14124 371.133396,442.864506 C373.306867,443.587772 374.751082,443.587772 376.920978,442.864506 C379.0873,442.14124 381.975729,440.694707 384.1492,439.971441 C386.311947,439.248175 387.763311,439.248175 388.485419,439.971441 C389.207526,440.694707 389.207526,442.14124 389.929633,443.587772 C390.655315,445.037884 392.09953,446.487997 394.265851,447.211263 C396.435748,447.934529 399.327752,447.934529 401.490499,448.657795 C403.66397,449.381061 405.108184,450.827594 407.278081,449.381061 C409.444403,447.934529 412.336406,443.587772 415.224835,441.417974 C418.120414,439.248175 421.012418,439.248175 423.178739,439.248175 L428.24064,439.248175 C429.684854,439.248175 431.129069,439.248175 433.298965,437.074797 C435.465287,434.901418 438.357291,430.558241 440.527187,428.384862 C442.693509,426.215064 444.137723,426.215064 445.581938,426.215064 C447.029727,426.215064 448.477516,426.215064 449.925306,424.768532 C451.36952,423.318419 452.813735,420.421774 456.427846,417.52871 C460.041957,414.632065 465.825964,411.73542 470.158608,410.288888 C474.498401,408.838775 477.38683,408.838775 478.838194,409.565622 C480.282408,410.288888 480.282408,411.73542 481.726623,411.012154 C483.174412,410.288888 486.062841,407.392243 487.507056,403.772332 C488.95127,400.152421 488.95127,395.809245 493.291063,391.462487 C495.378739,390.93973 497.266228,390.452779 499,389.987311 C498.428034,364.715964 494.724553,345.338162 470.516087,336.243629 Z"/>
        <path stroke="#FFF" stroke-width="6.208" d="M583.466221,271.851663 C580.575069,268.955099 576.236554,261.715479 573.345402,255.925931 C570.457823,250.136383 569.014034,245.789746 567.566671,241.44669 C566.119308,237.103634 564.679092,232.760578 563.957198,226.96745 C563.231729,221.177902 563.231729,213.938281 562.506261,209.591645 C561.78794,205.248589 560.340577,203.802097 558.171319,204.525343 C556.005636,205.248589 553.118057,208.145153 548.057647,208.868399 C542.997237,209.591645 535.774717,208.145153 531.436202,206.698661 C527.104834,205.248589 525.657471,203.802097 524.935577,200.905533 C524.213682,198.008969 524.213682,193.665912 522.769893,189.322856 C521.318956,184.9798 518.427804,180.633164 515.540225,177.016934 C512.649073,173.393544 509.761494,170.50056 509.032452,166.88075 C508.317705,163.26094 509.761494,158.917883 510.483389,156.021319 C511.205284,153.124755 511.205284,151.678263 512.649073,150.951437 C514.092862,150.228191 516.984014,150.228191 519.875167,149.504945 C522.769893,148.781699 525.657471,147.335207 527.823155,145.885135 C529.992413,144.438643 531.436202,142.988571 532.883565,141.542079 C534.330928,140.095587 535.774717,138.645515 537.218506,135.74895 C538.662296,132.855967 540.109659,128.50933 540.831553,124.8931 C541.553448,121.26971 541.553448,118.376726 541.553448,115.480162 C541.553448,112.583598 541.553448,109.687033 539.387764,106.790469 C537.218506,103.897486 532.883565,101.000921 529.266944,98.1043572 C525.657471,95.2113734 522.769893,92.3112288 519.875167,90.8647369 C516.984014,89.418245 514.092862,89.418245 509.396973,88.3333761 C506.959686,87.7676689 504.029222,86.9119472 497.525023,85 C496.370706,85.2577906 495.152062,85.5227421 493.861944,85.7984349 C483.748272,87.9717531 469.29251,90.8647369 461.344522,93.7613011 C453.400107,96.6578653 451.952744,99.5544295 444.723077,105.343977 C437.500557,111.137106 424.495732,119.823218 416.54417,124.8931 C408.596182,129.959402 405.705029,131.405894 401.373662,134.302458 C397.035146,137.199023 391.256416,141.542079 385.470537,147.335207 C379.691807,153.124755 373.913076,160.364375 368.134345,168.327242 C362.348467,176.293688 356.566162,184.9798 350.065537,192.219421 C343.564911,199.459041 336.335244,205.248589 332.725771,213.211455 C329.112724,221.177902 329.112724,231.310506 328.390829,239.273372 C327.804737,245.678753 326.761206,250.666286 326,255.016503 C327.890506,255.328 329.791734,255.628755 331.717977,255.904448 C335.291713,259.484874 331.717977,270.22615 335.291713,273.806575 C342.439185,277.387001 356.734128,273.806575 363.881599,280.967426 C392.471486,313.191255 431.782579,320.352106 471.093673,338.254234 C495.295012,347.348514 498.997402,366.725777 499.5692,392 C512.227372,388.616498 515.976221,386.740355 519.156846,385.150646 C522.769893,383.338951 525.657471,381.892459 529.992413,376.822577 C534.330928,371.756274 540.109659,363.070162 545.166495,356.553788 C550.226905,350.037414 554.561846,345.694358 558.171319,341.351302 C561.78794,337.008245 564.679092,332.661609 566.119308,329.045379 C567.466606,325.672618 567.55595,322.926432 565.811967,320.226791 C567.613129,316.334869 567.756079,311.71254 568.292139,307.688141 C569.014034,302.256636 570.457823,297.91358 574.431817,291.397206 C577.501656,286.370288 582.076038,280.043677 586,273.42347 C585.188762,273.273092 584.406114,272.793315 583.466221,271.851663 Z"/>
        <path stroke="#FFF" stroke-width="6.208" d="M497 84.7180271C503.526337 86.6280244 506.466774 87.4828733 508.912357 88.0480036 513.627815 89.1317661 516.525221 89.1317661 519.426214 90.5767828 522.327206 92.0217994 525.228199 94.9189863 528.853543 97.8090196 532.478887 100.70263 536.828583 103.59624 539.005224 106.486273 541.178279 109.38346 541.178279 112.273493 541.178279 115.167103 541.178279 118.060714 541.178279 120.950747 540.453927 124.570442 539.729575 128.182984 538.280872 132.525187 536.828583 135.415221 535.37988 138.308831 533.931176 139.757424 532.478887 141.202441 531.026598 142.647457 529.577895 144.096051 527.40484 145.541067 525.228199 146.989661 522.327206 148.434678 519.426214 149.157186 516.525221 149.879694 513.627815 149.879694 512.175526 150.602203 510.726822 151.328288 510.726822 152.773304 510.002471 155.666914 509.278119 158.560525 507.829416 162.899151 508.550181 166.51527 509.278119 170.131388 512.175526 173.021421 515.076518 176.641117 517.977511 180.253658 520.874917 184.595862 522.327206 188.934489 523.779496 193.273115 523.779496 197.611742 524.503847 200.505352 525.228199 203.398962 526.676902 204.843979 531.026598 206.292572 535.37988 207.737589 542.630568 209.182606 547.708201 208.460097 552.782249 207.737589 555.679655 204.843979 557.856296 204.121471 560.029351 203.398962 561.478054 204.843979 562.205992 209.182606 562.930344 213.524809 562.930344 220.757046 563.658281 226.540689 564.382633 232.32791 565.82775 236.666536 567.280039 241.005163 568.732329 245.34379 570.181032 249.685993 573.082024 255.469637 575.979431 261.25328 580.332713 268.485517 583.233705 271.379127 584.176797 272.319819 584.962109 272.799106 585.776108 272.949331 587.457894 273.256934 589.232915 272.123096 592.657448 270.656619 597.731496 268.485517 606.434473 265.595484 613.685162 262.701874 620.93585 259.808264 626.734249 256.914654 631.087531 254.747129 635.43364 252.576027 638.334633 251.13101 639.058985 246.792383 639.786922 242.45018 638.334633 235.22152 638.334633 230.879316 638.334633 226.540689 639.786922 225.095673 651.387306 217.863436 662.98769 210.631199 684.736169 197.611742 697.064491 189.656997 709.389227 181.702252 712.290219 178.808642 714.46686 175.192523 716.639915 171.576405 718.088618 167.237778 719.540907 166.51527 720.993196 165.792761 722.4419 168.686371 725.342892 169.40888 728.240299 170.131388 732.589995 168.686371 735.494573 166.51527 738.39198 164.344168 739.844269 161.454135 741.292972 158.560525 742.741675 155.666914 744.193965 152.773304 749.268012 149.157186 754.345645 145.541067 763.041451 141.202441 768.847022 138.308831 774.649007 135.415221 777.546414 133.970204 782.258285 133.247696 785.535797 132.74337 789.691854 132.589569 797.778057 134.005972 797.799572 133.991665 797.824674 133.980934 797.846189 133.970204 800.747182 132.525187 803.648174 132.525187 806.549167 131.802679 809.446573 131.076594 812.347566 129.631577 813.799855 128.182984 815.248558 126.737967 815.248558 125.29295 814.524207 123.121849 813.799855 120.950747 812.347566 118.060714 809.446573 115.889612 806.549167 113.722087 802.195885 112.273493 798.574127 111.550985 794.948783 110.828477 792.044204 110.828477 789.871149 107.934867 787.694508 105.041256 786.245805 99.2576131 783.348398 94.1929012 780.447406 89.1317661 776.09771 84.7931394 771.020077 82.6220376 765.946029 80.4545126 760.144044 80.4545126 755.069997 79.7284275 749.99595 79.0059192 745.642668 77.5609025 741.292972 76.1123091 736.943276 74.6672924 732.589995 73.2222758 728.964651 71.7736823 725.342892 70.3286657 722.4419 68.883649 718.088618 68.1575639 713.738922 67.4350556 707.940523 67.4350556 702.86289 66.7125472 697.788842 65.9900389 693.439147 64.5414455 690.54174 62.3739205 687.637162 60.2028187 686.188458 57.3092086 682.200938 53.696667 678.213418 50.0769718 671.690668 45.738345 667.337386 37.0610915 645.588907 32.7224648 645.588907 30.551363 644.136618 25.8514821 642.687915 21.1516012 639.786922 13.9193643 636.161578 8.85822923 632.536234 3.79351738 628.182952.899907283 622.384553.177398953 616.586154-.545109377 609.335466.899907283 601.360426 5.23853404 593.3818 9.58073756 584.682408 16.8093976 576.707368 22.5966178 568.732329 28.383838 561.478054 32.7224648 557.131944 37.7835999 552.782249 42.8447349 551.329959 48.6319551 549.881256 52.9705819 548.428967 57.3092086 546.980264 60.2028187 545.527975 62.3739205 544.079271 64.5414455 542.630568 65.9900389 537.55652 68.883649 532.478887 71.7736823 523.779496 76.1123091 516.525221 79.0059192 510.203281 81.5311216 504.978626 82.9546776 497 84.7180271zM338.9 205C336.653571 207.655691 334.692857 210.429492 333.289286 213.53257 329.678571 221.492484 329.678571 231.624911 328.957143 239.584825 328.232143 247.544739 326.785714 253.335719 326.067857 258.400143 325.603571 261.639227 325.439286 264.581246 325 267.036507 326.803571 266.245526 327.914286 264.964209 328.592857 263.829635 329.678571 262.018611 329.678571 260.572656 330.4 259.849678 331.121429 259.123121 332.567857 259.123121 333.289286 259.849678 334.010714 260.572656 334.010714 262.018611 334.732143 263.464567 335.453571 264.914102 336.896429 266.363636 337.621429 268.53257 338.335714 270.680029 338.346429 273.536149 339.739286 275 342.689286 271.607015 342.764286 269.581246 343.4 266.721546 344.121429 263.464567 345.564286 259.123121 347.010714 255.504653 348.453571 251.889764 349.896429 248.994273 352.064286 246.821761 354.228571 244.652827 357.117857 243.203293 359.285714 241.757337 361.45 240.307802 362.896429 238.861847 365.060714 238.138869 367.228571 237.415891 370.117857 237.415891 371.564286 238.138869 373.007143 238.861847 373.007143 240.307802 373.728571 241.03078 374.45 241.757337 375.892857 241.757337 377.339286 242.480315 378.782143 243.203293 380.225 244.652827 380.946429 246.098783 381.671429 247.544739 381.671429 248.994273 382.392857 249.717251 383.114286 250.440229 384.557143 250.440229 385.282143 249.717251 386 248.994273 386 247.544739 386 246.098783 386 244.652827 386 243.203293 385.282143 241.757337 384.557143 240.307802 383.114286 238.861847 382.392857 236.689334 381.671429 234.520401 381.671429 231.624911 380.946429 228.72942 380.225 225.83393 378.782143 222.942019 376.617857 220.769506 374.45 218.596994 371.564286 217.151038 368.675 216.42806 365.782143 215.705082 362.896429 215.705082 359.285714 215.705082 355.671429 215.705082 351.339286 215.705082 349.175 214.255548 347.010714 212.809592 347.010714 209.914102 345.925 208.468146 345.082143 207.34073 343.585714 207.090193 338.9 205z"/>
        <path stroke="#FFF" stroke-width="6.208" d="M586 273.949371C587.681771 274.256728 589.456775 273.123797 592.881277 271.658491 597.955278 269.489123 606.658176 266.601398 613.908797 263.7101 621.159419 260.818801 626.957765 257.927502 631.311006 255.761708 635.660662 253.592341 638.558042 252.148478 639.282387 247.813317 640.013904 243.474582 638.558042 236.251696 638.558042 231.912961 638.558042 227.5778 640.013904 226.133937 651.610595 218.907477 663.210873 211.681018 684.962737 198.67196 697.28736 190.723569 709.615568 182.775178 712.512948 179.883879 714.689569 176.270649 716.862604 172.657419 718.311294 168.322258 719.76357 167.600327 721.215845 166.878395 722.664535 169.769694 725.565501 170.491625 728.462881 171.213557 732.812537 169.769694 735.717089 167.600327 738.618054 165.430959 740.066744 162.543234 741.515434 159.651935 742.964124 156.760637 744.4164 153.869338 749.490401 150.256108 754.567988 146.642878 763.267299 142.307717 769.069231 139.416418 774.871163 136.525119 777.768542 135.081257 782.480371 134.359326 785.757853 133.855403 789.913872 133.701725 798 135.116996M497 85C503.542796 86.9076502 506.490649 87.7614487 508.9424 88.3258845 513.66975 89.4083153 516.574464 89.4083153 519.482773 90.8515563 522.391081 92.2947972 525.29939 95.188424 528.933877 98.0749059 532.568365 100.96496 536.92903 103.855015 539.11116 106.741497 541.289696 109.635123 541.289696 112.521605 541.289696 115.41166 541.289696 118.301714 541.289696 121.188196 540.563517 124.803443 539.837339 128.411546 538.384982 132.748413 536.92903 135.634895 535.476673 138.52495 534.024316 139.971763 532.568365 141.415004 531.112413 142.858245 529.660056 144.305058 527.48152 145.748299 525.29939 147.195113 522.391081 148.638354 519.482773 149.359974 516.574464 150.081595 513.66975 150.081595 512.213798 150.803215 510.761441 151.528408 510.761441 152.971649 510.035263 155.861703 509.309084 158.751758 507.856727 163.085053 508.579311 166.696728 509.309084 170.308403 512.213798 173.194885 515.122107 176.810132 518.030416 180.418234 520.935129 184.755102 522.391081 189.088397 523.847033 193.421693 523.847033 197.754988 524.573212 200.645042 525.29939 203.535097 526.751747 204.978338 531.112413 206.425151 535.476673 207.868392 542.745648 209.311633 547.836087 208.590013 552.922931 207.868392 555.827645 204.978338 558.009775 204.256717 560.18831 203.535097 561.640667 204.978338 562.370441 209.311633 563.096619 213.648501 563.096619 220.87185 563.826393 226.648387 564.552571 232.428495 566.001333 236.761791 567.457285 241.095086 568.913237 245.428381 570.365594 249.765249 573.273902 255.541785 576.178616 261.318322 580.542877 268.541671 583.451186 271.431726 584.396655 272.371261 585.183948 272.84996 586 273M372 164C376.616086 164.734335 379.276996 165.803439 381.930705 166.46578 386.298343 167.556483 390.669582 167.556483 395.764559 169.014353 400.863137 170.468623 406.685454 173.380763 411.780431 175.565769 416.875409 177.747174 421.246647 179.205044 425.614285 182.84072 429.985524 186.483595 434.34596 192.304276 437.989859 196.670687 441.630158 201.040697 444.539516 203.949238 446.725135 206.861378 448.907154 209.773518 450.369034 212.682059 453.278392 215.594199 456.191351 218.50634 460.558989 221.41848 468.566925 224.33062 476.574861 227.239161 488.223096 230.151301 495.507293 232.336306 502.784289 234.517712 505.700849 235.975582 508.610207 238.160587 511.523166 240.341992 514.436124 243.254133 515.163464 246.166273 515.890804 249.074814 514.436124 251.986954 513.705184 256.353365 512.977845 260.723375 512.977845 266.544056 512.250505 270.910467 511.523166 275.280477 510.068487 278.189018 510.792225 280.374023 511.523166 282.559028 514.436124 284.013298 520.258441 288.379709 526.084359 292.746119 534.819635 300.02467 541.372892 304.391081 547.922548 308.757492 552.293787 310.215362 556.661425 312.400367 561.029063 314.581772 565.396701 317.493913 567.58232 320.406053 567.729948 320.604035 567.870375 320.802018 568 321M325 265.779148C326.793163 264.97981 327.893916 263.690786 328.572122 262.549389 329.651571 260.731073 329.651571 259.272821 330.368836 258.545495 331.086101 257.818168 332.520631 257.818168 333.237896 258.545495 333.955161 259.272821 333.955161 260.731073 334.675977 262.185726 335.393242 263.640378 336.827772 265.09863 337.545037 267.280609 338.265853 269.466187 338.265853 272.379092 339.703934 273.833745 341.138464 275.291997 344.011076 275.291997 347.597401 276.019323 351.187277 276.746649 355.494419 278.201302 359.087846 278.928628 362.674171 279.659554 365.546782 279.659554 367.698577 281.114206 369.857474 282.572459 371.292005 285.481764 376.316411 289.852921 381.340817 294.220478 389.958651 300.042687 395.700322 304.410244 401.445545 308.777801 404.318156 311.690706 407.187216 313.876285 410.059827 316.058263 412.932438 317.516516 415.801499 318.243842 418.677661 318.971168 421.546721 318.971168 423.702067 319.702095 425.853862 320.429421 427.291943 321.884073 431.599085 323.338725 435.906226 324.796978 443.085979 326.25163 448.831201 327.709883 454.572872 329.164535 458.880014 330.619187 461.752625 331.346513 464.625236 332.07744 466.063317 332.07744 468.215112 332.804766 470.366908 333.532092 473.243069 334.990345 476.829395 338.626975 480.419271 342.270807 484.726412 348.093016 487.599024 352.460573 490.471635 356.831731 491.906165 359.741035 494.061511 361.195687 496.216857 362.65394 499.085917 362.65394 499.803183 363.381266 500.523998 364.108592 499.085917 365.566845 498.368652 367.748823 497.651387 369.934402 497.651387 372.847307 497.651387 376.487538 497.651387 380.127769 497.651387 384.495326 496.57549 387.771894 495.954097 389.669423 494.966969 391.199688 494.246154 393"/>
        <path stroke="#FFF" stroke-width="6.208" d="M339.202262,275 C342.182895,271.607015 342.262379,269.584825 342.90186,266.721546 C343.635276,263.468146 345.094883,259.123121 346.554489,255.508232 C348.014096,251.889764 349.477316,248.994273 351.666726,246.821761 C353.859749,244.652827 356.778962,243.203293 358.975598,241.757337 C361.165008,240.311382 362.624615,238.861847 364.817638,238.138869 C367.007048,237.415891 369.933487,237.415891 371.393094,238.138869 C372.852701,238.861847 372.852701,240.311382 373.586117,241.034359 C374.31592,241.757337 375.775527,241.757337 377.235134,242.480315 C378.698353,243.203293 380.15796,244.652827 380.887764,246.098783 C381.617567,247.548318 381.617567,248.994273 382.34737,249.717251 C383.080787,250.443808 384.540393,250.443808 385.27381,249.717251 C386,248.994273 386,247.548318 386,246.098783 C386,244.652827 386,243.203293 385.27381,241.757337 C384.540393,240.311382 383.080787,238.861847 382.34737,236.692913 C381.617567,234.520401 381.617567,231.624911 380.887764,228.72942 C380.15796,225.837509 378.698353,222.942019 376.50533,220.773085 C374.31592,218.600573 371.393094,217.151038 368.473881,216.42806 C365.547441,215.705082 362.624615,215.705082 358.975598,215.705082 C355.319356,215.705082 350.936923,215.705082 348.747512,214.259127 C346.554489,212.809592 346.554489,209.914102 345.456172,208.468146 C344.607143,207.344309 343.093343,207.093772 338.353234,205 L332.673774,213.53257 L328.591211,235.79456 L325.877932,255.322119 L325,261.377953 L335.27144,274.105225 L339.202262,275 Z"/>
      </g>
    </g>
    <path fill="#173E6F" fill-rule="nonzero" d="M141.864,158.848 L141.864,135.952 C142.68,137.248 143.64,138.832 144.696,140.752 L147.336,136.768 C145.512,134.464 143.688,132.304 141.864,130.336 L141.864,128.176 L145.752,128.176 L145.752,123.52 L141.864,123.52 L141.864,114.592 L136.968,114.592 L136.968,123.52 L131.496,123.52 L131.496,128.176 L136.92,128.176 C135.528,133.552 133.368,138.352 130.392,142.48 L132.6,148.048 C134.328,144.928 135.768,141.568 136.968,137.92 L136.968,158.848 L141.864,158.848 Z M149.448,159.424 C155.256,154.528 158.232,146.848 158.376,136.336 L158.376,114.736 L153.624,114.736 L153.624,129.856 C152.424,126.592 151.224,123.52 149.976,120.736 L145.8,122.704 C147.432,125.872 148.968,129.424 150.408,133.36 L153.624,131.728 L153.624,135.568 C150.984,138.064 148.008,140.032 144.696,141.568 L147.48,146.08 C149.496,144.832 151.416,143.44 153.192,141.856 C152.232,148 149.64,152.704 145.512,155.92 L149.448,159.424 Z M169.464,158.224 C171.192,158.224 172.536,157.792 173.4,156.928 C174.264,156.016 174.888,153.088 175.272,148.192 L170.808,146.752 C170.664,150.16 170.424,152.224 170.04,152.896 C169.752,153.472 169.224,153.808 168.552,153.808 L167.16,153.808 C166.2,153.808 165.768,153.088 165.768,151.744 L165.768,139.168 C167.88,140.896 169.944,142.96 172.008,145.408 L174.888,140.944 C172.104,138.256 169.032,135.904 165.768,133.936 L165.768,130.096 L168.984,132.4 C171.192,129.52 173.064,126.064 174.696,122.08 L170.328,119.968 C169.032,123.184 167.496,126.064 165.768,128.56 L165.768,114.736 L160.872,114.736 L160.872,152.752 C160.872,156.4 162.456,158.224 165.72,158.224 L169.464,158.224 Z M189.64,159.04 L189.64,157.36 L220.36,157.36 L220.36,159.04 L225.16,159.04 L225.16,116.08 L184.84,116.08 L184.84,159.04 L189.64,159.04 Z M198.664,152.848 L189.64,152.848 L189.64,120.592 L220.36,120.592 L220.36,152.848 L199.96,152.848 C202.696,152.32 205.432,151.696 208.168,150.976 L207.448,147.568 C205.816,148.048 204.232,148.48 202.6,148.864 L202.6,144.736 C203.56,143.968 204.376,143.2 205.096,142.432 L215.272,142.432 C214.12,143.2 212.776,144.016 211.336,144.784 C209.992,144.16 208.6,143.584 207.16,143.104 L205.144,146.032 C209.128,147.568 213.016,149.68 216.808,152.368 L219.112,148.816 C217.768,148 216.424,147.232 214.984,146.512 C216.328,145.792 217.672,145.024 219.016,144.16 L216.088,141.856 C216.04,141.856 215.992,141.904 215.944,141.952 L215.944,133.936 L194.056,133.936 L194.056,142.432 L200.2,142.432 C198.136,143.68 194.968,144.832 190.648,145.888 L192.904,149.584 C195.016,148.816 196.936,148.048 198.664,147.184 L198.664,148.432 C198.664,149.104 198.28,149.584 197.512,149.872 L198.664,152.848 Z M218.872,132.4 L218.872,128.752 L207.256,128.752 L207.256,126.976 L216.52,126.976 L216.52,123.424 L207.256,123.424 L207.256,121.552 L202.744,121.552 L202.744,123.424 L193.48,123.424 L193.48,126.976 L202.744,126.976 L202.744,128.752 L191.272,128.752 L191.272,132.4 L218.872,132.4 Z M211.816,139.264 L198.136,139.264 L198.136,137.2 L211.816,137.2 L211.816,139.264 Z" mask="url(#img-location-taoyuan-b)"/>
    <g fill-rule="nonzero" mask="url(#img-location-taoyuan-b)">
      <g transform="translate(148 27)">
        <path fill="#FFF" d="M32.9998182,0 C51.2254872,0 66,14.998369 66,33.4998154 C66,51.1530281 52.5496996,65.6168018 35.4847565,66.9064537 L32.628536,71.9208443 C32.5684367,72.0263852 32.4315633,72.0263852 32.3718114,71.9208443 L32.3718114,71.9208443 L29.4591826,66.8094371 C12.898824,65.0161967 0,50.7873404 0,33.4998154 C0,14.998369 14.7745128,0 32.9998182,0 Z"/>
        <path fill="#06F3F9" d="M49.3576534,44.1802628 C50.683973,44.7065438 51.3400021,46.2291059 50.8236626,47.5805894 C47.941011,55.1251922 40.9448305,60 32.9997116,60 C25.0549584,60 18.0587779,55.1248195 15.176492,47.5802167 C14.6597868,46.2287332 15.3161816,44.7061711 16.6421355,44.1798901 C17.9680894,43.6532364 19.4618902,44.3222692 19.9782297,45.6737528 C22.0841781,51.1862849 27.1952807,54.7472539 32.9997116,54.7472539 C38.8045083,54.7472539 43.9156109,51.1862849 46.0215592,45.6741255 C46.537533,44.322642 48.0309681,43.6532364 49.3576534,44.1802628 Z M42.5,23 C47.1869541,23 51,26.8131292 51,31.5001856 C51,36.187242 47.1869541,40 42.5,40 C37.8130459,40 34,36.187242 34,31.5001856 C34,26.8131292 37.8130459,23 42.5,23 Z M23.3982637,11.000563 C27.996304,10.9478957 31.7760707,14.5970364 31.9839268,19.1698795 C31.992694,19.3621334 31.8392677,19.5234498 31.6482154,19.5234498 L31.6482154,19.5234498 L27.133829,19.5234498 C26.9610418,19.5234498 26.8211316,19.3893878 26.8032318,19.2162856 C26.6300793,17.546034 25.2357264,16.2363505 23.5389045,16.214989 C21.6875604,16.1917859 20.172293,17.7659106 20.172293,19.633204 L20.172293,19.633204 L20.172293,31.433246 C20.172293,33.2622359 21.6327653,34.7534925 23.4395427,34.7847982 C25.299654,34.8164722 26.8222275,33.241611 26.8222275,31.3662149 L26.8222275,31.3662149 L26.8222275,28.0805888 L23.7865784,28.0805888 C23.601371,28.0805888 23.4512324,27.9292165 23.4512324,27.7424872 L23.4512324,27.7424872 L23.4512324,23.7574547 C23.4512324,23.5707254 23.601371,23.4193531 23.7865784,23.4193531 L23.7865784,23.4193531 L31.832327,23.4193531 C31.9251134,23.4193531 32,23.4948551 32,23.5884039 L32,23.5884039 L32,28.0805888 L31.9941552,28.0805888 L31.9941552,31.433246 C31.9941552,36.1847158 28.1369448,40.0456303 23.4132411,39.9995925 C18.7355652,39.953923 15,36.0407095 15,31.3238601 L15,31.3238601 L15,19.6755588 C15,14.9653388 18.7264327,11.0547035 23.3982637,11.000563 Z M42.5,28 C40.5701384,28 39,29.5699345 39,31.5 C39,33.4300655 40.5701384,35 42.5,35 C44.4298616,35 46,33.4300655 46,31.5 C46,29.5699345 44.4298616,28 42.5,28 Z"/>
      </g>
    </g>
  </g>
</svg>
