<svg height="200" viewBox="0 0 362 200" width="362" xmlns="http://www.w3.org/2000/svg" xmlns:xlink="http://www.w3.org/1999/xlink"><defs><rect id="a" height="200" rx="20" width="362"/><mask id="b" fill="#fff"><use fill="#fff" fill-rule="evenodd" xlink:href="#a"/></mask></defs><g fill="none" fill-rule="evenodd"><use fill="#06f3f9" xlink:href="#a"/><g mask="url(#b)" opacity=".6"><g transform="translate(66 -899)"><path d="m54.332114 925.18472c11.1149831 22.24515 20.3764512 40.783285 26.242353 51.287005 5.8659018 10.506777 8.3331838 12.976083 10.8035193 16.377492 2.467282 3.395296 4.9406711 7.722693 6.1743121 10.812383 1.2366945 3.08663 1.2366945 4.94167.9252307 5.87072-.3084102.92293-.9252307.92293-2.7787457 1.54026-1.8535151.62343-4.9376176 1.85809-5.8659019 4.33045-.9252307 2.46931.3114639 6.17632 4.0123868 11.73837 3.7070301 5.56206 9.8813417 12.97609 14.2021387 17.92081 4.323851 4.94473 6.791133 7.41403 9.261469 9.8864 2.470335 2.47236 4.940671 4.94167 6.946864 6.9495 2.006193 2.0109 3.551298 3.55422 4.168119 4.79193.61682 1.23465.30841 2.16064-.155732 2.62516-.461089.46147-1.080963.46147-2.931424-.61732-1.853515-1.08491-4.940671-3.24555-6.482723-4.01568-1.545104-.77319-1.545104-.15586-1.545104.61732 0 .77319 0 1.69918 1.850461 3.2425 1.853515 1.54637 5.560545 3.70701 8.647701 4.79192 3.084103 1.07879 5.554438 1.07879 7.407953 1.54026 1.850462.46758 3.087156 1.39357 5.557492 3.08969 2.467282 1.70223 6.174312 4.17154 10.495109 6.6439 4.320797 2.47542 9.261468 4.94472 12.965444 6.79976 3.703977 1.85198 6.174313 3.08663 8.027828 3.08663 1.850461 0 3.084102-1.23465 4.320797-3.08663 1.233641-1.85504 2.470335-4.32434 3.703976-4.94778 1.233641-.61427 2.470336.62344 3.703977 2.47542 1.236694 1.85198 2.470335 4.32434 3.703976 6.17937 1.236695 1.85198 2.470336 3.08969 4.323851 4.3274 1.850461 1.23466 4.320797 2.46931 7.407953 4.01263 3.087156 1.54637 6.791132 3.39835 10.498162 7.10536 18.522937 18.5412 33.338843 31.51728 41.98349 38.62265 8.641594 7.10536 11.11193 8.34002 12.348624 9.57773 1.233641 1.23465 1.233641 2.4693 4.015441 7.72269 2.775692 5.25339 8.33013 14.52246 23.152143 36.76761 3.700923 7.41403 3.700923 9.26907 3.084103 12.05009-.616821 2.78103-1.850462 6.48804-3.084103 10.81238-1.236694 4.3274-2.470335 9.26907-3.090209 12.35876-.613767 3.08663-.613767 4.3274.619874 6.79671 1.233641 2.47236 3.703976 6.17937 7.713309 11.12104 4.018494 4.94473 9.572932 11.12716 12.968499 16.99788 3.395566 5.86766 4.629207 11.42971 6.482722 14.21073 1.853515 2.77797 4.320797 2.77797 5.557491 1.23466 1.233641-1.54638 1.233641-4.63301 1.545105-8.03442.305357-3.39835.922177-7.10537 1.850462-8.95735.92523-1.85503 2.158871-1.85503 3.703976-.92904 1.545105.92904 3.395567 2.78102 10.806573 10.19506 11.11193 3.71007 11.11193 7.41708 11.42034 10.50372.30841 3.09274.925231 5.5651 2.158872 6.79976 1.236694 1.23465 3.090209 1.23465 4.01544.61732.925231-.61732.925231-1.85198 1.545105-5.55899.61682-3.71007 1.850461-9.88945 1.850461-14.83418 0-4.94167-1.233641-8.64868-.92523-15.13672.30841-6.48804 2.158871-15.75711 2.158871-23.1742 0-3.70701 5.557492-9.26601 8.336238-12.66436 2.778745-3.40141 2.778745-4.63606 1.545104-5.87072-1.236694-1.23771-3.70703-2.47236-5.560545-4.94472-1.850461-2.47237-3.084102-6.17938-2.775692-15.44845s2.161925-24.09713-1.545105-42.63526c-3.703976-11.12411-1.850461-18.53814-.922177-25.95217.922177-7.41403.922177-14.83112 2.775692-20.39011 1.853515-5.56511 5.554438-9.27213 8.644648-14.83418 3.087156-5.55899 5.554438-12.97608 6.171258-18.53508.616821-5.5651-.61682-9.27212.616821-15.44844 1.236694-6.17938 4.943725-14.83418 6.794186-21.62783 1.853515-6.7967 1.853515-11.74143 4.937618-18.54119 3.087156-6.79365 9.261468-15.44539 21.610092-30.276506 12.348624-14.828063 30.87156-35.83856 40.749849-47.57999 9.881342-11.74143 11.114983-14.213792 11.114983-16.683098 0-2.472363-1.233641-4.941669-1.853515-8.034415-.616821-3.089689-.616821-6.796704 1.853515-8.648684 2.467282-1.855036 7.411006-1.855036 11.111929-1.855036 3.703977 0 6.177366 0 8.027827-1.234653 1.853515-1.23771 3.087156-3.710072 8.641594-13.59341 5.560546-9.886394 15.435781-27.192932 24.080428-40.783285 8.644648-13.596466 16.052601-23.479804 18.522936-30.279565 2.470336-6.799761 0-10.506776-1.236694-14.210736-1.233641-3.707016-1.233641-7.417087-1.850462-11.74143-.61682-4.324342-1.853515-9.266011-1.233641-12.976083.616821-3.707016 3.084103-6.182434 7.407953-17.300425 4.320797-11.124103 10.498163-30.899947 13.585319-42.638321 3.084103-11.738374 3.084103-15.448446 2.467282-19.155461-.61682-3.707016-1.850461-7.417088-1.850461-9.88945 0-2.469307 1.233641-3.70396 2.467282-5.558996 1.236694-1.85198 2.470335-4.324342 3.090209-6.796705.613767-2.472362.613767-4.944725-1.236694-8.960404-1.853515-4.018735-5.557492-9.57773-5.557492-13.284746 0-7.417088 3.703977-9.269068 5.557492-12.050093 1.850461-2.781026 1.850461-6.488042 3.70703-18.229472 1.847408-11.74143 5.554438-31.511161 8.024773-48.197316 2.470336-16.683099 3.703977-30.279565 4.940671-40.165959 1.233641-9.886394 2.467282-16.065772 3.703977-22.862477 1.233641-6.796705 2.467282-14.210736 4.937617-21.007441 2.467282-6.799761 6.171259-12.979139 8.027827-16.686155 1.850462-3.707015 1.850462-4.944725 1.233641-7.414031-.61682-2.472363-1.850461-6.179378-2.470335-9.88945-.619874-3.70396-.619874-7.410975 0-11.121047.619874-3.707016 1.853515-7.414032 3.703976-12.358757 1.853515-4.941669 4.320797-11.121047 5.557492-14.831119 1.233641-3.707015 1.233641-4.941669 0-8.031358-1.236695-3.089689-3.703977-8.034414-4.320797-10.50372-.619874-2.472363.61682-2.472363 6.788079-6.796705 6.177366-4.327398 17.289295-12.976083 22.846787-17.920808 5.557491-4.944725 5.557491-6.179378 4.940671-9.269067-.616821-3.08969-1.853515-8.034415-1.853515-11.74143 0-3.707016 1.236694-6.179379 3.087156-10.503721 1.853515-4.327398 4.320797-10.506777 8.024773-16.686155 3.70703-6.176322 8.644648-12.3557 11.114983-17.917752 2.467282-5.562051 2.467282-10.50372 3.703977-14.210736 1.236694-3.710072 3.703976-6.182434 4.940671-10.506777 1.233641-4.324342 1.233641-10.50372 3.087156-16.065772 1.853515-5.562051 5.557492-10.50372 7.407953-13.593409 1.853515-3.08969 1.853515-4.327399 1.236695-4.944725-.619874-.617327-1.853515-.617327-5.557492-4.324343-3.70703-3.707016-9.878289-11.124103-13.585319-15.448445-3.703976-4.324343-4.937617-5.562052-5.554438-6.796705-.61682-1.237709-.61682-2.472363-1.236694-6.179378-.616821-3.707016-1.850462-9.886394-2.467282-16.065773-.616821-6.179378-.616821-12.358756-1.236695-16.065772-.61682-3.707015-1.853515-4.944725-1.236694-8.034414.619874-3.089689 3.090209-8.031358 4.940671-12.358756 1.853515-4.324343 3.087156-8.031358 4.940671-12.976083 1.850461-4.944725 4.320797-11.121048 8.644647-17.920808 4.323851-6.796705 10.49511-14.210737 14.815907-19.152406 4.320797-4.944725 6.794186-7.417087 9.261468-8.65174 2.470335-1.23771 4.940671-1.23771 7.411006-1.855036 2.467282-.617327 4.937618-1.85198 6.174312-3.089689 1.233641-1.234654 1.233641-2.472363.616821-4.324343-.616821-1.855036-1.853515-4.327398-4.323851-6.1793779-2.467282-1.8519799-6.174312-3.0896892-9.258414-3.7070158-3.087156-.6173266-5.560545-.6173266-7.411007-3.0896891-1.853515-2.4723625-3.087156-7.4140314-5.557491-11.7414298-2.467282-4.3243423-6.171259-8.0313581-10.49511-9.886394-4.320797-1.8550359-9.261468-1.8550359-13.582265-2.4723625s-8.027827-1.8550359-11.731803-3.0896891c-3.703977-1.2346532-7.411007-2.4723625-10.498163-3.7070157-3.084102-1.2346532-5.554438-2.4723625-9.261468-3.0896891-3.703976-.6173266-8.641594-.6173266-12.965445-1.2346532-4.320797-.6203827-8.024773-1.8550359-10.492055-3.7070157-2.473389-1.8550359-3.70703-4.3273984-7.102596-7.4170876-3.395567-3.0896891-8.950005-6.7967048-12.657035-14.2137923-18.522936-3.7039596-18.522936-5.5589955-19.756577-9.5746746-1.233641-4.0187351-3.703977-10.1981133-6.791133-14.52245562-3.087156-4.32434233-6.794186-6.79670483-11.731803-7.41708751-4.937618-.61732661-11.11193.62038268-17.906116 4.3273984-6.791132 3.70701572-14.199085 9.88639393-20.993272 14.83111893-6.788079 4.941669-12.965444 8.6517408-16.669421 12.9760831-3.700923 4.3243423-4.937617 9.2690673-6.171258 12.976083-1.236695 3.7070158-2.473389 6.1793783-3.70703 8.0344142-1.233641 1.8519798-2.467282 3.086633-6.791133 5.5589955-4.32385 2.4723625-11.72875 6.1793782-17.906116 8.6517407-6.171258 2.4723625-11.108876 3.7070157-19.756577 5.5620516-8.644647 1.8519799-20.993271 4.3243424-27.784404 6.7967049s-8.024773 4.944725-14.202139 9.8863939c-6.171259 4.944725-17.286242 12.3587563-24.074321 16.6830983-6.794186 4.327399-9.261468 5.562052-12.965444 8.034415-3.70703 2.469306-8.644648 6.179378-13.588373 11.121047-4.937617 4.944725-9.875235 11.124103-14.812852 17.920808-4.940671 6.796705-9.881342 14.213792-15.438834 20.39317-5.554438 6.176323-11.731803 11.121048-14.815906 17.917752-3.087156 6.796705-3.087156 15.448446-3.703976 22.245151-.619874 6.796705-1.856569 11.74143-2.470336 16.065772-.619874 4.324342-.619874 8.034414-1.853515 10.503721-1.233641 2.472362-3.703977 3.710071-6.791133 8.034414-3.087156 4.324342-6.791132 11.741429-10.495109 16.065772-3.703976 4.324342-7.411006 5.562051-11.114983 6.179378-3.703976.617327-7.407953.617327-10.495109 2.472363-3.087156 1.855035-5.557491 5.562051-10.498162 11.121047-4.937618 5.562051-12.345571 12.976083-16.049548 20.39317-11.114983 22.245151-18.522936 35.221234-25.933942 47.888653-7.407953 12.66742-14.81896 25.026177-19.139757 33.677917-4.320797 8.648685-5.554438 13.59341-8.027827 20.390115-2.467282 6.796705-6.171259 15.448445-10.495109 22.24515-4.320797 6.796705-9.261468 11.74143-14.199086 20.390115-4.940671 8.651741-9.878288 21.010497-13.585318 29.044911-3.703977 8.031358-6.171259 11.738374-9.258415 16.065772-3.09021 4.324343-6.794186 9.269068-10.4951091 14.210737-3.70703 4.944725-7.4110066 9.886393-11.7318036 16.683098-4.3238506 6.799761-9.2614681 15.451502-12.6600879 25.33484-3.3955663 9.88945-5.2460278 21.010497-16.3610109 32.1346-14.8159061 18.535079-20.3733977 27.807202-25.622479 38.002259-5.2460277 10.195058-10.1866988 21.316105-13.2738548 31.205555-3.0871561 9.886394-4.320797 18.535079-4.9406711 26.569493-.6168205 8.034414-.6168205 15.448445 0 21.627823.6198741 6.176323 1.853515 11.121048 2.4703355 16.065773.6198741 4.941669.6198741 9.886394.6198741 16.683098 0 6.796705 0 15.448446-.6198741 22.862477-.6168205 7.414032-1.8504614 13.596466-3.087156 21.627824-1.233641 8.031358-2.467282 17.920808-4.32079701 28.424529-1.85351505 10.506776-4.32079702 21.624767-6.17431206 28.424528s-3.08715603 9.269068-3.08715603 11.124104c0 1.851979 1.23364099 3.086633 2.47033554 4.324342 1.23364098 1.234653 2.47033553 2.469306 3.08715603 8.034414.61682049 5.558996.61682049 15.44539 1.85046147 21.627824 1.23669456 6.176322 3.70703006 8.648685 11.42339336 16.371379 7.7163633 7.725751 20.6818079 20.701834 35.5007676 39.239969" fill="#fff" opacity=".801"/><g stroke="#fff" stroke-width="7.875"><path d="m54.332114 925.18472c11.1149831 22.24515 20.3764512 40.783285 26.242353 51.287005 5.8659018 10.506777 8.3331838 12.976083 10.8035193 16.377492 2.467282 3.395296 4.9406711 7.722693 6.1743121 10.812383 1.2366945 3.08663 1.2366945 4.94167.9252307 5.87072-.3084102.92293-.9252307.92293-2.7787457 1.54026-1.8535151.62343-4.9376176 1.85809-5.8659019 4.33045-.9252307 2.46931.3114639 6.17632 4.0123868 11.73837 3.7070301 5.56206 9.8813417 12.97609 14.2021387 17.92081 4.323851 4.94473 6.791133 7.41403 9.261469 9.8864 2.470335 2.47236 4.940671 4.94167 6.946864 6.9495 2.006193 2.0109 3.551298 3.55422 4.168119 4.79193.61682 1.23465.30841 2.16064-.155732 2.62516-.461089.46147-1.080963.46147-2.931424-.61732-1.853515-1.08491-4.940671-3.24555-6.482723-4.01568-1.545104-.77319-1.545104-.15586-1.545104.61732 0 .77319 0 1.69918 1.850461 3.2425 1.853515 1.54637 5.560545 3.70701 8.647701 4.79192 3.084103 1.07879 5.554438 1.07879 7.407953 1.54026 1.850462.46758 3.087156 1.39357 5.557492 3.08969 2.467282 1.70223 6.174312 4.17154 10.495109 6.6439 4.320797 2.47542 9.261468 4.94472 12.965444 6.79976 3.703977 1.85198 6.174313 3.08663 8.027828 3.08663 1.850461 0 3.084102-1.23465 4.320797-3.08663 1.233641-1.85504 2.470335-4.32434 3.703976-4.94778 1.233641-.61427 2.470336.62344 3.703977 2.47542 1.236694 1.85198 2.470335 4.32434 3.703976 6.17937 1.236695 1.85198 2.470336 3.08969 4.323851 4.3274 1.850461 1.23466 4.320797 2.46931 7.407953 4.01263 3.087156 1.54637 6.791132 3.39835 10.498162 7.10536 18.522937 18.5412 33.338843 31.51728 41.98349 38.62265 8.641594 7.10536 11.11193 8.34002 12.348624 9.57773 1.233641 1.23465 1.233641 2.4693 4.015441 7.72269 2.775692 5.25339 8.33013 14.52246 23.152143 36.76761 3.700923 7.41403 3.700923 9.26907 3.084103 12.05009-.616821 2.78103-1.850462 6.48804-3.084103 10.81238-1.236694 4.3274-2.470335 9.26907-3.090209 12.35876-.613767 3.08663-.613767 4.3274.619874 6.79671 1.233641 2.47236 3.703976 6.17937 7.713309 11.12104 4.018494 4.94473 9.572932 11.12716 12.968499 16.99788 3.395566 5.86766 4.629207 11.42971 6.482722 14.21073 1.853515 2.77797 4.320797 2.77797 5.557491 1.23466 1.233641-1.54638 1.233641-4.63301 1.545105-8.03442.305357-3.39835.922177-7.10537 1.850462-8.95735.92523-1.85503 2.158871-1.85503 3.703976-.92904 1.545105.92904 3.395567 2.78102 10.806573 10.19506 11.11193 3.71007 11.11193 7.41708 11.42034 10.50372.30841 3.09274.925231 5.5651 2.158872 6.79976 1.236694 1.23465 3.090209 1.23465 4.01544.61732.925231-.61732.925231-1.85198 1.545105-5.55899.61682-3.71007 1.850461-9.88945 1.850461-14.83418 0-4.94167-1.233641-8.64868-.92523-15.13672.30841-6.48804 2.158871-15.75711 2.158871-23.1742 0-3.70701 5.557492-9.26601 8.336238-12.66436 2.778745-3.40141 2.778745-4.63606 1.545104-5.87072-1.236694-1.23771-3.70703-2.47236-5.560545-4.94472-1.850461-2.47237-3.084102-6.17938-2.775692-15.44845s2.161925-24.09713-1.545105-42.63526c-3.703976-11.12411-1.850461-18.53814-.922177-25.95217.922177-7.41403.922177-14.83112 2.775692-20.39011 1.853515-5.56511 5.554438-9.27213 8.644648-14.83418 3.087156-5.55899 5.554438-12.97608 6.171258-18.53508.616821-5.5651-.61682-9.27212.616821-15.44844 1.236694-6.17938 4.943725-14.83418 6.794186-21.62783 1.853515-6.7967 1.853515-11.74143 4.937618-18.54119 3.087156-6.79365 9.261468-15.44539 21.610092-30.276506 12.348624-14.828063 30.87156-35.83856 40.749849-47.57999 9.881342-11.74143 11.114983-14.213792 11.114983-16.683098 0-2.472363-1.233641-4.941669-1.853515-8.034415-.616821-3.089689-.616821-6.796704 1.853515-8.648684 2.467282-1.855036 7.411006-1.855036 11.111929-1.855036 3.703977 0 6.177366 0 8.027827-1.234653 1.853515-1.23771 3.087156-3.710072 8.641594-13.59341 5.560546-9.886394 15.435781-27.192932 24.080428-40.783285 8.644648-13.596466 16.052601-23.479804 18.522936-30.279565 2.470336-6.799761 0-10.506776-1.236694-14.210736-1.233641-3.707016-1.233641-7.417087-1.850462-11.74143-.61682-4.324342-1.853515-9.266011-1.233641-12.976083.616821-3.707016 3.084103-6.182434 7.407953-17.300425 4.320797-11.124103 10.498163-30.899947 13.585319-42.638321 3.084103-11.738374 3.084103-15.448446 2.467282-19.155461-.61682-3.707016-1.850461-7.417088-1.850461-9.88945 0-2.469307 1.233641-3.70396 2.467282-5.558996 1.236694-1.85198 2.470335-4.324342 3.090209-6.796705.613767-2.472362.613767-4.944725-1.236694-8.960404-1.853515-4.018735-5.557492-9.57773-5.557492-13.284746 0-7.417088 3.703977-9.269068 5.557492-12.050093 1.850461-2.781026 1.850461-6.488042 3.70703-18.229472 1.847408-11.74143 5.554438-31.511161 8.024773-48.197316 2.470336-16.683099 3.703977-30.279565 4.940671-40.165959 1.233641-9.886394 2.467282-16.065772 3.703977-22.862477 1.233641-6.796705 2.467282-14.210736 4.937617-21.007441 2.467282-6.799761 6.171259-12.979139 8.027827-16.686155 1.850462-3.707015 1.850462-4.944725 1.233641-7.414031-.61682-2.472363-1.850461-6.179378-2.470335-9.88945-.619874-3.70396-.619874-7.410975 0-11.121047.619874-3.707016 1.853515-7.414032 3.703976-12.358757 1.853515-4.941669 4.320797-11.121047 5.557492-14.831119 1.233641-3.707015 1.233641-4.941669 0-8.031358-1.236695-3.089689-3.703977-8.034414-4.320797-10.50372-.619874-2.472363.61682-2.472363 6.788079-6.796705 6.177366-4.327398 17.289295-12.976083 22.846787-17.920808 5.557491-4.944725 5.557491-6.179378 4.940671-9.269067-.616821-3.08969-1.853515-8.034415-1.853515-11.74143 0-3.707016 1.236694-6.179379 3.087156-10.503721 1.853515-4.327398 4.320797-10.506777 8.024773-16.686155 3.70703-6.176322 8.644648-12.3557 11.114983-17.917752 2.467282-5.562051 2.467282-10.50372 3.703977-14.210736 1.236694-3.710072 3.703976-6.182434 4.940671-10.506777 1.233641-4.324342 1.233641-10.50372 3.087156-16.065772 1.853515-5.562051 5.557492-10.50372 7.407953-13.593409 1.853515-3.08969 1.853515-4.327399 1.236695-4.944725-.619874-.617327-1.853515-.617327-5.557492-4.324343-3.70703-3.707016-9.878289-11.124103-13.585319-15.448445-3.703976-4.324343-4.937617-5.562052-5.554438-6.796705-.61682-1.237709-.61682-2.472363-1.236694-6.179378-.616821-3.707016-1.850462-9.886394-2.467282-16.065773-.616821-6.179378-.616821-12.358756-1.236695-16.065772-.61682-3.707015-1.853515-4.944725-1.236694-8.034414.619874-3.089689 3.090209-8.031358 4.940671-12.358756 1.853515-4.324343 3.087156-8.031358 4.940671-12.976083 1.850461-4.944725 4.320797-11.121048 8.644647-17.920808 4.323851-6.796705 10.49511-14.210737 14.815907-19.152406 4.320797-4.944725 6.794186-7.417087 9.261468-8.65174 2.470335-1.23771 4.940671-1.23771 7.411006-1.855036 2.467282-.617327 4.937618-1.85198 6.174312-3.089689 1.233641-1.234654 1.233641-2.472363.616821-4.324343-.616821-1.855036-1.853515-4.327398-4.323851-6.1793779-2.467282-1.8519799-6.174312-3.0896892-9.258414-3.7070158-3.087156-.6173266-5.560545-.6173266-7.411007-3.0896891-1.853515-2.4723625-3.087156-7.4140314-5.557491-11.7414298-2.467282-4.3243423-6.171259-8.0313581-10.49511-9.886394-4.320797-1.8550359-9.261468-1.8550359-13.582265-2.4723625s-8.027827-1.8550359-11.731803-3.0896891c-3.703977-1.2346532-7.411007-2.4723625-10.498163-3.7070157-3.084102-1.2346532-5.554438-2.4723625-9.261468-3.0896891-3.703976-.6173266-8.641594-.6173266-12.965445-1.2346532-4.320797-.6203827-8.024773-1.8550359-10.492055-3.7070157-2.473389-1.8550359-3.70703-4.3273984-7.102596-7.4170876-3.395567-3.0896891-8.950005-6.7967048-12.657035-14.2137923-18.522936-3.7039596-18.522936-5.5589955-19.756577-9.5746746-1.233641-4.0187351-3.703977-10.1981133-6.791133-14.52245562-3.087156-4.32434233-6.794186-6.79670483-11.731803-7.41708751-4.937618-.61732661-11.11193.62038268-17.906116 4.3273984-6.791132 3.70701572-14.199085 9.88639393-20.993272 14.83111893-6.788079 4.941669-12.965444 8.6517408-16.669421 12.9760831-3.700923 4.3243423-4.937617 9.2690673-6.171258 12.976083-1.236695 3.7070158-2.473389 6.1793783-3.70703 8.0344142-1.233641 1.8519798-2.467282 3.086633-6.791133 5.5589955-4.32385 2.4723625-11.72875 6.1793782-17.906116 8.6517407-6.171258 2.4723625-11.108876 3.7070157-19.756577 5.5620516-8.644647 1.8519799-20.993271 4.3243424-27.784404 6.7967049s-8.024773 4.944725-14.202139 9.8863939c-6.171259 4.944725-17.286242 12.3587563-24.074321 16.6830983-6.794186 4.327399-9.261468 5.562052-12.965444 8.034415-3.70703 2.469306-8.644648 6.179378-13.588373 11.121047-4.937617 4.944725-9.875235 11.124103-14.812852 17.920808-4.940671 6.796705-9.881342 14.213792-15.438834 20.39317-5.554438 6.176323-11.731803 11.121048-14.815906 17.917752-3.087156 6.796705-3.087156 15.448446-3.703976 22.245151-.619874 6.796705-1.856569 11.74143-2.470336 16.065772-.619874 4.324342-.619874 8.034414-1.853515 10.503721-1.233641 2.472362-3.703977 3.710071-6.791133 8.034414-3.087156 4.324342-6.791132 11.741429-10.495109 16.065772-3.703976 4.324342-7.411006 5.562051-11.114983 6.179378-3.703976.617327-7.407953.617327-10.495109 2.472363-3.087156 1.855035-5.557491 5.562051-10.498162 11.121047-4.937618 5.562051-12.345571 12.976083-16.049548 20.39317-11.114983 22.245151-18.522936 35.221234-25.933942 47.888653-7.407953 12.66742-14.81896 25.026177-19.139757 33.677917-4.320797 8.648685-5.554438 13.59341-8.027827 20.390115-2.467282 6.796705-6.171259 15.448445-10.495109 22.24515-4.320797 6.796705-9.261468 11.74143-14.199086 20.390115-4.940671 8.651741-9.878288 21.010497-13.585318 29.044911-3.703977 8.031358-6.171259 11.738374-9.258415 16.065772-3.09021 4.324343-6.794186 9.269068-10.4951091 14.210737-3.70703 4.944725-7.4110066 9.886393-11.7318036 16.683098-4.3238506 6.799761-9.2614681 15.451502-12.6600879 25.33484-3.3955663 9.88945-5.2460278 21.010497-16.3610109 32.1346-14.8159061 18.535079-20.3733977 27.807202-25.622479 38.002259-5.2460277 10.195058-10.1866988 21.316105-13.2738548 31.205555-3.0871561 9.886394-4.320797 18.535079-4.9406711 26.569493-.6168205 8.034414-.6168205 15.448445 0 21.627823.6198741 6.176323 1.853515 11.121048 2.4703355 16.065773.6198741 4.941669.6198741 9.886394.6198741 16.683098 0 6.796705 0 15.448446-.6198741 22.862477-.6168205 7.414032-1.8504614 13.596466-3.087156 21.627824-1.233641 8.031358-2.467282 17.920808-4.32079701 28.424529-1.85351505 10.506776-4.32079702 21.624767-6.17431206 28.424528s-3.08715603 9.269068-3.08715603 11.124104c0 1.851979 1.23364099 3.086633 2.47033554 4.324342 1.23364098 1.234653 2.47033553 2.469306 3.08715603 8.034414.61682049 5.558996.61682049 15.44539 1.85046147 21.627824 1.23669456 6.176322 3.70703006 8.648685 11.42339336 16.371379 7.7163633 7.725751 20.6818079 20.701834 35.5007676 39.239969z"/><path d="m86.1985216 585.428508c0 1.234343 1.2314977 2.471741 2.4660436 3.709139 1.2314977 1.234342 2.4629954 2.468685 3.0787442 3.706083.6157489 1.234343.6157489 2.468685-.6157488 3.088912-1.2314977.617171-3.6975413.617171-6.1635849 1.234342-2.4629954.617172-4.929039 1.85457-7.3950826 2.468686-2.4660436.623282-4.929039.623282-6.1666332 1.237398-1.2314977.620226-1.2314977 1.854569-1.2314977 3.709138 0 1.851514 0 4.323255.6187971 6.174769.6127006 1.851514 1.8502948 3.088912 4.929039 3.709138 3.0817925.617172 8.0108314.617172 11.711421 1.234343 3.6975413.617171 6.1635849 1.854569 6.7793338 3.706083.6157488 1.854569-.6157489 4.323255-1.2284495 7.412167-.5913627 2.954478-.6218453 6.471132.4572393 9.471441-3.61219 1.237398-6.2123571 1.649863-9.0899161 2.887261-4.3132901 1.851514-9.2453773 5.557598-12.9459669 8.029338-3.6944931 2.468685-6.1605367 3.709139-8.6265803 6.177824-2.4629954 2.471741-4.929039 6.177824-7.3920343 9.26368-2.4690919 3.088912-4.9351355 5.563708-6.7823821 8.032393-1.8472465 2.471741-3.0848407 4.943482-4.3163384 8.032394-1.2314977 3.088911-2.4660436 6.794995-3.0817924 9.883907-.6157489 3.085856-.6157489 5.560652-1.2314977 13.593045-.6157489 8.029338-1.8472465 21.619328-2.4660436 30.886064-.6157489 9.266736-.6157489 14.210217-1.2314977 17.296073-.6157489 3.091968-1.8472465 4.323255-3.0817925 5.563708l-3.6975413 3.706083c-1.2345459 1.234343-2.4660436 2.468686-3.6975413 4.323255-1.2345459 1.854569-2.4660436 4.32631-3.0817924 6.794995-.6157489 2.471741-.6157489 4.940426 0 7.412166.6157488 2.474796 1.8472465 4.943482 3.0817924 6.798051 1.2314977 1.851514 2.4629954 3.085856 3.6975413 7.412166 1.234546 4.323255 2.4660436 11.735421 3.6975413 16.061731 1.234546 4.323255 2.4660436 5.560653 6.1635849 8.646509 3.6975413 3.088912 9.8611263 8.032393 12.9429187 11.738476 3.0848408 3.709139 3.0848408 6.18088 3.0848408 9.883908 0 3.706083 0 8.649564-.6218454 12.355647-.6157488 3.706083-1.8472465 6.180879-3.694493 8.029338-1.8502948 1.857624-4.3132902 3.091967-10.4799234 5.563708-6.1605366 2.468685-16.0247111 6.174768-20.9567984 9.266735-4.929039 3.088912-4.929039 5.557598-6.1605366 11.115195-1.234546 5.563708-3.69754133 14.213272-6.16358496 21.625438-2.46299536 7.412167-4.93208724 13.593046-6.16358492 18.533472-1.23454594 4.940426-1.23454594 8.646509-.61574884 11.738476.61574884 3.088912 1.84724652 5.557597 4.3163384 12.352592 2.46299536 6.794995 6.16053662 17.9163 8.00778322 25.948694 1.8502947 8.029337 1.8502947 12.972818 1.8502947 17.296073s0 8.029338.6157489 10.504138c.6157488 2.46868 1.8502948 3.70302 4.3132901 4.32325 2.4690919.61717 6.1666332.61717 8.0138797 1.85151 1.8502948 1.23435 1.8502948 3.70914 1.8502948 6.79805 0 3.08586 0 6.79194.6157489 9.26368.6187971 2.47175 1.8502947 3.70914 3.6975413 5.56066 1.8502947 1.85457 4.3163384 4.32325 6.7793337 5.56065 2.4660436 1.2374 4.929039 1.2374 8.0138797 2.47174 3.0817925 1.23434 6.7823821 3.70608 10.4799234 4.94043 3.694493 1.23739 7.3920343 1.23739 13.8634936 1.23739 1.4601173 0 3.0635029 0 4.6668885.21082-.012193-.07333-.0274343-.14054-.0426756-.21082-3.6975413-11.1213-1.8502948-18.53347-.9236233-25.94869.9236233-7.40911.9236233-14.82433 2.7708698-20.381929 1.853343-5.563708 5.5478361-9.269791 8.6296285-14.830443 3.0817925-5.557598 5.5478361-12.972819 6.163585-18.530416.6157488-5.563708-.6157489-9.269792.6157488-15.44456 1.2314977-6.180879 4.9320872-14.830444 6.7823821-21.622383 1.847246-6.794995 1.847246-11.738477 4.929039-18.536527 3.081792-6.79194 9.245377-15.441504 21.572547-30.268892 12.32717-14.824333 30.814877-35.829545 40.679051-47.568022 9.861126-11.738476 11.092624-14.210216 11.092624-16.678902 0-2.47174-1.231498-4.940426-1.847247-8.032393-.615748-3.088912-.615748-6.794995 1.847247-8.646509 2.466044-1.854569 7.398131-1.854569 11.095672-1.854569s6.163585 0 8.01388-1.234343c1.847246-1.237398 3.081792-3.709138 8.62658-13.58999 5.547836-9.886962 15.408962-27.186091 24.038591-40.773026 8.629628-13.593046 16.024711-23.473897 18.487706-30.271948 2.469092-6.79805 0-10.504133-1.231497-14.207161-1.231498-3.706084-1.231498-7.415222-1.850295-11.738477-.615749-4.323254-1.847247-9.266735-1.231498-12.972819.615749-3.706083 3.081793-6.180879 7.398131-17.299128 4.31329-11.11825 10.476875-30.889119 13.558668-42.62454 3.081792-11.735421 3.081792-15.44456 2.466043-19.150643s-1.850294-7.415222-1.850294-9.886962c0-2.468686 1.234545-3.703028 2.466043-5.557598 1.231498-1.851514 2.462996-4.323254 3.084841-6.79805.6127-2.468685.6127-4.940426-1.237594-8.955095-1.847247-4.017724-5.544788-9.575321-5.544788-13.281404 0-7.415222 3.697541-9.266736 5.544788-12.047062 1.850294-2.780327 1.850294-6.48641 3.700589-18.224886 1.847247-11.738476 5.547836-31.50629 8.010832-48.185193 2.469092-16.681957 3.700589-30.271947 4.932087-40.155854 1.234546-9.883907 2.466044-16.061731 3.697541-22.856726 1.231498-6.794995 2.466044-14.207162 4.929039-21.005212 2.466044-6.794995 6.163585-12.972819 8.01388-16.678902 1.850295-3.706084 1.850295-4.943482 1.234546-7.412167-.618797-2.47174-1.850295-6.177824-2.466044-9.886962-.618797-3.706083-.618797-7.409111 0-11.11825.615749-3.706083 1.847247-7.412166 3.697542-12.355647 1.847246-4.940426 4.31329-11.11825 5.544787-14.827389 1.234546-3.706083 1.234546-4.940425 0-8.029337-1.231497-3.088912-3.697541-8.032393-4.31329-10.501079-.615749-2.47174.615749-2.47174 6.779334-6.794995 6.163585-4.32631 17.259257-12.972819 22.804045-17.9163 5.550884-4.943481 5.550884-6.177824 4.932087-9.266736-.615749-3.088912-1.847246-8.032393-1.847246-11.738476s1.231497-6.177824 3.081792-10.501078c1.847247-4.32631 4.31329-10.504134 8.010832-16.681958 3.700589-6.174768 8.629628-12.355647 11.092623-17.913245 2.466044-5.560652 2.466044-10.501078 3.697542-14.207161 1.234546-3.709139 3.700589-6.180879 4.932087-10.504134 1.234546-4.323254 1.234546-10.501078 3.081792-16.061731 1.853343-5.560652 5.547837-10.501078 7.398131-13.58999 1.847247-3.088912 1.847247-4.32631 1.231498-4.943481s-1.847247-.617171-5.544788-4.323255c-3.700589-3.706083-9.864174-11.121305-13.561716-15.444559-3.697541-4.323255-4.932087-5.560653-5.547836-6.794995-.615749-1.237398-.615749-2.471741-1.231497-6.177824-.615749-3.706083-1.847247-9.883907-2.466044-16.0617308-.615749-6.1778238-.615749-12.3556476-1.234546-16.0647862-.612701-3.7030279-1.847246-4.9404258-1.231498-8.0293377.618797-3.0889119 3.084841-8.0293378 4.932088-12.3556476 1.847246-4.3232546 3.081792-8.0293378 4.929039-12.972819 1.850294-4.9434811 4.31329-11.1182496 8.629628-17.9163 4.316339-6.7949952 10.479923-14.2071616 14.793214-19.14758748 4.279759-4.90376222 6.739706-7.3755028 9.184412-8.62206665-6.870782-1.20684491-10.406765-1.07546686-13.192876-.64772436-4.002368.62022662-6.468411 1.85456926-11.400499 4.32630985-4.932087 2.47174058-12.32717 6.17782384-16.643508 9.26673574-4.31329 3.0858566-5.544788 5.5606524-6.779334 8.0293377-1.231497 2.4717406-2.462995 4.9434812-4.929039 6.7949952-2.466043 1.8545692-6.163585 3.0889119-8.629628 2.4717405-2.462996-.6171713-3.697542-3.0889119-4.932087-2.4717405-1.231498.6171713-2.466044 4.3263098-4.313291 7.4152217-1.847246 3.0889119-4.31329 5.5575972-14.793213 12.3556476-10.476875 6.7949951-28.964582 17.9132448-38.828756 24.0910686-9.858078 6.1778238-11.092624 7.4121664-11.092624 11.121305 0 3.7060832 1.234546 9.883907.615749 13.5899902-.615749 3.7060832-3.081793 4.9434812-6.779334 6.7949952-3.70059 1.854569-8.629629 4.32631-14.790165 6.794995-6.166633 2.471741-13.564764 4.943481-17.878054 6.794995-2.91109 1.252675-4.41998 2.224261-5.849614 1.961505-3.343943 5.649256-7.248766 11.044922-9.867223 15.337624-3.386619 5.560652-4.621165 9.266736-5.236914 13.898576-.457239 3.434161-.576121 7.378558-2.112445 10.699673 1.487552 2.306754 1.411345 4.647117.262151 7.525213-1.231498 3.088912-3.697542 6.794995-6.779334 10.504133-3.081793 3.706083-6.776286 7.412167-11.092624 12.972819-4.316338 5.557597-9.245377 12.972819-12.945967 17.296074-1.088229 1.274061-2.06977 2.282311-2.993393 3.107243 3.017779 5.588151 5.89229 9.951124 7.928529 13.263073 2.462995 4.014669 3.694493 6.48641 5.544787 7.723808 1.847247 1.234342 4.313291 1.234342 7.398131 1.234342 3.078744 0 6.776286 0 9.858078-.617171 3.081793-.617171 5.547836-1.854569 8.629629-1.854569 3.081792 0 6.782382 1.237398 10.479923 3.088912.231668.116101.463336.235258.695004.35747-10.464682 13.091976-16.396599 20.372764-21.036053 25.279582-5.547837 5.869238-9.24233 8.340978-11.092624 10.195548-1.850295 1.851514-1.850295 3.085856-1.850295 6.177824 0 3.085856 0 8.029337.615749 12.355647.615749 4.323255 1.847246 8.029338 4.316338 12.972819 2.462995 4.940426 6.160537 11.11825 7.395083 14.207162 1.231497 3.088912 0 3.088912-2.466044 3.088912s-6.160537 0-8.629628 1.237397c-2.466044 1.234343-3.697542 3.706084-4.313291 6.174769-.615748 2.471741-.615748 4.943481 0 7.415222.615749 2.468685 1.847247 4.940426 1.231498 7.412166-.615749 2.471741-3.081792 4.943481-7.398131 10.501079-4.31329 5.560652-10.473827 14.210216-13.555619 19.770869-3.084841 5.557597-3.084841 8.029338-2.466044 9.883907.615749 1.851514 1.847247 3.088912 3.078745 4.323254 1.234545 1.237398 2.469091 2.471741 3.700589 4.323255 1.234546 1.854569 2.466044 4.32631 2.466044 8.649564 0 4.323255-1.231498 10.504134-2.466044 15.44456-1.231498 4.943481-2.466044 8.649564-3.700589 11.738476-1.231498 3.088912-2.462996 5.560653-3.697542 8.029338-1.231497 2.471741-2.462995 4.943481-4.929039 8.649564-2.462995 3.706084-6.163585 8.649565-8.013879 11.738477-1.847247 3.088912-1.847247 4.323254-.615749 5.557597 1.234546 1.237398 3.700589 2.474796 6.166633 4.32631 2.462995 1.851514 4.929039 4.323254 6.776285 6.177823 1.850295 1.851514 3.081793 3.088912 3.081793 4.943482 0 1.851514-1.231498 4.323254-3.081793 12.972819-1.847246 8.646509-4.31329 23.473897-6.163585 30.886063-1.847246 7.415222-3.078744 7.415222-6.163584 8.649565-3.078745 1.234342-8.01388 3.706083-10.476876 6.177823-2.466043 2.471741-2.466043 4.943482-2.466043 8.032393 0 3.085857 0 6.794996-.615749 8.649565-.615749 1.851514-1.847247 1.851514-5.547836 2.468685-3.694493.617171-9.861126 1.854569-13.558668 2.471741-3.697541.617171-4.932087.617171-6.163585 2.468685-1.231497 1.857625-2.462995 5.563708-4.9290385 9.886962-2.4690919 4.323255-6.1666332 9.266736-8.6296286 12.355648-2.4660436 3.085857-3.6975413 4.323255-3.6975413 5.557597" transform="translate(283.513 114.193)"/><path d="m361.249938 1159.22881c3.642984 18.40652 1.807774 33.12807 1.499873 42.34659-.307901 9.25206.923702 12.95228 2.771107 15.42011 1.850453 2.46783 4.316708 3.70022 5.55136 4.93565 1.231603 1.23239 1.231603 2.46478-1.542553 5.85995-2.774155 3.39212-8.322466 8.94092-8.322466 12.64114 0 7.40348-1.847405 16.65555-2.155306 23.13169-.307901 6.47615.923702 10.17636.923702 15.10897 0 4.93566-1.231603 11.1037-1.847404 14.80697-.618851 3.70021-.618851 4.9326-1.542553 5.5488-.923702.61619-2.774156.61619-4.008807-.6162-1.231603-1.23239-1.847405-3.70021-2.155306-6.78729-.307901-3.08097-.307901-6.78119-11.401475-10.48445-7.398764-7.40044-9.246169-9.24902-10.788721-10.17636-1.542553-.92429-2.774156-.92429-3.697858.92734-.926751 1.84858-1.542553 5.5488-1.847405 8.94092-.310949 3.39517-.310949 6.47614-1.542553 8.01968-1.234651 1.54048-3.697858 1.54048-5.548311-1.23239-1.850453-2.77593-3.082056-8.32778-6.472014-14.18772-3.389957-5.8569-8.935219-12.028-12.947075-16.96365-4.002711-4.93261-6.468965-8.63283-7.700569-11.10065-1.231603-2.46478-1.231603-3.70327-.61885-6.78424.61885-3.08403 1.850454-8.01663 3.085105-12.33609 1.231603-4.31642 2.463207-8.01663 3.079008-10.79256.615802-2.77897.615802-4.62756-3.079008-12.02799-14.797529-22.20435-20.342792-31.45642-23.116947-36.70017-2.774156-5.24376-2.774156-6.47615-4.005759-7.70854-1.234652-1.23543-3.700907-2.46782-12.328226-9.56016-8.630368-7.09234-23.424848-20.04462-41.914138-38.55181-3.700907-3.70021-7.398765-5.5488-10.480821-7.09233-3.082057-1.54049-5.548311-2.77288-7.395716-4.00527-1.850453-1.23544-3.082057-2.47088-4.316708-4.32251-1.231603-1.84858-2.463207-4.31641-3.697858-6.165-1.231603-1.84858-2.466255-3.08402-3.697858-2.47087-1.231603.62229-2.466255 3.08707-3.697858 4.9387-1.234652 1.84859-2.466255 3.08098-4.31366 3.08098-1.850453 0-4.316708-1.23239-8.014566-3.08098-3.697858-1.85163-8.630368-4.31641-12.944027-6.78729-4.31366-2.46783-8.014567-4.9326-10.477773-6.63171-2.466255-1.69301-3.700906-2.6173-5.548311-3.08403-1.850453-.46062-4.316708-.46062-7.398765-1.53743-3.079008-1.08292-6.779914-3.2396-8.630367-4.78313-1.847405-1.54049-1.847405-2.46478-1.847405-3.23655s0-1.38796 1.542552-.61925c1.539504.77177 4.621561 2.92845 6.472014 4.01137 1.847405 1.07681 2.463206 1.07681 2.926582.61619.463375-.46367.771276-1.38796.155474-2.62035-.61885-1.23544-2.158354-2.77592-4.161233-4.78313-2.002879-2.00416-4.469134-4.46894-6.935389-6.93676-2.466255-2.46783-4.929461-4.93261-9.246169-9.86827-4.31366-4.93565-10.4777729-12.33609-14.1786794-17.88794-3.6948095-5.55185-4.9294612-9.25206-4.0057588-11.71989.9267509-2.46478 4.0057588-3.69717 5.8562121-4.31946 1.8504532-.6162 2.4662548-.6162 2.7741556-1.53744.3109493-.92734.3109493-2.77898-.9237024-5.85995-1.2346517-3.08402-3.7009065-7.403482-6.1641128-10.792551-2.4662549-3.395171-4.9294612-5.859948-10.7856733-16.347455-5.8562121-10.484457-15.1023814-28.988592-26.1990039-51.192944-14.7944806-18.504136-27.7385079-31.45642-35.4421247-39.168002-7.7036168-7.708531-10.16987169-10.176359-11.40452337-16.341354-1.23160317-6.171096-1.23160317-16.039358-1.84740475-21.588158-.61580158-5.554901-1.85045327-6.78729-3.08205643-8.019679-1.23465169-1.235439-2.46625485-2.467828-2.46625485-4.316411 0-1.851634 1.23160316-4.316412 3.08205643-11.103702s4.3136596-17.88489 6.16411286-28.372397c1.54560101-8.767043 2.66136031-17.09787 3.70700361-24.281721 9.2949456-1.604545 12.3465168-.122018 15.4011366 1.153077 3.697858 1.540486 7.3987645 2.772875 10.4777724 4.008314 3.0820565 1.232389 5.5483113 2.464778 7.3987646 2.464778 1.8474047 0 3.0820564-1.232389 4.3136596-3.084023 1.2316031-1.848583 2.4662548-4.316411 3.697858-6.164994 1.2346517-1.848584 2.4662548-3.084023 3.697858-3.703268 1.2346517-.613144 2.4662548-.613144 3.7009065 0 1.2316032.619245 2.4632064 1.854684 3.697858 2.470879 1.2316032.616194 2.4632064.616194 3.0820565 0 .6158016-.616195.6158016-1.851634 0-3.703268-.6188501-1.851633-1.8504533-4.316411-1.2346517-6.168045.6158016-1.848583 3.0820564-3.080972 6.1671614-6.164994 3.0790079-3.087073 6.7768659-8.019679 10.4777724-11.103702 3.697858-3.084022 7.3957161-4.319462 10.4777725-6.168045 3.0820564-1.851634 5.5483113-4.316411 8.0115173-5.551851 2.466255-1.232388 4.93251-1.232388 7.398765-1.232388s4.929461 0 8.011517.616194c3.082057.616194 6.782963 1.851634 8.630368 1.851634 1.850453 0 1.850453-1.23544 3.082057-1.851634 1.231603-.616194 3.697858-.616194 6.164112-1.232389 2.466255-.619245 4.93251-1.851634 6.779915-2.467828 1.847405-.619245 3.082056-.619245 3.697858 0 .61885.616194.61885 1.848583 3.082056 4.316411 2.466255 2.467829 7.395716 6.168046 10.480821 9.252068 3.079008 3.084023 4.31366 5.551851 6.164113 7.400434 1.847405 1.851634 4.31366 3.084023 6.164113 4.316411 1.847405 1.23544 3.079008 2.467829 3.69481 3.703268.61885 1.235439.61885 2.467828 0 3.700217-.615802 1.235439-1.847405 2.467828-3.079008 3.700217-1.234652 1.232389-2.466255 2.470879-2.466255 3.703267 0 1.232389 1.231603 2.467828 3.082056 5.548801 1.847405 3.084022 4.31366 8.016628 6.164113 11.719895 1.847405 3.700217 3.082057 6.171096 4.31366 8.632823 1.234651 2.470879 2.466255 4.935656 3.082056 6.78729.615802 1.848583.615802 3.084023 1.850453 3.700217 1.231604.616195 3.697858.616195 4.929462 0 1.234651-.616194 1.234651-1.851634 1.850453-1.851634.615801 0 1.850453 1.23544 2.466255 1.23544.615801 0 .615801-1.23544.615801-2.467828 0-1.232389 0-2.467829 1.231603-4.316412 1.234652-1.851634 3.700907-4.319462 4.93251-4.935656 1.231603-.613144 1.231603.616194 1.231603 1.848583v3.703268c0 1.232388 0 2.467828 2.774156 3.084022 2.423575.539933 6.968923.607043 15.486495.616195.26827-.84498.551783-1.674707.847489-2.467829 1.850454-4.935656 4.316709-8.635873 6.164113-12.952284 1.850454-4.319462 3.082057-9.252068 6.779915-12.952285 3.700906-3.700217 9.861971-6.164994 16.029132-9.252068 6.161064-3.084022 12.328226-6.784239 16.026084-10.487507 3.697858-3.697166 4.929461-7.397383 7.392667-11.0976 2.469304-3.703267 6.167162-7.403484 11.099671-11.103701 4.929462-3.703268 11.093574-7.403485 16.023036-10.484457 4.932509-3.084022 8.633416-5.551851 11.404523-7.711582 2.551613-1.982803 4.319757-3.709368 10.334492-12.59843.746888.210482 1.502922.411813 2.304683.570437 3.079008.616195 6.776866.616195 13.24888.616195h28.046408c0 1.232389 1.234652 2.467828 2.466255 3.703267 1.231603 1.232389 2.466255 2.467828 3.082057 3.700217.615801 1.232389.615801 2.464778-.615802 3.084023-1.234652.616194-3.697858.616194-6.167161 1.232389-2.463207.616194-4.929462 1.851633-7.395716 2.464777-2.463207.622296-4.929462.622296-6.164113 1.23544-1.231604.619245-1.231604 1.851633-1.231604 3.703267 0 1.848583 0 4.316412.618851 6.164995.612753 1.851633 1.847404 3.084022 4.929461 3.703267 3.082056.616195 8.011517.616195 11.712424 1.232389 3.697858.616194 6.161064 1.851634 6.776866 3.700217.615801 1.851634-.615802 4.316411-1.228555 7.400434-.588365 2.949802-.61885 6.46089.457279 9.459499-3.609451 1.232389-6.21289 1.644202-9.090695 2.879642-4.31366 1.848583-9.243121 5.5488-12.944027 8.016628-3.697858 2.464778-6.164113 3.703268-8.62732 6.168045-2.466254 2.467828-4.929461 6.168045-7.395716 9.249017-2.469303 3.084023-4.932509 5.554902-6.782963 8.019679-1.847404 2.467828-3.082056 4.938707-4.316708 8.019679-1.231603 3.084023-2.463206 6.78424-3.079008 9.868262-.61885 3.080972-.61885 5.551851-1.234651 13.57153-.615802 8.016628-1.847405 21.585107-2.463207 30.837175-.615801 9.252067-.615801 14.187724-1.234651 17.268696-.615802 3.087073-1.847405 4.316411-3.079008 5.554901l-3.697858 3.700217c-1.234652 1.232389-2.469304 2.464778-3.700907 4.316411-1.231603 1.851634-2.466255 4.319462-3.082056 6.78424-.615802 2.467828-.615802 4.932606 0 7.400434.615801 2.470879 1.850453 4.935656 3.082056 6.78729 1.231603 1.848583 2.466255 3.080972 3.700907 7.400434 1.231603 4.316411 2.463206 11.716845 3.697858 16.036307 1.231603 4.316411 2.463206 5.551851 6.161064 8.632823 3.697858 3.084022 9.86502 8.019679 12.944027 11.719896 3.085105 3.703267 3.085105 6.171095 3.085105 9.868262 0 3.700217 0 8.638923-.61885 12.33609-.615801 3.700217-1.850453 6.171096-3.697858 8.016628-1.847404 1.854685-4.313659 3.087073-10.480821 5.554902-6.161064 2.464777-16.023035 6.164994-20.958593 9.252067-4.929461 3.084023-4.929461 5.5488-6.161064 11.100651-1.231604 5.551854-3.697858 14.187724-6.161065 21.588154-2.466255 7.40044-4.935558 13.57153-6.167161 18.50414s-1.231603 8.63282-.615802 11.7199c.615802 3.08402 1.847405 5.5488 4.316708 12.33303 2.466255 6.78424 6.161065 17.88795 8.011518 25.90762 1.847405 8.01663 1.847405 12.95229 1.847405 17.2687s0 8.01663.615801 10.48751c.61885 2.46478 1.850454 3.70021 4.31366 4.31641 2.469303.61619 6.167161.61619 8.014566 1.84858 1.853502 1.23239 1.853502 3.70327 1.853502 6.78729 0 3.08097 0 6.78119.612753 9.24902.61885 2.47088 1.850453 3.70327 3.700906 5.55185 1.847405 1.85163 4.31366 4.31641 6.776866 5.55185 2.466255 1.23544 4.93251 1.23544 8.014566 2.46783 3.082057 1.23239 6.782963 3.70022 10.480821 4.93261 3.697858 1.23543 7.395716 1.23543 13.86773 1.23543 1.457194 0 3.063765 0 4.66424.21049z"/><path d="m94.2770004.01308658c-3.644619 1.23527494-6.2681296 1.64805246-9.1715224 2.88638502-4.3520134 1.85597003-9.3283794 5.56485248-13.0621916 8.0354024-3.7276611 2.4736075-6.215844 3.71194-8.704027 6.1855475-2.4851073 2.4705499-4.9732903 6.1794324-7.4583976 9.2706774-2.4912586 3.0912449-4.9794416 5.5648524-6.8432721 8.0384599-1.8638305 2.4705499-3.1125354 4.947215-4.3550891 8.03846s-2.488183 6.7970698-3.1094598 9.8883148-.6212768 5.5648525-1.2425537 13.6033125c-.6212768 8.0354023-1.8638305 21.6387148-2.4881829 30.9124497-.6212769 9.2737352-.6212769 14.2178922-1.2425537 17.3091372-.6212768 3.094303-1.8638305 4.32652-3.1094598 5.564853l-3.7307366 3.708882c-1.2456293 1.235275-2.488183 2.473608-3.7307367 4.32652-1.2456293 1.859028-2.4881829 4.329578-3.1094598 6.803185-.6212768 2.47055-.6212768 4.944157 0 7.417765.6212769 2.473607 1.8638305 4.947215 3.1094598 6.800127 1.2425537 1.85597 2.4851074 3.091245 3.7307367 7.420823 1.2456293 4.32652 2.4881829 11.744285 3.7307366 16.073862 1.2456293 4.32652 2.488183 5.561795 6.2189196 8.65304s9.9496562 8.03846 13.059116 11.747342c3.1125355 3.708883 3.1125355 6.18249 3.1125355 9.891373 0 3.708882 0 8.656097-.6274281 12.36498-.6212769 3.708882-1.8638305 6.18249-3.727661 8.035402-1.8669062 1.85597-4.3520135 3.094303-10.5740087 5.564853-6.215844 2.473607-16.1685759 6.18249-21.1449418 9.273735-4.9732903 3.091245-4.9732903 5.564852-6.215844 11.126647-1.2456293 5.564852-3.73073662 14.22095-6.21891958 21.638715-2.48510734 7.420822-4.97636594 13.603312-6.2189196 18.550527-1.2456293 4.944158-1.2456293 8.65304-.62127684 11.744285.62127684 3.091245 1.8638305 5.564853 4.3550891 12.361922 2.48510734 6.803185 6.21584402 17.93289 8.07967452 25.968293 1.8669061 8.035402 1.8669061 12.985675 1.8669061 17.312195s0 8.035402.6212768 10.50901c.6212769 2.473607 1.8669062 3.708882 4.3520135 4.326519 2.4912586.617638 6.2219952.617638 8.0858257 1.85597 1.8669062 1.235275 1.8669062 3.708883 1.8669062 6.800128s0 6.800127.6212768 9.270677c.6243525 2.476665 1.8669061 3.71194 3.7307366 5.56791 1.8669062 1.852913 4.3550891 4.32652 6.8401965 5.561795 2.4881829 1.238333 4.9732903 1.238333 8.0858257 2.476665 3.1094598 1.235275 6.8432721 3.708883 10.5740087 4.944158 3.727661 1.235275 7.4583977 1.235275 13.9879557 1.235275 1.4732257 0 3.091006 0 4.7087863.210975" transform="translate(283.513 750.127)"/><path d="m.84875805 229.079743c1.34835122-2.090086 2.32063169-3.214809 3.19507262-4.440665 1.54403031-2.166702 2.78231205-4.649061 4.0175363-4.649061 1.23828173 0 2.47350593 2.482359 5.56462413 4.336467 3.0911181 1.863302 8.03813 3.101417 12.9820845 3.101417s9.8909665-1.238115 12.9820846-.619057c3.0911181.619057 4.3263423 3.098352 6.8029058 4.336467 2.4704485 1.238115 6.1791787 1.238115 9.887909.619057 3.7117877-.619057 7.4205179-1.857172 10.511636-2.479294 3.0911181-.619058 5.5646241-.619058 6.7998484-1.238115 1.2352242-.619058 1.2352242-1.857173 1.8528363-3.720475.6206696-1.854108 1.8558939-4.336467 3.7117877-6.19364 1.8528364-1.860237 4.3263424-3.098352 6.1822363-3.098352 1.8528363 0 3.0911181 1.238115 4.3263423 1.857173 1.2352243.622122 2.473506.622122 3.0911181 0 .6176121-.619058.6176121-1.857173.6176121-4.336468 0-2.479294 0-6.196704.6176122-9.295056.6206696-3.098353 1.8558938-5.574583 3.0941756-6.812698 1.2352242-1.244244 2.4704485-1.244244 4.943954-1.863302 2.470449-.619057 6.182237-1.857172 8.655743-3.098352 2.470448-1.238115 3.70873-2.47623 4.326342-3.714345.617612-1.24118.617612-2.479295.617612-4.958589 0-2.479295 0-6.196705.617612-8.056942.617612-1.857173 1.855894-1.857173 5.564624-5.577647 3.708731-3.71741 9.890967-11.152229 17.311485-18.587049 7.41746-7.437884 16.070145-14.872703 21.017157-20.45035s6.182236-9.295057 7.41746-14.253647c1.238282-4.955524 2.473506-11.152229 4.3294-16.1077537 1.852837-4.9616541 4.326343-8.6759992 6.182236-13.0155311 1.852837-4.3395319 3.091119-9.2950567 6.799849-13.0124665 3.70873-3.7143451 9.890966-6.1936398 16.073202-9.2950567 6.182237-3.0983523 12.364473-6.8126974 16.073203-10.5331718 3.711788-3.7174097 4.943955-7.4348195 7.417461-11.1522293 2.476563-3.7204744 6.182236-7.4378841 11.132305-11.1552939 4.943955-3.7174097 11.123133-7.4348195 16.067088-10.5331717 4.950069-3.0983523 8.6588-5.5745824 11.441112-7.7443483 2.559115-1.9950814 4.332457-3.72660371 10.361819-12.65696813" transform="translate(53.159 696.969)"/><path d="m.27857359 168.963361c2.08807723-2.151076 3.39236008-3.701568 4.53131129-5.748461 1.5461569-2.788433 2.78614411-6.508386 4.02306963-10.225275 1.23692549-3.716889 2.47691269-7.433778 3.09537549-10.531697.6184627-3.097918.6184627-5.576865 1.2369255-8.052748.6215245-2.482012 1.85845-4.957895 2.4769127-7.436843.6184628-2.478947.6184628-4.95483 0-6.817871-.6184627-1.853848-1.8553882-3.09179-3.0953755-4.33586-1.2369255-1.237942-2.4769127-2.475883-3.09537544-4.33586-.61846275-1.856912-.61846275-4.338924-.61846275-6.814807v-7.4337783-14.2516496-34.6960714c0-9.2937547 0-11.7727021.61846275-13.0106437.61846274-1.2379416 1.85844994-1.2379416 3.71383824-1.8569124 1.85845-.6189708 4.3353627-1.8599767 6.8122754-2.4789475 2.4738511-.6189708 4.9507638-.6189708 8.664602-.6189708 3.7169 0 8.6676637 0 11.1445765-.6189708 2.473851-.6189708 2.473851-1.8599766 4.9507637-3.7199532 2.4769128-1.8599767 7.4307382-4.3358599 9.9045892-7.4337781 2.4769128-3.1009825 2.4769128-6.8148073 3.0984372-9.29375473.6184628-2.47894744 1.8553883-3.71688905 3.7107766-4.33585985 1.8584499-.61897081 4.3353627-.61897081 6.1907509-.61897081 1.85845 0 3.0984372 0 4.9538255.61897081 1.85845.6189708 4.3353627 1.85691241 6.8092137 1.23794161 2.4769128-.61897081 4.9538255-3.09791824 6.8092138-4.33585985 1.8584499-1.24100582 3.0984371-1.24100582 4.3353627-1.24100582 1.2369255 0 2.473851 0 3.0953754.61897081.6184628.62203501.6184628 1.85997662 1.8553883 3.71995325 1.2399872 1.85691241 3.7138383 4.33585985 6.1938126 5.57380148 2.473851 1.2410058 4.950764 1.2410058 6.187689.6189708 1.239988-.6189708 1.239988-1.85691243 2.476913-3.09485404 1.236926-1.24100583 3.713838-2.47894744 6.190751-2.47894744s4.953826 1.23794161 7.427677 3.09791824c2.473851 1.85691244 4.953825 4.33585984 6.809213 6.19583644 1.85845 1.8569124 3.095376 3.0979183 3.713839 3.0979183.621524 0 .621524-1.2410059 1.861511-3.0979183 1.236926-1.8599766 3.713838-4.338924 6.187689-6.81480724 2.476913-2.47894744 4.950764-4.95789487 7.427677-6.19583648 2.476913-1.24100582 4.953825-1.24100582 6.193813-.3094854.998113.74766771 1.191 2.10204937 9.013635 4.54729047" transform="translate(153.57 917.479)"/></g></g></g><g fill-rule="nonzero"><path d="m174.36 122.704v-4.608h-18.528c-.384-1.392-.816-2.688-1.2-3.84l-5.616.96c.48.864.912 1.824 1.344 2.88h-18.768v4.608zm-7.296 12.144v-10.176h-28.08v10.176zm-4.8-3.744h-18.48v-2.688h18.48zm-23.904 27.888v-17.904h29.28v11.76c0 1.152-.864 1.728-2.544 1.728l-3.696-.144 1.2 4.416h3.936c3.888 0 5.856-1.68 5.856-4.992v-17.088h-38.784v22.224zm24.576-5.616v-10.368h-19.776v10.368zm-4.416-3.696h-10.944v-2.976h10.944zm50.848 9.216v-2.592h17.424v-4.56h-7.344v-5.808h5.76v-4.512h-5.76v-4.992h5.664v-4.512h-5.664v-5.04h6.624v-4.608h-6c-.576-2.4-1.392-4.992-2.4-7.824l-4.848 1.296c.96 2.112 1.776 4.32 2.496 6.528h-6.048c.672-2.064 1.2-4.176 1.68-6.336l-4.704-.912c-1.152 6.288-3.12 12.096-5.904 17.376l1.632 5.28c.96-1.44 1.824-2.976 2.688-4.512v25.728zm-23.568-14.16c3.84-5.664 6.576-11.904 8.112-18.72h8.112v-4.368h-7.296c.288-2.016.528-4.128.624-6.24l-4.32-.576c-.144 2.304-.432 4.56-.816 6.816h-6.528v4.368h5.568c-1.44 5.568-3.696 10.8-6.816 15.744zm28.944-12.816h-5.376v-5.04h5.376zm-14.88 25.584 4.224-1.104c-1.056-5.52-2.304-10.416-3.648-14.688l-4.032 1.392c.672 2.208 1.296 4.464 1.872 6.864-2.4.576-4.8 1.104-7.2 1.488 2.208-3.744 4.944-9.888 8.256-18.336l-4.368-1.632c-3.696 10.176-6.528 16.608-8.496 19.392-.576.576-1.296 1.008-2.16 1.392l1.344 4.368c4.224-.48 8.736-1.392 13.536-2.64.192 1.104.432 2.256.672 3.504zm14.88-16.08h-5.376v-4.992h5.376zm0 10.32h-5.376v-5.808h5.376z" fill="#173e6f" mask="url(#b)"/><g mask="url(#b)"><g transform="translate(148 27)"><path d="m32.9998182 0c18.225669 0 33.0001818 14.998369 33.0001818 33.4998154 0 17.6532127-13.4503004 32.1169864-30.5152435 33.4066383l-2.8562205 5.0143906c-.0600993.1055409-.1969727.1055409-.2567246 0l-2.9126288-5.1114072c-16.5603586-1.7932404-29.4591826-16.0220967-29.4591826-33.3096217 0-18.5014464 14.7745128-33.4998154 32.9998182-33.4998154z" fill="#fff"/><path d="m49.3576534 44.1802628c1.3263196.526281 1.9823487 2.0488431 1.4660092 3.4003266-2.8826516 7.5446028-9.8788321 12.4194106-17.823951 12.4194106-7.9447532 0-14.9409337-4.8751805-17.8232196-12.4197833-.5167052-1.3514835.1396896-2.8740456 1.4656435-3.4003266 1.3259539-.5266537 2.8197547.1423791 3.3360942 1.4938627 2.1059484 5.5125321 7.217051 9.0735011 13.0214819 9.0735011 5.8047967 0 10.9158993-3.560969 13.0218476-9.0731284.5159738-1.3514835 2.0094089-2.0208891 3.3360942-1.4938627zm-6.8576534-21.1802628c4.6869541 0 8.5 3.8131292 8.5 8.5001856s-3.8130459 8.4998144-8.5 8.4998144-8.5-3.812758-8.5-8.4998144 3.8130459-8.5001856 8.5-8.5001856zm-19.1017363-11.999437c4.5980403-.0526673 8.377807 3.5964734 8.5856631 8.1693165.0087672.1922539-.1446591.3535703-.3357114.3535703h-4.5143864c-.1727872 0-.3126974-.134062-.3305972-.3071642-.1731525-1.6702516-1.5675054-2.9799351-3.2643273-3.0012966-1.8513441-.0232031-3.3666115 1.5509216-3.3666115 3.418215v11.800042c0 1.8289899 1.4604723 3.3202465 3.2672497 3.3515522 1.8601113.031674 3.3826848-1.5431872 3.3826848-3.4185833v-3.2856261h-3.0356491c-.1852074 0-.335346-.1513723-.335346-.3381016v-3.9850325c0-.1867293.1501386-.3381016.335346-.3381016h8.0457486c.0927864 0 .167673.075502.167673.1690508v4.4921849h-.0058448v3.3526572c0 4.7514698-3.8572104 8.6123843-8.5809141 8.5663465-4.6776759-.0456695-8.4132411-3.958883-8.4132411-8.6757324v-11.6483013c0-4.71022 3.7264327-8.6208553 8.3982637-8.6749958zm19.1017363 16.999437c-1.9298616 0-3.5 1.5699345-3.5 3.5s1.5701384 3.5 3.5 3.5 3.5-1.5699345 3.5-3.5-1.5701384-3.5-3.5-3.5z" fill="#06f3f9"/></g></g></g></g></svg>