<svg xmlns="http://www.w3.org/2000/svg" xmlns:xlink="http://www.w3.org/1999/xlink" width="362" height="200" viewBox="0 0 362 200">
  <defs>
    <rect id="img-location-yunlin-ch-a" width="362" height="200" x="0" y="0" rx="20"/>
  </defs>
  <g fill="none" fill-rule="evenodd">
    <mask id="img-location-yunlin-ch-b" fill="#fff">
      <use xlink:href="#img-location-yunlin-ch-a"/>
    </mask>
    <use fill="#06F3F9" xlink:href="#img-location-yunlin-ch-a"/>
    <g mask="url(#img-location-yunlin-ch-b)" opacity=".6">
      <g transform="translate(59 -516)">
        <path fill="#FFF" d="M54.332114,925.18472 C65.4470971,947.42987 74.7085652,965.968005 80.574467,976.471725 C86.4403688,986.978502 88.9076508,989.447808 91.3779863,992.849217 C93.8452683,996.244513 96.3186574,1000.57191 97.5522984,1003.6616 C98.7889929,1006.74823 98.7889929,1008.60327 98.4775291,1009.53232 C98.1691189,1010.45525 97.5522984,1010.45525 95.6987834,1011.07258 C93.8452683,1011.69601 90.7611658,1012.93067 89.8328815,1015.40303 C88.9076508,1017.87234 90.1443454,1021.57935 93.8452683,1027.1414 C97.5522984,1032.70346 103.72661,1040.11749 108.047407,1045.06221 C112.371258,1050.00694 114.83854,1052.47624 117.308876,1054.94861 C119.779211,1057.42097 122.249547,1059.89028 124.25574,1061.89811 C126.261933,1063.90901 127.807038,1065.45233 128.423859,1066.69004 C129.040679,1067.92469 128.732269,1068.85068 128.268127,1069.3152 C127.807038,1069.77667 127.187164,1069.77667 125.336703,1068.69788 C123.483188,1067.61297 120.396032,1065.45233 118.85398,1064.6822 C117.308876,1063.90901 117.308876,1064.52634 117.308876,1065.29952 C117.308876,1066.07271 117.308876,1066.9987 119.159337,1068.54202 C121.012852,1070.08839 124.719882,1072.24903 127.807038,1073.33394 C130.891141,1074.41273 133.361476,1074.41273 135.214991,1074.8742 C137.065453,1075.34178 138.302147,1076.26777 140.772483,1077.96389 C143.239765,1079.66612 146.946795,1082.13543 151.267592,1084.60779 C155.588389,1087.08321 160.52906,1089.55251 164.233036,1091.40755 C167.937013,1093.25953 170.407349,1094.49418 172.260864,1094.49418 C174.111325,1094.49418 175.344966,1093.25953 176.581661,1091.40755 C177.815302,1089.55251 179.051996,1087.08321 180.285637,1086.45977 C181.519278,1085.8455 182.755973,1087.08321 183.989614,1088.93519 C185.226308,1090.78717 186.459949,1093.25953 187.69359,1095.11456 C188.930285,1096.96654 190.163926,1098.20425 192.017441,1099.44196 C193.867902,1100.67662 196.338238,1101.91127 199.425394,1103.45459 C202.51255,1105.00096 206.216526,1106.85294 209.923556,1110.55995 C228.446493,1129.10115 243.262399,1142.07723 251.907046,1149.1826 C260.54864,1156.28796 263.018976,1157.52262 264.25567,1158.76033 C265.489311,1159.99498 265.489311,1161.22963 268.271111,1166.48302 C271.046803,1171.73641 276.601241,1181.00548 291.423254,1203.25063 C295.124177,1210.66466 295.124177,1212.5197 294.507357,1215.30072 C293.890536,1218.08175 292.656895,1221.78876 291.423254,1226.1131 C290.18656,1230.4405 288.952919,1235.38217 288.333045,1238.47186 C287.719278,1241.55849 287.719278,1242.79926 288.952919,1245.26857 C290.18656,1247.74093 292.656895,1251.44794 296.666228,1256.38961 C300.684722,1261.33434 306.23916,1267.51677 309.634727,1273.38749 C313.030293,1279.25515 314.263934,1284.8172 316.117449,1287.59822 C317.970964,1290.37619 320.438246,1290.37619 321.67494,1288.83288 C322.908581,1287.2865 322.908581,1284.19987 323.220045,1280.79846 C323.525402,1277.40011 324.142222,1273.69309 325.070507,1271.84111 C325.995737,1269.98608 327.229378,1269.98608 328.774483,1270.91207 C330.319588,1271.84111 332.17005,1273.69309 339.581056,1281.10713 C350.692986,1284.8172 350.692986,1288.52421 351.001396,1291.61085 C351.309806,1294.70359 351.926627,1297.17595 353.160268,1298.41061 C354.396962,1299.64526 356.250477,1299.64526 357.175708,1299.02793 C358.100939,1298.41061 358.100939,1297.17595 358.720813,1293.46894 C359.337633,1289.75887 360.571274,1283.57949 360.571274,1278.63476 C360.571274,1273.69309 359.337633,1269.98608 359.646044,1263.49804 C359.954454,1257.01 361.804915,1247.74093 361.804915,1240.32384 C361.804915,1236.61683 367.362407,1231.05783 370.141153,1227.65948 C372.919898,1224.25807 372.919898,1223.02342 371.686257,1221.78876 C370.449563,1220.55105 367.979227,1219.3164 366.125712,1216.84404 C364.275251,1214.37167 363.04161,1210.66466 363.35002,1201.39559 C363.65843,1192.12652 365.511945,1177.29846 361.804915,1158.76033 C358.100939,1147.63622 359.954454,1140.22219 360.882738,1132.80816 C361.804915,1125.39413 361.804915,1117.97704 363.65843,1112.41805 C365.511945,1106.85294 369.212868,1103.14592 372.303078,1097.58387 C375.390234,1092.02488 377.857516,1084.60779 378.474336,1079.04879 C379.091157,1073.48369 377.857516,1069.77667 379.091157,1063.60035 C380.327851,1057.42097 384.034882,1048.76617 385.885343,1041.97252 C387.738858,1035.17582 387.738858,1030.23109 390.822961,1023.43133 C393.910117,1016.63768 400.084429,1007.98594 412.433053,993.154824 C424.781677,978.326761 443.304613,957.316264 453.182902,945.574834 C463.064244,933.833404 464.297885,931.361042 464.297885,928.891736 C464.297885,926.419373 463.064244,923.950067 462.44437,920.857321 C461.827549,917.767632 461.827549,914.060617 464.297885,912.208637 C466.765167,910.353601 471.708891,910.353601 475.409814,910.353601 C479.113791,910.353601 481.58718,910.353601 483.437641,909.118948 C485.291156,907.881238 486.524797,905.408876 492.079235,895.525538 C497.639781,885.639144 507.515016,868.332606 516.159663,854.742253 C524.804311,841.145787 532.212264,831.262449 534.682599,824.462688 C537.152935,817.662927 534.682599,813.955912 533.445905,810.251952 C532.212264,806.544936 532.212264,802.834865 531.595443,798.510522 C530.978623,794.18618 529.741928,789.244511 530.361802,785.534439 C530.978623,781.827423 533.445905,779.352005 537.769755,768.234014 C542.090552,757.109911 548.267918,737.334067 551.355074,725.595693 C554.439177,713.857319 554.439177,710.147247 553.822356,706.440232 C553.205536,702.733216 551.971895,699.023144 551.971895,696.550782 C551.971895,694.081475 553.205536,692.846822 554.439177,690.991786 C555.675871,689.139806 556.909512,686.667444 557.529386,684.195081 C558.143153,681.722719 558.143153,679.250356 556.292692,675.234677 C554.439177,671.215942 550.7352,665.656947 550.7352,661.949931 C550.7352,654.532843 554.439177,652.680863 556.292692,649.899838 C558.143153,647.118812 558.143153,643.411796 559.999722,631.670366 C561.84713,619.928936 565.55416,600.159205 568.024495,583.47305 C570.494831,566.789951 571.728472,553.193485 572.965166,543.307091 C574.198807,533.420697 575.432448,527.241319 576.669143,520.444614 C577.902784,513.647909 579.136425,506.233878 581.60676,499.437173 C584.074042,492.637412 587.778019,486.458034 589.634587,482.751018 C591.485049,479.044003 591.485049,477.806293 590.868228,475.336987 C590.251408,472.864624 589.017767,469.157609 588.397893,465.447537 C587.778019,461.743577 587.778019,458.036562 588.397893,454.32649 C589.017767,450.619474 590.251408,446.912458 592.101869,441.967733 C593.955384,437.026064 596.422666,430.846686 597.659361,427.136614 C598.893002,423.429599 598.893002,422.194945 597.659361,419.105256 C596.422666,416.015567 593.955384,411.070842 593.338564,408.601536 C592.71869,406.129173 593.955384,406.129173 600.126643,401.804831 C606.304009,397.477433 617.415938,388.828748 622.97343,383.884023 C628.530921,378.939298 628.530921,377.704645 627.914101,374.614956 C627.29728,371.525266 626.060586,366.580541 626.060586,362.873526 C626.060586,359.16651 627.29728,356.694147 629.147742,352.369805 C631.001257,348.042407 633.468539,341.863028 637.172515,335.68365 C640.879545,329.507328 645.817163,323.32795 648.287498,317.765898 C650.75478,312.203847 650.75478,307.262178 651.991475,303.555162 C653.228169,299.84509 655.695451,297.372728 656.932146,293.048385 C658.165787,288.724043 658.165787,282.544665 660.019302,276.982613 C661.872817,271.420562 665.576794,266.478893 667.427255,263.389204 C669.28077,260.299514 669.28077,259.061805 668.66395,258.444479 C668.044076,257.827152 666.810435,257.827152 663.106458,254.120136 C659.399428,250.41312 653.228169,242.996033 649.521139,238.671691 C645.817163,234.347348 644.583522,233.109639 643.966701,231.874986 C643.349881,230.637277 643.349881,229.402623 642.730007,225.695608 C642.113186,221.988592 640.879545,215.809214 640.262725,209.629835 C639.645904,203.450457 639.645904,197.271079 639.02603,193.564063 C638.40921,189.857048 637.172515,188.619338 637.789336,185.529649 C638.40921,182.43996 640.879545,177.498291 642.730007,173.170893 C644.583522,168.84655 645.817163,165.139535 647.670678,160.19481 C649.521139,155.250085 651.991475,149.073762 656.315325,142.274002 C660.639176,135.477297 666.810435,128.063265 671.131232,123.121596 C675.452029,118.176871 677.925418,115.704509 680.3927,114.469856 C682.863035,113.232146 685.333371,113.232146 687.803706,112.61482 C690.270988,111.997493 692.741324,110.76284 693.978018,109.525131 C695.211659,108.290477 695.211659,107.052768 694.594839,105.200788 C693.978018,103.345752 692.741324,100.87339 690.270988,99.0214101 C687.803706,97.1694302 684.096676,95.9317209 681.012574,95.3143943 C677.925418,94.6970677 675.452029,94.6970677 673.601567,92.2247052 C671.748052,89.7523427 670.514411,84.8106738 668.044076,80.4832754 C665.576794,76.1589331 661.872817,72.4519173 657.548966,70.5968814 C653.228169,68.7418455 648.287498,68.7418455 643.966701,68.1245189 C639.645904,67.5071923 635.938874,66.269483 632.234898,65.0348298 C628.530921,63.8001766 624.823891,62.5624673 621.736735,61.3278141 C618.652633,60.0931609 616.182297,58.8554516 612.475267,58.238125 C608.771291,57.6207984 603.833673,57.6207984 599.509822,57.0034718 C595.189025,56.3830891 591.485049,55.1484359 589.017767,53.2964561 C586.544378,51.4414202 585.310737,48.9690577 581.915171,45.8793685 C578.519604,42.7896794 572.965166,39.0826637 569.258136,31.6655762 C550.7352,27.9616166 550.7352,26.1065807 549.501559,22.0909016 C548.267918,18.0721665 545.797582,11.8927883 542.710426,7.56844598 C539.62327,3.24410365 535.91624,0.771741149 530.978623,0.151358469 C526.041005,-0.465968139 519.866693,0.771741149 513.072507,4.47875687 C506.281375,8.18577259 498.873422,14.3651508 492.079235,19.3098758 C485.291156,24.2515448 479.113791,27.9616166 475.409814,32.2859589 C471.708891,36.6103012 470.472197,41.5550262 469.238556,45.2620419 C468.001861,48.9690577 466.765167,51.4414202 465.531526,53.2964561 C464.297885,55.1484359 463.064244,56.3830891 458.740393,58.8554516 C454.416543,61.3278141 447.011643,65.0348298 440.834277,67.5071923 C434.663019,69.9795548 429.725401,71.214208 421.0777,73.0692439 C412.433053,74.9212238 400.084429,77.3935863 393.293296,79.8659488 C386.502163,82.3383113 385.268523,84.8106738 379.091157,89.7523427 C372.919898,94.6970677 361.804915,102.111099 355.016836,106.435441 C348.22265,110.76284 345.755368,111.997493 342.051392,114.469856 C338.344362,116.939162 333.406744,120.649234 328.463019,125.590903 C323.525402,130.535628 318.587784,136.715006 313.650167,143.511711 C308.709496,150.308416 303.768825,157.725503 298.211333,163.904881 C292.656895,170.081204 286.47953,175.025929 283.395427,181.822633 C280.308271,188.619338 280.308271,197.271079 279.691451,204.067784 C279.071577,210.864489 277.834882,215.809214 277.221115,220.133556 C276.601241,224.457898 276.601241,228.16797 275.3676,230.637277 C274.133959,233.109639 271.663623,234.347348 268.576467,238.671691 C265.489311,242.996033 261.785335,250.41312 258.081358,254.737463 C254.377382,259.061805 250.670352,260.299514 246.966375,260.916841 C243.262399,261.534168 239.558422,261.534168 236.471266,263.389204 C233.38411,265.244239 230.913775,268.951255 225.973104,274.510251 C221.035486,280.072302 213.627533,287.486334 209.923556,294.903421 C198.808573,317.148572 191.40062,330.124655 183.989614,342.792074 C176.581661,355.459494 169.170654,367.818251 164.849857,376.469991 C160.52906,385.118676 159.295419,390.063401 156.82203,396.860106 C154.354748,403.656811 150.650771,412.308551 146.326921,419.105256 C142.006124,425.901961 137.065453,430.846686 132.127835,439.495371 C127.187164,448.147112 122.249547,460.505868 118.542517,468.540282 C114.83854,476.57164 112.371258,480.278656 109.284102,484.606054 C106.193892,488.930397 102.489916,493.875122 98.7889929,498.816791 C95.0819629,503.761516 91.3779863,508.703184 87.0571893,515.499889 C82.7333387,522.29965 77.7957212,530.951391 74.3971014,540.834729 C71.0015351,550.724179 69.1510736,561.845226 58.0360905,572.969329 C43.2201844,591.504408 37.6626928,600.776531 32.4136115,610.971588 C27.1675838,621.166646 22.2269127,632.287693 19.1397567,642.177143 C16.0526006,652.063537 14.8189597,660.712222 14.1990856,668.746636 C13.5822651,676.78105 13.5822651,684.195081 14.1990856,690.374459 C14.8189597,696.550782 16.0526006,701.495507 16.6694211,706.440232 C17.2892952,711.381901 17.2892952,716.326626 17.2892952,723.12333 C17.2892952,729.920035 17.2892952,738.571776 16.6694211,745.985807 C16.0526006,753.399839 14.8189597,759.582273 13.5822651,767.613631 C12.3486241,775.644989 11.1149831,785.534439 9.26146809,796.03816 C7.40795304,806.544936 4.94067107,817.662927 3.08715603,824.462688 C1.23364099,831.262449 0,833.731756 0,835.586792 C0,837.438771 1.23364099,838.673425 2.47033554,839.911134 C3.70397652,841.145787 4.94067107,842.38044 5.55749157,847.945548 C6.17431206,853.504544 6.17431206,863.390938 7.40795304,869.573372 C8.6446476,875.749694 11.1149831,878.222057 18.8313464,885.944751 C26.5477097,893.670502 39.5131543,906.646585 54.332114,925.18472" opacity=".801"/>
        <g transform="translate(15.75 326.827)">
          <path stroke="#FFF" stroke-width="7.875" d="M432.554039,0 C430.353712,1.96056769 428.496332,2.88925764 426.332424,3.97272926 C423.26107,5.50537118 419.582729,7.34757642 404.854192,11.028952 C401.169782,14.7103275 401.169782,18.394738 399.943668,21.4600218 C398.717555,24.5283406 396.262293,26.9836026 395.036179,27.5966594 C393.807031,28.2097162 393.807031,26.9836026 392.580917,26.3705459 C391.351769,25.7574891 388.896507,25.7574891 385.215131,26.9836026 C381.533755,28.2097162 376.623231,30.6649782 373.557948,33.1202402 C370.489629,35.5755022 369.263515,38.0277293 368.034367,39.2568777 C366.808253,40.4829913 365.579105,40.4829913 364.349956,40.4829913 C363.123843,40.4829913 361.897729,40.4829913 360.055524,42.3251965 C358.216354,44.1674017 355.761092,47.8487773 353.921921,49.6879476 C352.076681,51.5301528 350.853603,51.5301528 349.627489,51.5301528 L345.330022,51.5301528 C343.487817,51.5301528 341.03559,51.5301528 338.577293,53.3693231 C336.125066,55.2115284 333.669803,58.8929039 331.830633,60.1220524 C329.988428,61.3481659 328.762314,60.1220524 326.917074,59.5059607 C325.080939,58.8929039 322.622642,58.8929039 320.783472,58.2798472 C318.941266,57.6667904 317.715153,56.4406769 317.102096,55.2115284 C316.489039,53.9854148 316.489039,52.7562664 315.875983,52.1432096 C315.262926,51.5301528 314.030742,51.5301528 312.194607,52.1432096 C310.349367,52.7562664 307.89714,53.9854148 306.054934,54.5984716 C304.215764,55.2115284 302.989651,55.2115284 301.14441,54.5984716 C299.308275,53.9854148 296.849978,52.7562664 294.397751,52.1432096 C291.942489,51.5301528 289.484192,51.5301528 287.031965,51.5301528 L280.282271,51.5301528 C278.4431,51.5301528 277.213952,51.5301528 275.987838,50.9170961 C274.761725,50.3010044 273.535611,49.0748908 271.690371,47.2326856 C269.851201,45.3935153 267.395939,42.9382533 265.556769,41.7121397 C263.711528,40.4829913 262.485415,40.4829913 260.030153,40.4829913 C257.577926,40.4829913 253.89655,40.4829913 251.441288,41.099083 C248.986026,41.7121397 247.759913,42.9382533 245.304651,44.1674017 C242.849389,45.3935153 239.168013,46.6196288 235.486638,48.4618341 C231.805262,50.3010044 228.123886,52.7562664 225.052533,53.3693231 C221.987249,53.9854148 219.531987,52.7562664 217.076725,52.1432096 C214.621463,51.5301528 212.166201,51.5301528 208.484825,49.6879476 C204.80345,47.8487773 199.892926,44.1674017 195.598493,41.7121397 C191.304061,39.2568777 187.622686,38.0277293 184.554367,36.188559 C181.483013,34.3463537 179.030786,31.8941266 176.882052,29.745393 C175.191594,28.0549345 173.692336,26.5526419 167.737795,20.6011354 C160.878843,32.2886681 154.198952,43.5118559 150.189803,51.5301528 C145.892336,60.1220524 144.666223,65.0295415 142.210961,71.7792358 C139.755699,78.5289301 136.077358,87.1208297 131.779891,93.870524 C127.482424,100.620218 122.574934,105.530742 117.66441,114.122642 C112.756921,122.714541 107.846397,134.987817 104.165022,142.963624 C100.483646,150.939432 98.0283843,154.623843 94.9600655,158.918275 C91.8917467,163.212707 88.2103712,168.123231 84.5289956,173.033755 C80.8476201,177.941245 77.1632096,182.851769 72.8687773,189.601463 C68.574345,196.351157 63.663821,204.943057 60.2889738,214.76107 C56.9141266,224.579083 55.0749563,235.626245 44.0277948,246.670371 C43.6969869,247.083122 43.3722489,247.492838 43.0505459,247.896485 C44.4739301,248.734127 45.8366157,249.416987 47.0961135,250.045218 C50.1644323,251.580895 52.6196943,252.807009 54.4588646,253.420066 C56.3010699,254.033122 57.5271834,254.033122 58.7532969,254.033122 C59.9824454,254.033122 61.2115939,254.033122 64.2768777,253.420066 C67.3482314,252.807009 72.2557205,251.580895 75.3240393,250.351747 C78.3923581,249.125633 79.6184716,247.89952 82.6867904,247.283428 C85.7551092,246.670371 90.6656332,246.670371 95.5731223,246.670371 C100.483646,246.670371 105.39417,246.670371 109.688603,247.89952 C113.983035,249.125633 117.66441,251.580895 123.187991,252.807009 C128.711572,254.033122 136.077358,254.033122 142.210961,254.646179 C148.347598,255.259236 153.258122,256.488384 160.007817,257.101441 C166.757511,257.717533 175.34941,257.717533 180.869956,257.717533 C186.393537,257.717533 188.848799,257.717533 190.691004,258.33059 C192.530175,258.943646 193.756288,260.16976 194.985437,261.398908 C196.21155,262.625022 197.440699,263.851135 197.440699,265.080284 C197.440699,266.306397 196.21155,267.532511 195.598493,269.374716 C194.985437,271.216921 194.985437,273.672183 194.985437,276.740502 C194.985437,279.805786 194.985437,283.490197 194.37238,285.942424 C193.756288,288.397686 192.530175,289.626834 191.917118,292.079061 C191.304061,294.534323 191.304061,298.215699 191.304061,301.900109 L191.304061,311.718122 C191.304061,314.173384 191.304061,315.399498 191.917118,315.399498 C192.530175,315.399498 193.756288,314.173384 196.21155,314.173384 C198.666812,314.173384 202.348188,315.399498 206.029563,316.012555 C209.713974,316.625611 213.395349,316.625611 217.076725,315.399498 C220.7581,314.173384 224.439476,311.718122 227.507795,311.102031 C230.576114,310.488974 233.031376,311.718122 234.873581,312.331179 C236.712751,312.944236 237.9419,312.944236 238.554956,313.557293 C239.168013,314.173384 239.168013,315.399498 239.78107,316.625611 C240.397162,317.851725 241.623275,319.080873 244.691594,320.310022 C247.759913,321.536135 252.670437,322.762249 256.348777,323.988362 C260.030153,325.217511 262.485415,326.446659 264.32762,328.28583 C266.169825,330.125 267.395939,332.580262 268.008996,335.035524 C268.622052,337.490786 268.622052,339.946048 268.008996,341.785218 C267.395939,343.627424 266.169825,344.853537 266.782882,346.082686 C267.395939,347.311834 269.851201,348.537948 272.916485,351.606266 C275.987838,354.67155 279.669214,359.582074 282.737533,363.26345 C285.802817,366.944825 288.258079,369.400087 291.942489,370.013144 C295.623865,370.626201 300.534389,369.400087 304.215764,369.400087 C306.941135,369.400087 308.995786,370.073843 311.12631,370.67476 C311.869869,370.881135 312.622533,371.084476 313.420721,371.239258 C316.489039,371.852314 320.170415,371.852314 326.613581,371.852314 L354.534978,371.852314 C354.534978,370.626201 355.761092,369.400087 358.216354,366.331769 C360.668581,363.26345 364.349956,358.352926 366.808253,354.058493 C369.263515,349.764061 370.489629,346.082686 371.715742,344.24048 C372.941856,342.398275 374.171004,342.398275 377.85238,341.785218 C381.533755,341.172162 387.673428,339.946048 391.351769,339.332991 C395.036179,338.7169 396.262293,338.7169 396.875349,336.877729 C397.488406,335.035524 397.488406,331.354148 397.488406,328.28583 C397.488406,325.217511 397.488406,322.762249 399.943668,320.310022 C402.395895,317.851725 407.309454,315.399498 410.374738,314.173384 C413.446092,312.944236 414.672205,312.944236 416.511376,305.581485 C418.353581,298.215699 420.808843,283.490197 422.648013,274.898297 C424.490218,266.306397 425.716332,263.851135 425.716332,262.011965 C425.716332,260.16976 424.490218,258.943646 422.648013,257.101441 C420.808843,255.259236 418.353581,252.807009 415.901354,250.964803 C413.446092,249.125633 410.99083,247.89952 409.761681,246.670371 C408.535568,245.444258 408.535568,244.215109 410.374738,241.14679 C412.216943,238.078472 415.901354,233.170983 418.353581,229.486572 C420.808843,225.805197 422.034956,223.352969 423.26107,220.897707 C424.490218,218.442445 425.716332,215.987183 426.942445,212.918865 C428.171594,209.853581 429.400742,206.16917 430.626856,201.258646 C431.856004,196.351157 433.082118,190.21452 433.082118,185.920087 C433.082118,181.62262 431.856004,179.170393 430.626856,177.328188 C429.400742,175.485983 428.171594,174.259869 426.942445,173.033755 C425.716332,171.804607 424.490218,170.578493 423.877162,168.736288 C423.26107,166.897118 423.26107,164.441856 426.332424,158.918275 C429.400742,153.394694 435.534345,144.802795 439.828777,139.282249 C444.126245,133.758668 446.581507,131.303406 447.194563,128.851179 C447.80762,126.392882 446.581507,123.940655 445.96845,121.485393 C445.355393,119.030131 445.355393,116.577904 445.96845,114.122642 C446.581507,111.66738 447.80762,109.212118 450.262882,107.986004 C452.721179,106.756856 456.39952,106.756856 458.854782,106.756856 C461.310044,106.756856 462.536157,106.756856 461.310044,103.691572 C460.080895,100.620218 456.39952,94.4866157 453.947293,89.5760917 C451.488996,84.6655677 450.262882,80.9841921 449.649825,76.6897598 C449.036769,72.3953275 449.036769,67.4848035 449.036769,64.4164847 C449.036769,61.3481659 449.036769,60.1220524 450.878974,58.2798472 C452.721179,56.4406769 456.39952,53.9854148 461.9231,48.1553057 C466.542271,43.2812009 472.448253,36.045917 482.867183,23.0412227 C482.636528,22.9228603 482.405873,22.8044978 482.175218,22.6891703 C478.493843,20.8469651 474.809432,19.6208515 471.741114,19.6208515 C468.672795,19.6208515 466.217533,20.8469651 463.149214,21.4600218 C460.080895,22.0730786 456.39952,22.0730786 453.334236,22.0730786 C450.262882,22.0730786 447.80762,22.0730786 445.96845,20.8469651 C444.126245,19.6208515 442.900131,17.1655895 440.447904,13.1776856 C438.420568,9.88478166 435.558624,5.5508952 432.554039,0 Z"/>
          <path stroke="#FFF" stroke-width="7.875" d="M43.0511528,247.895271 C44.4745371,248.732913 45.8372227,249.415773 47.0967205,250.044004 C50.1650393,251.579681 52.6172664,252.805795 54.4594716,253.418852 C56.3016769,254.031908 57.5277904,254.031908 58.7539039,254.031908 C59.9830524,254.031908 61.2091659,254.031908 64.2774847,253.418852 C67.3458035,252.805795 72.2563275,251.579681 75.3246463,250.353568 C78.3929651,249.124419 79.6190786,247.898306 82.6873974,247.282214 C85.7557162,246.669157 90.6632052,246.669157 95.5737293,246.669157 C100.484253,246.669157 105.394777,246.669157 109.68921,247.898306 C113.983642,249.124419 117.665017,251.579681 123.188598,252.805795 C128.712179,254.031908 136.07493,254.031908 142.211568,254.648 C148.348205,255.261057 153.258729,256.490205 160.008424,257.103262 C166.758118,257.716319 175.350017,257.716319 180.870563,257.716319 C186.394144,257.716319 188.849406,257.716319 190.688576,258.329376 C192.530782,258.942432 193.756895,260.168546 194.986044,261.397694 C196.212157,262.626843 197.441306,263.852956 197.441306,265.07907 C197.441306,266.305183 196.212157,267.534332 195.5991,269.376537 C194.986044,271.215707 194.986044,273.670969 194.986044,276.739288 C194.986044,279.807607 194.986044,283.488983 194.369952,285.944245 C193.756895,288.399507 192.530782,289.62562 191.917725,292.080882 C191.304668,294.536144 191.304668,298.21752 191.304668,301.898895 L191.304668,311.716908 C191.304668,314.17217 191.304668,315.398284 191.917725,315.398284 C192.530782,315.398284 193.756895,314.17217 196.212157,314.17217 C198.667419,314.17217 202.348795,315.398284 206.03017,316.011341 C209.714581,316.624397 213.395956,316.624397 217.077332,315.398284 C220.758707,314.17217 224.440083,311.716908 227.508402,311.103852 C230.576721,310.490795 233.031983,311.716908 234.874188,312.329965 C236.713358,312.946057 237.939472,312.946057 238.555563,313.559114 C239.16862,314.17217 239.16862,315.398284 239.781677,316.624397 C240.394734,317.853546 241.623882,319.079659 244.689166,320.308808 C247.76052,321.534921 252.668009,322.761035 256.349384,323.990183 C260.03076,325.219332 262.486022,326.445445 264.328227,328.284616 C266.170432,330.126821 267.396546,332.582083 268.009603,335.03431 C268.622659,337.489572 268.622659,339.944834 268.009603,341.787039 C267.396546,343.62621 266.170432,344.852323 266.783489,346.084507 C267.396546,347.31062 269.848773,348.536734 272.917092,351.605052 C275.988445,354.673371 279.669821,359.583895 282.73814,363.265271 C285.803424,366.946646 288.258686,369.398873 291.943096,370.01193 C295.624472,370.624987 300.534996,369.398873 304.216371,369.398873 C306.941742,369.398873 308.996393,370.072629 311.126917,370.673546"/>
          <path stroke="#FFF" stroke-width="7.875" d="M183.356175,158.696725 C182.002594,159.834825 180.797725,160.578384 179.337921,161.067009 C176.576131,161.986594 172.894755,161.986594 171.05255,162.599651 C169.21338,163.212707 169.21338,164.441856 169.826437,165.667969 C170.439493,166.897118 171.665607,168.123231 172.281699,169.962402 C172.894755,171.804607 172.894755,174.259869 173.507812,177.941245 C174.120869,181.62262 175.350017,186.533144 176.576131,189.601463 C177.802245,192.669782 179.031393,193.895895 179.64445,196.964214 C180.257507,200.032533 180.257507,204.943057 179.64445,210.466638 C179.031393,215.987183 177.802245,222.123821 177.802245,225.805197 C177.802245,229.486572 179.031393,230.715721 181.48362,231.941834 C183.938882,233.170983 187.623293,234.397096 189.462463,236.239301 C191.304668,238.078472 191.304668,240.533734 192.530782,242.372904 C193.756895,244.215109 196.212157,245.444258 198.667419,245.444258 C201.122681,245.444258 203.577943,244.215109 205.417114,243.602052 C207.256284,242.988996 208.485432,242.988996 209.098489,243.602052 C209.714581,244.215109 209.714581,245.444258 209.714581,247.283428 C209.714581,249.125633 209.714581,251.57786 209.098489,253.420066 C208.485432,255.259236 207.256284,256.488384 206.03017,257.101441 C204.804057,257.714498 203.577943,257.714498 201.122681,257.714498 C199.444362,257.714498 197.195476,257.714498 193.589974,260.063537"/>
          <path stroke="#FFF" stroke-linejoin="round" stroke-width="7.875" d="M2.04402838,373.737009 C1.47649563,370.523013 0.848264192,367.151201 0.459792576,363.26345 C-0.153264192,357.126812 -0.153264192,349.764061 0.459792576,341.785218 C1.07284934,333.80941 2.29896288,325.217511 5.36728166,315.399498 C8.43560044,305.57845 13.3461245,294.534323 18.5631769,284.409782 C23.6618668,274.51286 29.0519105,265.493035 43.0520633,247.896485 C44.4754476,248.734127 45.8381332,249.416987 47.097631,250.045218 C50.1659498,251.580895 52.6212118,252.807009 54.4603821,253.420066 C56.2995524,254.033122 57.5287009,254.033122 58.7548144,254.033122 C59.9839629,254.033122 61.2100764,254.033122 64.2783952,253.420066 C67.3497489,252.807009 72.257238,251.580895 75.3255568,250.351747 C78.3938755,249.125633 79.6199891,247.89952 82.6883079,247.283428 C85.7596616,246.670371 90.6671507,246.670371 95.5746397,246.670371 C100.485164,246.670371 105.392653,246.670371 109.69012,247.89952 C113.984552,249.125633 117.665928,251.580895 123.189509,252.807009 C128.710055,254.033122 136.078876,254.033122 142.212478,254.646179 C148.349116,255.259236 153.256605,256.488384 160.006299,257.101441 C166.759028,257.714498 175.350928,257.714498 180.871474,257.714498 C186.395055,257.714498 188.850317,257.714498 190.692522,258.33059 C192.531692,258.943646 193.757806,260.16976 194.986954,261.398908 C196.213068,262.625022 197.439181,263.851135 197.439181,265.080284 C197.439181,266.306397 196.213068,267.532511 195.600011,269.374716 C194.986954,271.216921 194.986954,273.672183 194.986954,276.740502 C194.986954,279.805786 194.986954,283.490197 194.373897,285.942424 C193.757806,288.397686 192.531692,289.626834 191.918635,292.079061 C191.305579,294.534323 191.305579,298.215699 191.305579,301.900109 L191.305579,311.718122 C191.305579,314.173384 191.305579,315.399498 191.918635,315.399498 C192.531692,315.399498 193.757806,314.173384 196.213068,314.173384 C198.66833,314.173384 202.35274,315.399498 206.031081,316.012555 C209.715491,316.625611 213.396867,316.625611 217.078242,315.399498 C220.756583,314.173384 224.440993,311.718122 227.509312,311.102031 C230.577631,310.488974 233.032893,311.718122 234.872063,312.331179 C235.205906,312.443472 235.49726,312.51631 235.791648,312.595218 L231.190688,330.125 L213.050884,330.37083 L195.961168,329.627271 L191.918635,328.898886 L181.961015,333.873144 L175.963985,328.898886 L164.916823,331.354148 L150.804378,327.672773 L140.98333,317.238668 L136.886168,312.968515 L110.303177,313.557293 L90.051059,327.672773 L81.4591594,336.264672 L73.4833515,332.580262 L63.0522817,350.377118 L58.7548144,353.445437 C58.7548144,353.445437 47.7592467,349.730677 47.7106878,352.83238 C47.6621288,355.931048 40.5512773,360.45917 40.5512773,360.45917 L36.0504694,366.944825 L29.3007751,373.697555 L14.572238,365.105655 L5.78306769,370.67476 L2.04402838,373.737009 Z"/>
        </g>
        <path stroke="#FFF" stroke-width="7.875" d="M54.332114,925.18472 C65.4470971,947.42987 74.7085652,965.968005 80.574467,976.471725 C86.4403688,986.978502 88.9076508,989.447808 91.3779863,992.849217 C93.8452683,996.244513 96.3186574,1000.57191 97.5522984,1003.6616 C98.7889929,1006.74823 98.7889929,1008.60327 98.4775291,1009.53232 C98.1691189,1010.45525 97.5522984,1010.45525 95.6987834,1011.07258 C93.8452683,1011.69601 90.7611658,1012.93067 89.8328815,1015.40303 C88.9076508,1017.87234 90.1443454,1021.57935 93.8452683,1027.1414 C97.5522984,1032.70346 103.72661,1040.11749 108.047407,1045.06221 C112.371258,1050.00694 114.83854,1052.47624 117.308876,1054.94861 C119.779211,1057.42097 122.249547,1059.89028 124.25574,1061.89811 C126.261933,1063.90901 127.807038,1065.45233 128.423859,1066.69004 C129.040679,1067.92469 128.732269,1068.85068 128.268127,1069.3152 C127.807038,1069.77667 127.187164,1069.77667 125.336703,1068.69788 C123.483188,1067.61297 120.396032,1065.45233 118.85398,1064.6822 C117.308876,1063.90901 117.308876,1064.52634 117.308876,1065.29952 C117.308876,1066.07271 117.308876,1066.9987 119.159337,1068.54202 C121.012852,1070.08839 124.719882,1072.24903 127.807038,1073.33394 C130.891141,1074.41273 133.361476,1074.41273 135.214991,1074.8742 C137.065453,1075.34178 138.302147,1076.26777 140.772483,1077.96389 C143.239765,1079.66612 146.946795,1082.13543 151.267592,1084.60779 C155.588389,1087.08321 160.52906,1089.55251 164.233036,1091.40755 C167.937013,1093.25953 170.407349,1094.49418 172.260864,1094.49418 C174.111325,1094.49418 175.344966,1093.25953 176.581661,1091.40755 C177.815302,1089.55251 179.051996,1087.08321 180.285637,1086.45977 C181.519278,1085.8455 182.755973,1087.08321 183.989614,1088.93519 C185.226308,1090.78717 186.459949,1093.25953 187.69359,1095.11456 C188.930285,1096.96654 190.163926,1098.20425 192.017441,1099.44196 C193.867902,1100.67662 196.338238,1101.91127 199.425394,1103.45459 C202.51255,1105.00096 206.216526,1106.85294 209.923556,1110.55995 C228.446493,1129.10115 243.262399,1142.07723 251.907046,1149.1826 C260.54864,1156.28796 263.018976,1157.52262 264.25567,1158.76033 C265.489311,1159.99498 265.489311,1161.22963 268.271111,1166.48302 C271.046803,1171.73641 276.601241,1181.00548 291.423254,1203.25063 C295.124177,1210.66466 295.124177,1212.5197 294.507357,1215.30072 C293.890536,1218.08175 292.656895,1221.78876 291.423254,1226.1131 C290.18656,1230.4405 288.952919,1235.38217 288.333045,1238.47186 C287.719278,1241.55849 287.719278,1242.79926 288.952919,1245.26857 C290.18656,1247.74093 292.656895,1251.44794 296.666228,1256.38961 C300.684722,1261.33434 306.23916,1267.51677 309.634727,1273.38749 C313.030293,1279.25515 314.263934,1284.8172 316.117449,1287.59822 C317.970964,1290.37619 320.438246,1290.37619 321.67494,1288.83288 C322.908581,1287.2865 322.908581,1284.19987 323.220045,1280.79846 C323.525402,1277.40011 324.142222,1273.69309 325.070507,1271.84111 C325.995737,1269.98608 327.229378,1269.98608 328.774483,1270.91207 C330.319588,1271.84111 332.17005,1273.69309 339.581056,1281.10713 C350.692986,1284.8172 350.692986,1288.52421 351.001396,1291.61085 C351.309806,1294.70359 351.926627,1297.17595 353.160268,1298.41061 C354.396962,1299.64526 356.250477,1299.64526 357.175708,1299.02793 C358.100939,1298.41061 358.100939,1297.17595 358.720813,1293.46894 C359.337633,1289.75887 360.571274,1283.57949 360.571274,1278.63476 C360.571274,1273.69309 359.337633,1269.98608 359.646044,1263.49804 C359.954454,1257.01 361.804915,1247.74093 361.804915,1240.32384 C361.804915,1236.61683 367.362407,1231.05783 370.141153,1227.65948 C372.919898,1224.25807 372.919898,1223.02342 371.686257,1221.78876 C370.449563,1220.55105 367.979227,1219.3164 366.125712,1216.84404 C364.275251,1214.37167 363.04161,1210.66466 363.35002,1201.39559 C363.65843,1192.12652 365.511945,1177.29846 361.804915,1158.76033 C358.100939,1147.63622 359.954454,1140.22219 360.882738,1132.80816 C361.804915,1125.39413 361.804915,1117.97704 363.65843,1112.41805 C365.511945,1106.85294 369.212868,1103.14592 372.303078,1097.58387 C375.390234,1092.02488 377.857516,1084.60779 378.474336,1079.04879 C379.091157,1073.48369 377.857516,1069.77667 379.091157,1063.60035 C380.327851,1057.42097 384.034882,1048.76617 385.885343,1041.97252 C387.738858,1035.17582 387.738858,1030.23109 390.822961,1023.43133 C393.910117,1016.63768 400.084429,1007.98594 412.433053,993.154824 C424.781677,978.326761 443.304613,957.316264 453.182902,945.574834 C463.064244,933.833404 464.297885,931.361042 464.297885,928.891736 C464.297885,926.419373 463.064244,923.950067 462.44437,920.857321 C461.827549,917.767632 461.827549,914.060617 464.297885,912.208637 C466.765167,910.353601 471.708891,910.353601 475.409814,910.353601 C479.113791,910.353601 481.58718,910.353601 483.437641,909.118948 C485.291156,907.881238 486.524797,905.408876 492.079235,895.525538 C497.639781,885.639144 507.515016,868.332606 516.159663,854.742253 C524.804311,841.145787 532.212264,831.262449 534.682599,824.462688 C537.152935,817.662927 534.682599,813.955912 533.445905,810.251952 C532.212264,806.544936 532.212264,802.834865 531.595443,798.510522 C530.978623,794.18618 529.741928,789.244511 530.361802,785.534439 C530.978623,781.827423 533.445905,779.352005 537.769755,768.234014 C542.090552,757.109911 548.267918,737.334067 551.355074,725.595693 C554.439177,713.857319 554.439177,710.147247 553.822356,706.440232 C553.205536,702.733216 551.971895,699.023144 551.971895,696.550782 C551.971895,694.081475 553.205536,692.846822 554.439177,690.991786 C555.675871,689.139806 556.909512,686.667444 557.529386,684.195081 C558.143153,681.722719 558.143153,679.250356 556.292692,675.234677 C554.439177,671.215942 550.7352,665.656947 550.7352,661.949931 C550.7352,654.532843 554.439177,652.680863 556.292692,649.899838 C558.143153,647.118812 558.143153,643.411796 559.999722,631.670366 C561.84713,619.928936 565.55416,600.159205 568.024495,583.47305 C570.494831,566.789951 571.728472,553.193485 572.965166,543.307091 C574.198807,533.420697 575.432448,527.241319 576.669143,520.444614 C577.902784,513.647909 579.136425,506.233878 581.60676,499.437173 C584.074042,492.637412 587.778019,486.458034 589.634587,482.751018 C591.485049,479.044003 591.485049,477.806293 590.868228,475.336987 C590.251408,472.864624 589.017767,469.157609 588.397893,465.447537 C587.778019,461.743577 587.778019,458.036562 588.397893,454.32649 C589.017767,450.619474 590.251408,446.912458 592.101869,441.967733 C593.955384,437.026064 596.422666,430.846686 597.659361,427.136614 C598.893002,423.429599 598.893002,422.194945 597.659361,419.105256 C596.422666,416.015567 593.955384,411.070842 593.338564,408.601536 C592.71869,406.129173 593.955384,406.129173 600.126643,401.804831 C606.304009,397.477433 617.415938,388.828748 622.97343,383.884023 C628.530921,378.939298 628.530921,377.704645 627.914101,374.614956 C627.29728,371.525266 626.060586,366.580541 626.060586,362.873526 C626.060586,359.16651 627.29728,356.694147 629.147742,352.369805 C631.001257,348.042407 633.468539,341.863028 637.172515,335.68365 C640.879545,329.507328 645.817163,323.32795 648.287498,317.765898 C650.75478,312.203847 650.75478,307.262178 651.991475,303.555162 C653.228169,299.84509 655.695451,297.372728 656.932146,293.048385 C658.165787,288.724043 658.165787,282.544665 660.019302,276.982613 C661.872817,271.420562 665.576794,266.478893 667.427255,263.389204 C669.28077,260.299514 669.28077,259.061805 668.66395,258.444479 C668.044076,257.827152 666.810435,257.827152 663.106458,254.120136 C659.399428,250.41312 653.228169,242.996033 649.521139,238.671691 C645.817163,234.347348 644.583522,233.109639 643.966701,231.874986 C643.349881,230.637277 643.349881,229.402623 642.730007,225.695608 C642.113186,221.988592 640.879545,215.809214 640.262725,209.629835 C639.645904,203.450457 639.645904,197.271079 639.02603,193.564063 C638.40921,189.857048 637.172515,188.619338 637.789336,185.529649 C638.40921,182.43996 640.879545,177.498291 642.730007,173.170893 C644.583522,168.84655 645.817163,165.139535 647.670678,160.19481 C649.521139,155.250085 651.991475,149.073762 656.315325,142.274002 C660.639176,135.477297 666.810435,128.063265 671.131232,123.121596 C675.452029,118.176871 677.925418,115.704509 680.3927,114.469856 C682.863035,113.232146 685.333371,113.232146 687.803706,112.61482 C690.270988,111.997493 692.741324,110.76284 693.978018,109.525131 C695.211659,108.290477 695.211659,107.052768 694.594839,105.200788 C693.978018,103.345752 692.741324,100.87339 690.270988,99.0214101 C687.803706,97.1694302 684.096676,95.9317209 681.012574,95.3143943 C677.925418,94.6970677 675.452029,94.6970677 673.601567,92.2247052 C671.748052,89.7523427 670.514411,84.8106738 668.044076,80.4832754 C665.576794,76.1589331 661.872817,72.4519173 657.548966,70.5968814 C653.228169,68.7418455 648.287498,68.7418455 643.966701,68.1245189 C639.645904,67.5071923 635.938874,66.269483 632.234898,65.0348298 C628.530921,63.8001766 624.823891,62.5624673 621.736735,61.3278141 C618.652633,60.0931609 616.182297,58.8554516 612.475267,58.238125 C608.771291,57.6207984 603.833673,57.6207984 599.509822,57.0034718 C595.189025,56.3830891 591.485049,55.1484359 589.017767,53.2964561 C586.544378,51.4414202 585.310737,48.9690577 581.915171,45.8793685 C578.519604,42.7896794 572.965166,39.0826637 569.258136,31.6655762 C550.7352,27.9616166 550.7352,26.1065807 549.501559,22.0909016 C548.267918,18.0721665 545.797582,11.8927883 542.710426,7.56844598 C539.62327,3.24410365 535.91624,0.771741149 530.978623,0.151358469 C526.041005,-0.465968139 519.866693,0.771741149 513.072507,4.47875687 C506.281375,8.18577259 498.873422,14.3651508 492.079235,19.3098758 C485.291156,24.2515448 479.113791,27.9616166 475.409814,32.2859589 C471.708891,36.6103012 470.472197,41.5550262 469.238556,45.2620419 C468.001861,48.9690577 466.765167,51.4414202 465.531526,53.2964561 C464.297885,55.1484359 463.064244,56.3830891 458.740393,58.8554516 C454.416543,61.3278141 447.011643,65.0348298 440.834277,67.5071923 C434.663019,69.9795548 429.725401,71.214208 421.0777,73.0692439 C412.433053,74.9212238 400.084429,77.3935863 393.293296,79.8659488 C386.502163,82.3383113 385.268523,84.8106738 379.091157,89.7523427 C372.919898,94.6970677 361.804915,102.111099 355.016836,106.435441 C348.22265,110.76284 345.755368,111.997493 342.051392,114.469856 C338.344362,116.939162 333.406744,120.649234 328.463019,125.590903 C323.525402,130.535628 318.587784,136.715006 313.650167,143.511711 C308.709496,150.308416 303.768825,157.725503 298.211333,163.904881 C292.656895,170.081204 286.47953,175.025929 283.395427,181.822633 C280.308271,188.619338 280.308271,197.271079 279.691451,204.067784 C279.071577,210.864489 277.834882,215.809214 277.221115,220.133556 C276.601241,224.457898 276.601241,228.16797 275.3676,230.637277 C274.133959,233.109639 271.663623,234.347348 268.576467,238.671691 C265.489311,242.996033 261.785335,250.41312 258.081358,254.737463 C254.377382,259.061805 250.670352,260.299514 246.966375,260.916841 C243.262399,261.534168 239.558422,261.534168 236.471266,263.389204 C233.38411,265.244239 230.913775,268.951255 225.973104,274.510251 C221.035486,280.072302 213.627533,287.486334 209.923556,294.903421 C198.808573,317.148572 191.40062,330.124655 183.989614,342.792074 C176.581661,355.459494 169.170654,367.818251 164.849857,376.469991 C160.52906,385.118676 159.295419,390.063401 156.82203,396.860106 C154.354748,403.656811 150.650771,412.308551 146.326921,419.105256 C142.006124,425.901961 137.065453,430.846686 132.127835,439.495371 C127.187164,448.147112 122.249547,460.505868 118.542517,468.540282 C114.83854,476.57164 112.371258,480.278656 109.284102,484.606054 C106.193892,488.930397 102.489916,493.875122 98.7889929,498.816791 C95.0819629,503.761516 91.3779863,508.703184 87.0571893,515.499889 C82.7333387,522.29965 77.7957212,530.951391 74.3971014,540.834729 C71.0015351,550.724179 69.1510736,561.845226 58.0360905,572.969329 C43.2201844,591.504408 37.6626928,600.776531 32.4136115,610.971588 C27.1675838,621.166646 22.2269127,632.287693 19.1397567,642.177143 C16.0526006,652.063537 14.8189597,660.712222 14.1990856,668.746636 C13.5822651,676.78105 13.5822651,684.195081 14.1990856,690.374459 C14.8189597,696.550782 16.0526006,701.495507 16.6694211,706.440232 C17.2892952,711.381901 17.2892952,716.326626 17.2892952,723.12333 C17.2892952,729.920035 17.2892952,738.571776 16.6694211,745.985807 C16.0526006,753.399839 14.8189597,759.582273 13.5822651,767.613631 C12.3486241,775.644989 11.1149831,785.534439 9.26146809,796.03816 C7.40795304,806.544936 4.94067107,817.662927 3.08715603,824.462688 C1.23364099,831.262449 0,833.731756 0,835.586792 C0,837.438771 1.23364099,838.673425 2.47033554,839.911134 C3.70397652,841.145787 4.94067107,842.38044 5.55749157,847.945548 C6.17431206,853.504544 6.17431206,863.390938 7.40795304,869.573372 C8.6446476,875.749694 11.1149831,878.222057 18.8313464,885.944751 C26.5477097,893.670502 39.5131543,906.646585 54.332114,925.18472 Z"/>
        <path stroke="#FFF" stroke-width="7.875" d="M86.1985216,585.428508 C86.1985216,586.662851 87.4300193,587.900249 88.6645652,589.137647 C89.8960629,590.371989 91.1275606,591.606332 91.7433094,592.84373 C92.3590583,594.078073 92.3590583,595.312415 91.1275606,595.932642 C89.8960629,596.549813 87.4300193,596.549813 84.9639757,597.166984 C82.5009803,597.784156 80.0349367,599.021554 77.5688931,599.63567 C75.1028495,600.258952 72.6398541,600.258952 71.4022599,600.873068 C70.1707622,601.493294 70.1707622,602.727637 70.1707622,604.582206 C70.1707622,606.43372 70.1707622,608.905461 70.7895593,610.756975 C71.4022599,612.608489 72.6398541,613.845887 75.7185983,614.466113 C78.8003908,615.083285 83.7294297,615.083285 87.4300193,615.700456 C91.1275606,616.317627 93.5936042,617.555025 94.2093531,619.406539 C94.8251019,621.261108 93.5936042,623.729794 92.9809036,626.818706 C92.3895409,629.773184 92.3590583,633.289838 93.4381429,636.290147 C89.8259529,637.527545 87.2257858,637.94001 84.3482268,639.177408 C80.0349367,641.028922 75.1028495,644.735006 71.4022599,647.206746 C67.7077668,649.675431 65.2417232,650.915885 62.7756796,653.38457 C60.3126842,655.856311 57.8466406,659.562394 55.3836453,662.64825 C52.9145534,665.737162 50.4485098,668.211958 48.6012632,670.680643 C46.7540167,673.152384 45.5164225,675.624125 44.2849248,678.713037 C43.0534271,681.801948 41.8188812,685.508032 41.2031324,688.596944 C40.5873835,691.6828 40.5873835,694.157596 39.9716347,702.189989 C39.3558858,710.219327 38.1243882,723.809317 37.5055911,733.076053 C36.8898422,742.342789 36.8898422,747.28627 36.2740934,750.372126 C35.6583445,753.464094 34.4268469,754.695381 33.1923009,755.935834 L29.4947596,759.641917 C28.2602137,760.87626 27.028716,762.110603 25.7972183,763.965172 C24.5626724,765.819741 23.3311747,768.291482 22.7154259,770.760167 C22.099677,773.231908 22.099677,775.700593 22.7154259,778.172333 C23.3311747,780.647129 24.5626724,783.115815 25.7972183,784.970384 C27.028716,786.821898 28.2602137,788.05624 29.4947596,792.38255 C30.7293056,796.705805 31.9608032,804.117971 33.1923009,808.444281 C34.4268469,812.767536 35.6583445,814.004934 39.3558858,817.09079 C43.0534271,820.179702 49.2170121,825.123183 52.2988045,828.829266 C55.3836453,832.538405 55.3836453,835.010146 55.3836453,838.713174 C55.3836453,842.419257 55.3836453,847.362738 54.7617999,851.068821 C54.1460511,854.774904 52.9145534,857.2497 51.0673069,859.098159 C49.2170121,860.955783 46.7540167,862.190126 40.5873835,864.661867 C34.4268469,867.130552 24.5626724,870.836635 19.6305851,873.928602 C14.7015461,877.017514 14.7015461,879.4862 13.4700485,885.043797 C12.2355025,890.607505 9.77250717,899.257069 7.30646354,906.669235 C4.84346818,914.081402 2.3743763,920.262281 1.14287862,925.202707 C-0.0916673224,930.143133 -0.0916673224,933.849216 0.527129779,936.941183 C1.14287862,940.030095 2.3743763,942.49878 4.84346818,949.293775 C7.30646354,956.08877 11.0040048,967.210075 12.8512514,975.242469 C14.7015461,983.271806 14.7015461,988.215287 14.7015461,992.538542 C14.7015461,996.861797 14.7015461,1000.56788 15.317295,1003.04268 C15.9330438,1005.51136 17.1675898,1006.7457 19.6305851,1007.36593 C22.099677,1007.9831 25.7972183,1007.9831 27.6444648,1009.21744 C29.4947596,1010.45179 29.4947596,1012.92658 29.4947596,1016.01549 C29.4947596,1019.10135 29.4947596,1022.80743 30.1105085,1025.27917 C30.7293056,1027.75092 31.9608032,1028.98831 33.8080498,1030.83983 C35.6583445,1032.6944 38.1243882,1035.16308 40.5873835,1036.40048 C43.0534271,1037.63788 45.5164225,1037.63788 48.6012632,1038.87222 C51.6830557,1040.10656 55.3836453,1042.5783 59.0811866,1043.81265 C62.7756796,1045.05004 66.4732209,1045.05004 72.9446802,1045.05004 C74.4047975,1045.05004 76.0081831,1045.05004 77.6115687,1045.26086 C77.5993757,1045.18753 77.5841344,1045.12032 77.5688931,1045.05004 C73.8713518,1033.92874 75.7185983,1026.51657 76.6452698,1019.10135 C77.5688931,1011.69224 77.5688931,1004.27702 79.4161396,998.719421 C81.2694826,993.155713 84.9639757,989.44963 88.0457681,983.888978 C91.1275606,978.33138 93.5936042,970.916159 94.2093531,965.358562 C94.8251019,959.794854 93.5936042,956.08877 94.8251019,949.914002 C96.0565996,943.733123 99.7571891,935.083558 101.607484,928.291619 C103.45473,921.496624 103.45473,916.553142 106.536523,909.755092 C109.618315,902.963152 115.7819,894.313588 128.10907,879.4862 C140.43624,864.661867 158.923947,843.656655 168.788121,831.918178 C178.649247,820.179702 179.880745,817.707962 179.880745,815.239276 C179.880745,812.767536 178.649247,810.29885 178.033498,807.206883 C177.41775,804.117971 177.41775,800.411888 179.880745,798.560374 C182.346789,796.705805 187.278876,796.705805 190.976417,796.705805 C194.673958,796.705805 197.140002,796.705805 198.990297,795.471462 C200.837543,794.234064 202.072089,791.762324 207.616877,781.881472 C213.164713,771.99451 223.025839,754.695381 231.655468,741.108446 C240.285096,727.5154 247.680179,717.634549 250.143174,710.836498 C252.612266,704.038448 250.143174,700.332365 248.911677,696.629337 C247.680179,692.923253 247.680179,689.214115 247.061382,684.89086 C246.445633,680.567606 245.214135,675.624125 245.829884,671.918041 C246.445633,668.211958 248.911677,665.737162 253.228015,654.618913 C257.541305,643.500663 263.70489,623.729794 266.786683,611.994373 C269.868475,600.258952 269.868475,596.549813 269.252726,592.84373 C268.636977,589.137647 267.402432,585.428508 267.402432,582.956768 C267.402432,580.488082 268.636977,579.25374 269.868475,577.39917 C271.099973,575.547656 272.331471,573.075916 272.953316,570.60112 C273.566016,568.132435 273.566016,565.660694 271.715722,561.646025 C269.868475,557.628301 266.170934,552.070704 266.170934,548.364621 C266.170934,540.949399 269.868475,539.097885 271.715722,536.317559 C273.566016,533.537232 273.566016,529.831149 275.416311,518.092673 C277.263558,506.354197 280.964147,486.586383 283.427143,469.90748 C285.896235,453.225523 287.127732,439.635533 288.35923,429.751626 C289.593776,419.867719 290.825274,413.689895 292.056771,406.8949 C293.288269,400.099905 294.522815,392.687738 296.98581,385.889688 C299.451854,379.094693 303.149395,372.916869 304.99969,369.210786 C306.849985,365.504702 306.849985,364.267304 306.234236,361.798619 C305.615439,359.326879 304.383941,355.620795 303.768192,351.911657 C303.149395,348.205574 303.149395,344.502546 303.768192,340.793407 C304.383941,337.087324 305.615439,333.381241 307.465734,328.43776 C309.31298,323.497334 311.779024,317.31951 313.010521,313.610371 C314.245067,309.904288 314.245067,308.669946 313.010521,305.581034 C311.779024,302.492122 309.31298,297.548641 308.697231,295.079955 C308.081482,292.608215 309.31298,292.608215 315.476565,288.28496 C321.64015,283.95865 332.735822,275.312141 338.28061,270.36866 C343.831494,265.425179 343.831494,264.190836 343.212697,261.101924 C342.596948,258.013012 341.365451,253.069531 341.365451,249.363448 C341.365451,245.657365 342.596948,243.185624 344.447243,238.86237 C346.29449,234.53606 348.760533,228.358236 352.458075,222.180412 C356.158664,216.005644 361.087703,209.824765 363.550698,204.267167 C366.016742,198.706515 366.016742,193.766089 367.24824,190.060006 C368.482786,186.350867 370.948829,183.879127 372.180327,179.555872 C373.414873,175.232618 373.414873,169.054794 375.262119,163.494141 C377.115462,157.933489 380.809956,152.993063 382.66025,149.904151 C384.507497,146.815239 384.507497,145.577841 383.891748,144.96067 C383.275999,144.343499 382.044501,144.343499 378.34696,140.637415 C374.646371,136.931332 368.482786,129.51611 364.785244,125.192856 C361.087703,120.869601 359.853157,119.632203 359.237408,118.397861 C358.621659,117.160463 358.621659,115.92612 358.005911,112.220037 C357.390162,108.513954 356.158664,102.33613 355.539867,96.1583062 C354.924118,89.9804824 354.924118,83.8026586 354.305321,80.09352 C353.69262,76.3904921 352.458075,75.1530942 353.073823,72.0641823 C353.69262,68.9752704 356.158664,64.0348445 358.005911,59.7085347 C359.853157,55.3852801 361.087703,51.6791969 362.93495,46.7357157 C364.785244,41.7922346 367.24824,35.6174661 371.564578,28.8194157 C375.880917,22.0244205 382.044501,14.6122541 386.357792,9.67182822 C390.637551,4.768066 393.097498,2.29632542 395.542204,1.04976157 C388.671422,-0.157083341 385.135439,-0.0257052873 382.349328,0.402037212 C378.34696,1.02226383 375.880917,2.25660647 370.948829,4.72834706 C366.016742,7.20008764 358.621659,10.9061709 354.305321,13.9950828 C349.992031,17.0809394 348.760533,19.5557352 347.525987,22.0244205 C346.29449,24.4961611 345.062992,26.9679017 342.596948,28.8194157 C340.130905,30.6739849 336.433363,31.9083276 333.96732,31.2911562 C331.504324,30.6739849 330.269778,28.2022443 329.035233,28.8194157 C327.803735,29.436587 326.569189,33.1457255 324.721942,36.2346374 C322.874696,39.3235493 320.408652,41.7922346 309.928729,48.590285 C299.451854,55.3852801 280.964147,66.5035298 271.099973,72.6813536 C261.241895,78.8591774 260.007349,80.09352 260.007349,83.8026586 C260.007349,87.5087418 261.241895,93.6865656 260.623098,97.3926488 C260.007349,101.098732 257.541305,102.33613 253.843764,104.187644 C250.143174,106.042213 245.214135,108.513954 239.053599,110.982639 C232.886966,113.45438 225.488835,115.92612 221.175545,117.777634 C218.264455,119.030309 216.755565,120.001895 215.325931,119.739139 C211.981988,125.388395 208.077165,130.784061 205.458708,135.076763 C202.072089,140.637415 200.837543,144.343499 200.221794,148.975339 C199.764555,152.4095 199.645673,156.353897 198.109349,159.675012 C199.596901,161.981766 199.520694,164.322129 198.3715,167.200225 C197.140002,170.289137 194.673958,173.99522 191.592166,177.704358 C188.510373,181.410441 184.81588,185.116525 180.499542,190.677177 C176.183204,196.234774 171.254165,203.649996 167.553575,207.973251 C166.465346,209.247312 165.483805,210.255562 164.560182,211.080494 C167.577961,216.668645 170.452472,221.031618 172.488711,224.343567 C174.951706,228.358236 176.183204,230.829977 178.033498,232.067375 C179.880745,233.301717 182.346789,233.301717 185.431629,233.301717 C188.510373,233.301717 192.207915,233.301717 195.289707,232.684546 C198.3715,232.067375 200.837543,230.829977 203.919336,230.829977 C207.001128,230.829977 210.701718,232.067375 214.399259,233.918889 C214.630927,234.03499 214.862595,234.154147 215.094263,234.276359 C204.629581,247.368335 198.697664,254.649123 194.05821,259.555941 C188.510373,265.425179 184.81588,267.896919 182.965586,269.751489 C181.115291,271.603003 181.115291,272.837345 181.115291,275.929313 C181.115291,279.015169 181.115291,283.95865 181.73104,288.28496 C182.346789,292.608215 183.578286,296.314298 186.047378,301.257779 C188.510373,306.198205 192.207915,312.376029 193.442461,315.464941 C194.673958,318.553853 193.442461,318.553853 190.976417,318.553853 C188.510373,318.553853 184.81588,318.553853 182.346789,319.79125 C179.880745,321.025593 178.649247,323.497334 178.033498,325.966019 C177.41775,328.43776 177.41775,330.9095 178.033498,333.381241 C178.649247,335.849926 179.880745,338.321667 179.264996,340.793407 C178.649247,343.265148 176.183204,345.736888 171.866865,351.294486 C167.553575,356.855138 161.393038,365.504702 158.311246,371.065355 C155.226405,376.622952 155.226405,379.094693 155.845202,380.949262 C156.460951,382.800776 157.692449,384.038174 158.923947,385.272516 C160.158492,386.509914 161.393038,387.744257 162.624536,389.595771 C163.859082,391.45034 165.09058,393.922081 165.09058,398.245335 C165.09058,402.56859 163.859082,408.749469 162.624536,413.689895 C161.393038,418.633376 160.158492,422.339459 158.923947,425.428371 C157.692449,428.517283 156.460951,430.989024 155.226405,433.457709 C153.994908,435.92945 152.76341,438.40119 150.297366,442.107273 C147.834371,445.813357 144.133781,450.756838 142.283487,453.84575 C140.43624,456.934662 140.43624,458.169004 141.667738,459.403347 C142.902284,460.640745 145.368327,461.878143 147.834371,463.729657 C150.297366,465.581171 152.76341,468.052911 154.610656,469.90748 C156.460951,471.758994 157.692449,472.996392 157.692449,474.850962 C157.692449,476.702476 156.460951,479.174216 154.610656,487.823781 C152.76341,496.47029 150.297366,511.297678 148.447071,518.709844 C146.599825,526.125066 145.368327,526.125066 142.283487,527.359409 C139.204742,528.593751 134.269607,531.065492 131.806611,533.537232 C129.340568,536.008973 129.340568,538.480714 129.340568,541.569625 C129.340568,544.655482 129.340568,548.364621 128.724819,550.21919 C128.10907,552.070704 126.877572,552.070704 123.176983,552.687875 C119.48249,553.305046 113.315857,554.542444 109.618315,555.159616 C105.920774,555.776787 104.686228,555.776787 103.45473,557.628301 C102.223233,559.485926 100.991735,563.192009 98.5256915,567.515263 C96.0565996,571.838518 92.3590583,576.781999 89.8960629,579.870911 C87.4300193,582.956768 86.1985216,584.194166 86.1985216,585.428508" transform="translate(283.513 114.193)"/>
        <path stroke="#FFF" stroke-width="7.875" d="M361.249938,1159.22881 C364.892922,1177.63533 363.057712,1192.35688 362.749811,1201.5754 C362.44191,1210.82746 363.673513,1214.52768 365.520918,1216.99551 C367.371371,1219.46334 369.837626,1220.69573 371.072278,1221.93116 C372.303881,1223.16355 372.303881,1224.39594 369.529725,1227.79111 C366.75557,1231.18323 361.207259,1236.73203 361.207259,1240.43225 C361.207259,1247.83573 359.359854,1257.0878 359.051953,1263.56394 C358.744052,1270.04009 359.975655,1273.7403 359.975655,1278.67291 C359.975655,1283.60857 358.744052,1289.77661 358.128251,1293.47988 C357.5094,1297.18009 357.5094,1298.41248 356.585698,1299.02868 C355.661996,1299.64487 353.811542,1299.64487 352.576891,1298.41248 C351.345288,1297.18009 350.729486,1294.71227 350.421585,1291.62519 C350.113684,1288.54422 350.113684,1284.844 339.02011,1281.14074 C331.621346,1273.7403 329.773941,1271.89172 328.231389,1270.96438 C326.688836,1270.04009 325.457233,1270.04009 324.533531,1271.89172 C323.60678,1273.7403 322.990978,1277.44052 322.686126,1280.83264 C322.375177,1284.22781 322.375177,1287.30878 321.143573,1288.85232 C319.908922,1290.3928 317.445715,1290.3928 315.595262,1287.61993 C313.744809,1284.844 312.513206,1279.29215 309.123248,1273.43221 C305.733291,1267.57531 300.188029,1261.40421 296.176173,1256.46856 C292.173462,1251.53595 289.707208,1247.83573 288.475604,1245.36791 C287.244001,1242.90313 287.244001,1241.66464 287.856754,1238.58367 C288.475604,1235.49964 289.707208,1230.56704 290.941859,1226.24758 C292.173462,1221.93116 293.405066,1218.23095 294.020867,1215.45502 C294.636669,1212.67605 294.636669,1210.82746 290.941859,1203.42703 C276.14433,1181.22268 270.599067,1171.97061 267.824912,1166.72686 C265.050756,1161.4831 265.050756,1160.25071 263.819153,1159.01832 C262.584501,1157.78289 260.118246,1156.5505 251.490927,1149.45816 C242.860559,1142.36582 228.066079,1129.41354 209.576789,1110.90635 C205.875882,1107.20614 202.178024,1105.35755 199.095968,1103.81402 C196.013911,1102.27353 193.547657,1101.04114 191.700252,1099.80875 C189.849799,1098.57331 188.618195,1097.33787 187.383544,1095.48624 C186.151941,1093.63766 184.920337,1091.16983 183.685686,1089.32124 C182.454083,1087.47266 181.219431,1086.23722 179.987828,1086.85037 C178.756225,1087.47266 177.521573,1089.93744 176.28997,1091.78907 C175.055318,1093.63766 173.823715,1094.87005 171.97631,1094.87005 C170.125857,1094.87005 167.659602,1093.63766 163.961744,1091.78907 C160.263886,1089.93744 155.331376,1087.47266 151.017717,1085.00178 C146.704057,1082.53395 143.00315,1080.06918 140.539944,1078.37007 C138.073689,1076.67706 136.839038,1075.75277 134.991633,1075.28604 C133.14118,1074.82542 130.674925,1074.82542 127.592868,1073.74861 C124.51386,1072.66569 120.812954,1070.50901 118.962501,1068.96548 C117.115096,1067.42499 117.115096,1066.5007 117.115096,1065.72893 C117.115096,1064.95716 117.115096,1064.34097 118.657648,1065.10968 C120.197152,1065.88145 123.279209,1068.03813 125.129662,1069.12105 C126.977067,1070.19786 127.592868,1070.19786 128.056244,1069.73724 C128.519619,1069.27357 128.82752,1068.34928 128.211718,1067.11689 C127.592868,1065.88145 126.053364,1064.34097 124.050485,1062.33376 C122.047606,1060.3296 119.581351,1057.86482 117.115096,1055.397 C114.648841,1052.92917 112.185635,1050.46439 107.868927,1045.52873 C103.555267,1040.59308 97.3911541,1033.19264 93.6902476,1027.64079 C89.9954381,1022.08894 88.7607864,1018.38873 89.6844888,1015.9209 C90.6112397,1013.45612 93.6902476,1012.22373 95.5407009,1011.60144 C97.3911541,1010.98524 98.0069557,1010.98524 98.3148565,1010.064 C98.6258058,1009.13666 98.6258058,1007.28502 97.3911541,1004.20405 C96.1565024,1001.12003 93.6902476,996.800568 91.2270413,993.411499 C88.7607864,990.016328 86.2975801,987.551551 80.441368,977.064044 C74.5851559,966.579587 65.3389866,948.075452 54.2423641,925.8711 C39.4478835,907.366964 26.5038562,894.41468 18.8002394,886.703098 C11.0966226,878.994567 8.63036771,876.526739 7.39571603,870.361744 C6.16411286,864.190648 6.16411286,854.322386 5.54831128,848.773586 C4.9325097,843.218685 3.69785801,841.986296 2.46625485,840.753907 C1.23160316,839.518468 0,838.286079 0,836.437496 C0,834.585862 1.23160316,832.121084 3.08205643,825.333794 C4.9325097,818.546504 7.39571603,807.448904 9.24616929,796.961397 C10.7917703,788.194354 11.9075296,779.863527 12.9531729,772.679676 C22.2481185,771.075131 25.2996897,772.557658 28.3543095,773.832753 C32.0521675,775.373239 35.753074,776.605628 38.8320819,777.841067 C41.9141384,779.073456 44.3803932,780.305845 46.2308465,780.305845 C48.0782512,780.305845 49.3129029,779.073456 50.5445061,777.221822 C51.7761092,775.373239 53.0107609,772.905411 54.2423641,771.056828 C55.4770158,769.208244 56.7086189,767.972805 57.9402221,767.35356 C59.1748738,766.740416 60.4064769,766.740416 61.6411286,767.35356 C62.8727318,767.972805 64.104335,769.208244 65.3389866,769.824439 C66.5705898,770.440633 67.802193,770.440633 68.4210431,769.824439 C69.0368447,769.208244 69.0368447,767.972805 68.4210431,766.121171 C67.802193,764.269538 66.5705898,761.80476 67.1863914,759.953126 C67.802193,758.104543 70.2684478,756.872154 73.3535528,753.788132 C76.4325607,750.701059 80.1304187,745.768453 83.8313252,742.68443 C87.5291832,739.600408 91.2270413,738.364968 94.3090977,736.516385 C97.3911541,734.664751 99.857409,732.199974 102.320615,730.964534 C104.78687,729.732146 107.253125,729.732146 109.71938,729.732146 C112.185635,729.732146 114.648841,729.732146 117.730897,730.34834 C120.812954,730.964534 124.51386,732.199974 126.361265,732.199974 C128.211718,732.199974 128.211718,730.964534 129.443322,730.34834 C130.674925,729.732146 133.14118,729.732146 135.607434,729.115951 C138.073689,728.496706 140.539944,727.264317 142.387349,726.648123 C144.234754,726.028878 145.469405,726.028878 146.085207,726.648123 C146.704057,727.264317 146.704057,728.496706 149.167263,730.964534 C151.633518,733.432363 156.562979,737.13258 159.648084,740.216602 C162.727092,743.300625 163.961744,745.768453 165.812197,747.617036 C167.659602,749.46867 170.125857,750.701059 171.97631,751.933447 C173.823715,753.168887 175.055318,754.401276 175.67112,755.636715 C176.28997,756.872154 176.28997,758.104543 175.67112,759.336932 C175.055318,760.572371 173.823715,761.80476 172.592112,763.037149 C171.35746,764.269538 170.125857,765.508028 170.125857,766.740416 C170.125857,767.972805 171.35746,769.208244 173.207913,772.289217 C175.055318,775.373239 177.521573,780.305845 179.372026,784.009112 C181.219431,787.709329 182.454083,790.180208 183.685686,792.641935 C184.920337,795.112814 186.151941,797.577591 186.767742,799.429225 C187.383544,801.277808 187.383544,802.513248 188.618195,803.129442 C189.849799,803.745637 192.316053,803.745637 193.547657,803.129442 C194.782308,802.513248 194.782308,801.277808 195.39811,801.277808 C196.013911,801.277808 197.248563,802.513248 197.864365,802.513248 C198.480166,802.513248 198.480166,801.277808 198.480166,800.04542 C198.480166,798.813031 198.480166,797.577591 199.711769,795.729008 C200.946421,793.877374 203.412676,791.409546 204.644279,790.793352 C205.875882,790.180208 205.875882,791.409546 205.875882,792.641935 L205.875882,796.345203 C205.875882,797.577591 205.875882,798.813031 208.650038,799.429225 C211.073613,799.969158 215.618961,800.036268 224.136533,800.04542 C224.404803,799.20044 224.688316,798.370713 224.984022,797.577591 C226.834476,792.641935 229.300731,788.941718 231.148135,784.625307 C232.998589,780.305845 234.230192,775.373239 237.92805,771.673022 C241.628956,767.972805 247.790021,765.508028 253.957182,762.420954 C260.118246,759.336932 266.285408,755.636715 269.983266,751.933447 C273.681124,748.236281 274.912727,744.536064 277.375933,740.835847 C279.845237,737.13258 283.543095,733.432363 288.475604,729.732146 C293.405066,726.028878 299.569178,722.328661 304.49864,719.247689 C309.431149,716.163667 313.132056,713.695838 315.903163,711.536107 C318.454776,709.553304 320.22292,707.826739 326.237655,698.937677 C326.984543,699.148159 327.740577,699.34949 328.542338,699.508114 C331.621346,700.124309 335.319204,700.124309 341.791218,700.124309 L369.837626,700.124309 C369.837626,701.356698 371.072278,702.592137 372.303881,703.827576 C373.535484,705.059965 374.770136,706.295404 375.385938,707.527793 C376.001739,708.760182 376.001739,709.992571 374.770136,710.611816 C373.535484,711.22801 371.072278,711.22801 368.602975,711.844205 C366.139768,712.460399 363.673513,713.695838 361.207259,714.308982 C358.744052,714.931278 356.277797,714.931278 355.043146,715.544422 C353.811542,716.163667 353.811542,717.396055 353.811542,719.247689 C353.811542,721.096272 353.811542,723.564101 354.430393,725.412684 C355.043146,727.264317 356.277797,728.496706 359.359854,729.115951 C362.44191,729.732146 367.371371,729.732146 371.072278,730.34834 C374.770136,730.964534 377.233342,732.199974 377.849144,734.048557 C378.464945,735.900191 377.233342,738.364968 376.620589,741.448991 C376.032224,744.398793 376.001739,747.909881 377.077868,750.90849 C373.468417,752.140879 370.864978,752.552692 367.987173,753.788132 C363.673513,755.636715 358.744052,759.336932 355.043146,761.80476 C351.345288,764.269538 348.879033,765.508028 346.415826,767.972805 C343.949572,770.440633 341.486365,774.14085 339.02011,777.221822 C336.550807,780.305845 334.087601,782.776724 332.237147,785.241501 C330.389743,787.709329 329.155091,790.180208 327.920439,793.26118 C326.688836,796.345203 325.457233,800.04542 324.841431,803.129442 C324.222581,806.210414 324.222581,808.681293 323.60678,816.700972 C322.990978,824.7176 321.759375,838.286079 321.143573,847.538147 C320.527772,856.790214 320.527772,861.725871 319.908922,864.806843 C319.29312,867.893916 318.061517,869.123254 316.829914,870.361744 L313.132056,874.061961 C311.897404,875.29435 310.662752,876.526739 309.431149,878.378372 C308.199546,880.230006 306.964894,882.697834 306.349093,885.162612 C305.733291,887.63044 305.733291,890.095218 306.349093,892.563046 C306.964894,895.033925 308.199546,897.498702 309.431149,899.350336 C310.662752,901.198919 311.897404,902.431308 313.132056,906.75077 C314.363659,911.067181 315.595262,918.467615 316.829914,922.787077 C318.061517,927.103488 319.29312,928.338928 322.990978,931.4199 C326.688836,934.503922 332.855998,939.439579 335.935005,943.139796 C339.02011,946.843063 339.02011,949.310891 339.02011,953.008058 C339.02011,956.708275 339.02011,961.646981 338.40126,965.344148 C337.785459,969.044365 336.550807,971.515244 334.703402,973.360776 C332.855998,975.215461 330.389743,976.447849 324.222581,978.915678 C318.061517,981.380455 308.199546,985.080672 303.263988,988.167745 C298.334527,991.251768 298.334527,993.716545 297.102924,999.268396 C295.87132,1004.82025 293.405066,1013.45612 290.941859,1020.85655 C288.475604,1028.25699 286.006301,1034.42808 284.774698,1039.36069 C283.543095,1044.2933 283.543095,1047.99351 284.158896,1051.08059 C284.774698,1054.16461 286.006301,1056.62939 288.475604,1063.41362 C290.941859,1070.19786 294.636669,1081.30157 296.487122,1089.32124 C298.334527,1097.33787 298.334527,1102.27353 298.334527,1106.58994 C298.334527,1110.90635 298.334527,1114.60657 298.950328,1117.07745 C299.569178,1119.54223 300.800782,1120.77766 303.263988,1121.39386 C305.733291,1122.01005 309.431149,1122.01005 311.278554,1123.24244 C313.132056,1124.47483 313.132056,1126.94571 313.132056,1130.02973 C313.132056,1133.1107 313.132056,1136.81092 313.744809,1139.27875 C314.363659,1141.74963 315.595262,1142.98202 317.445715,1144.8306 C319.29312,1146.68223 321.759375,1149.14701 324.222581,1150.38245 C326.688836,1151.61789 329.155091,1151.61789 332.237147,1152.85028 C335.319204,1154.08267 339.02011,1156.5505 342.717968,1157.78289 C346.415826,1159.01832 350.113684,1159.01832 356.585698,1159.01832 C358.042892,1159.01832 359.649463,1159.01832 361.249938,1159.22881 Z"/>
        <path stroke="#FFF" stroke-width="7.875" d="M0.848758048,229.079743 C2.19710927,226.989657 3.16938974,225.864934 4.04383067,224.639078 C5.58786098,222.472376 6.82614272,219.990017 8.06136697,219.990017 C9.2996487,219.990017 10.5348729,222.472376 13.6259911,224.326484 C16.7171092,226.189786 21.6641211,227.427901 26.6080756,227.427901 C31.5520301,227.427901 36.4990421,226.189786 39.5901602,226.808844 C42.6812783,227.427901 43.9165025,229.907196 46.393066,231.145311 C48.8635145,232.383426 52.5722447,232.383426 56.280975,231.764368 C59.9927627,231.145311 63.7014929,229.907196 66.792611,229.285074 C69.8837291,228.666016 72.3572351,228.666016 73.5924594,228.046959 C74.8276836,227.427901 74.8276836,226.189786 75.4452957,224.326484 C76.0659653,222.472376 77.3011896,219.990017 79.1570834,218.132844 C81.0099198,216.272607 83.4834258,215.034492 85.3393197,215.034492 C87.192156,215.034492 88.4304378,216.272607 89.665662,216.891665 C90.9008863,217.513787 92.139168,217.513787 92.7567801,216.891665 C93.3743922,216.272607 93.3743922,215.034492 93.3743922,212.555197 C93.3743922,210.075903 93.3743922,206.358493 93.9920044,203.260141 C94.612674,200.161788 95.8478982,197.685558 97.08618,196.447443 C98.3214042,195.203199 99.5566285,195.203199 102.030134,194.584141 C104.500583,193.965084 108.212371,192.726969 110.685877,191.485789 C113.156325,190.247674 114.394607,189.009559 115.012219,187.771444 C115.629831,186.530264 115.629831,185.292149 115.629831,182.812855 C115.629831,180.33356 115.629831,176.61615 116.247443,174.755913 C116.865055,172.89874 118.103337,172.89874 121.812067,169.178266 C125.520798,165.460856 131.703034,158.026037 139.123552,150.591217 C146.541012,143.153333 155.193697,135.718514 160.140709,130.140867 C165.087721,124.56322 166.322945,120.84581 167.558169,115.88722 C168.796451,110.931696 170.031675,104.734991 171.887569,99.7794663 C173.740406,94.8178122 176.213912,91.1034671 178.069805,86.7639352 C179.922642,82.4244033 181.160924,77.4688785 184.869654,73.7514687 C188.578384,70.0371236 194.76062,67.5578289 200.942856,64.456412 C207.125093,61.3580597 213.307329,57.6437146 217.016059,53.9232402 C220.727847,50.2058305 221.960014,46.4884207 224.43352,42.7710109 C226.910083,39.0505365 230.615756,35.3331268 235.565825,31.615717 C240.50978,27.8983073 246.688958,24.1808975 251.632913,21.0825453 C256.582982,17.984193 260.291713,15.5079629 263.074025,13.338197 C265.63314,11.3431156 267.406482,9.61159329 273.435844,0.681228874" transform="translate(53.159 696.969)"/>
      </g>
    </g>
    <path fill="#173E6F" fill-rule="nonzero" d="M155.448,135.664 L155.448,125.872 L168.792,125.872 L168.792,132.496 L173.688,132.496 L173.688,121.936 L155.448,121.936 L155.448,120.112 L171.816,120.112 L171.816,115.984 L134.136,115.984 L134.136,120.112 L150.552,120.112 L150.552,121.936 L132.312,121.936 L132.312,132.496 L137.208,132.496 L137.208,125.872 L150.552,125.872 L150.552,135.664 L155.448,135.664 Z M158.04,131.104 C161.544,130.768 164.616,130.288 167.208,129.664 L165.96,126.352 C163.416,127.168 160.536,127.696 157.368,127.984 L158.04,131.104 Z M147.384,131.104 L148.584,128.176 C145.848,127.648 142.968,127.264 139.992,126.976 L138.408,129.952 C141.528,130.24 144.504,130.624 147.384,131.104 Z M139.032,136.432 C143.592,135.952 146.808,135.424 148.68,134.752 L147.624,131.728 C145.704,132.4 142.536,132.928 138.072,133.216 L139.032,136.432 Z M166.584,136.528 L167.928,133.312 C164.952,132.64 161.832,132.112 158.616,131.776 L157.128,134.56 C160.392,135.04 163.512,135.664 166.584,136.528 Z M169.992,141.616 L169.992,137.392 L136.008,137.392 L136.008,141.616 L169.992,141.616 Z M169.224,159.424 L172.584,155.968 C170.376,153.28 167.688,150.544 164.52,147.808 L173.784,147.808 L173.784,143.536 L132.264,143.536 L132.264,147.808 L143.448,147.808 C141.336,150.304 139.704,152.08 138.552,153.04 C137.592,153.664 136.536,154.096 135.336,154.288 L136.584,158.32 C146.856,157.936 156.84,157.12 166.44,155.968 C167.448,157.12 168.36,158.272 169.224,159.424 Z M143.736,153.808 C145.8,151.936 147.624,149.92 149.208,147.808 L161.208,147.808 L159.576,149.392 C160.68,150.352 161.784,151.312 162.84,152.32 C157.656,152.848 151.32,153.328 143.736,153.808 Z M216.52,158.848 L216.52,135.424 C218.824,141.568 221.416,146.656 224.344,150.784 L227.656,146.272 C223,141.376 219.4,135.424 216.856,128.32 L226.072,128.32 L226.072,123.472 L216.52,123.472 L216.52,114.592 L211.48,114.592 L211.48,123.472 L203.272,123.472 L203.272,128.32 L211.192,128.32 C208.36,135.856 204.568,141.856 199.816,146.368 L202.696,151.168 C206.056,147.04 208.984,141.808 211.48,135.472 L211.48,158.848 L216.52,158.848 Z M195.928,158.848 L195.928,135.328 C197.176,137.056 198.712,139.312 200.488,142.096 L203.464,137.68 C200.92,134.944 198.424,132.496 195.928,130.288 L195.928,128.32 L201.928,128.32 L201.928,123.472 L195.928,123.472 L195.928,114.592 L190.888,114.592 L190.888,123.472 L183.976,123.472 L183.976,128.32 L190.6,128.32 C188.92,133.696 186.28,138.496 182.728,142.72 L184.888,148.288 C187.288,144.64 189.304,140.656 190.888,136.24 L190.888,158.848 L195.928,158.848 Z" mask="url(#img-location-yunlin-ch-b)"/>
    <g fill-rule="nonzero" mask="url(#img-location-yunlin-ch-b)">
      <g transform="translate(148 27)">
        <path fill="#FFF" d="M32.9998182,0 C51.2254872,0 66,14.998369 66,33.4998154 C66,51.1530281 52.5496996,65.6168018 35.4847565,66.9064537 L32.628536,71.9208443 C32.5684367,72.0263852 32.4315633,72.0263852 32.3718114,71.9208443 L32.3718114,71.9208443 L29.4591826,66.8094371 C12.898824,65.0161967 0,50.7873404 0,33.4998154 C0,14.998369 14.7745128,0 32.9998182,0 Z"/>
        <path fill="#06F3F9" d="M49.3576534,44.1802628 C50.683973,44.7065438 51.3400021,46.2291059 50.8236626,47.5805894 C47.941011,55.1251922 40.9448305,60 32.9997116,60 C25.0549584,60 18.0587779,55.1248195 15.176492,47.5802167 C14.6597868,46.2287332 15.3161816,44.7061711 16.6421355,44.1798901 C17.9680894,43.6532364 19.4618902,44.3222692 19.9782297,45.6737528 C22.0841781,51.1862849 27.1952807,54.7472539 32.9997116,54.7472539 C38.8045083,54.7472539 43.9156109,51.1862849 46.0215592,45.6741255 C46.537533,44.322642 48.0309681,43.6532364 49.3576534,44.1802628 Z M42.5,23 C47.1869541,23 51,26.8131292 51,31.5001856 C51,36.187242 47.1869541,40 42.5,40 C37.8130459,40 34,36.187242 34,31.5001856 C34,26.8131292 37.8130459,23 42.5,23 Z M23.3982637,11.000563 C27.996304,10.9478957 31.7760707,14.5970364 31.9839268,19.1698795 C31.992694,19.3621334 31.8392677,19.5234498 31.6482154,19.5234498 L31.6482154,19.5234498 L27.133829,19.5234498 C26.9610418,19.5234498 26.8211316,19.3893878 26.8032318,19.2162856 C26.6300793,17.546034 25.2357264,16.2363505 23.5389045,16.214989 C21.6875604,16.1917859 20.172293,17.7659106 20.172293,19.633204 L20.172293,19.633204 L20.172293,31.433246 C20.172293,33.2622359 21.6327653,34.7534925 23.4395427,34.7847982 C25.299654,34.8164722 26.8222275,33.241611 26.8222275,31.3662149 L26.8222275,31.3662149 L26.8222275,28.0805888 L23.7865784,28.0805888 C23.601371,28.0805888 23.4512324,27.9292165 23.4512324,27.7424872 L23.4512324,27.7424872 L23.4512324,23.7574547 C23.4512324,23.5707254 23.601371,23.4193531 23.7865784,23.4193531 L23.7865784,23.4193531 L31.832327,23.4193531 C31.9251134,23.4193531 32,23.4948551 32,23.5884039 L32,23.5884039 L32,28.0805888 L31.9941552,28.0805888 L31.9941552,31.433246 C31.9941552,36.1847158 28.1369448,40.0456303 23.4132411,39.9995925 C18.7355652,39.953923 15,36.0407095 15,31.3238601 L15,31.3238601 L15,19.6755588 C15,14.9653388 18.7264327,11.0547035 23.3982637,11.000563 Z M42.5,28 C40.5701384,28 39,29.5699345 39,31.5 C39,33.4300655 40.5701384,35 42.5,35 C44.4298616,35 46,33.4300655 46,31.5 C46,29.5699345 44.4298616,28 42.5,28 Z"/>
      </g>
    </g>
  </g>
</svg>
