<svg xmlns="http://www.w3.org/2000/svg" xmlns:xlink="http://www.w3.org/1999/xlink" width="362" height="200" viewBox="0 0 362 200">
  <defs>
    <rect id="img-location-tainan-a" width="362" height="200" x="0" y="0" rx="20"/>
  </defs>
  <g fill="none" fill-rule="evenodd">
    <mask id="img-location-tainan-b" fill="#fff">
      <use xlink:href="#img-location-tainan-a"/>
    </mask>
    <use fill="#06F3F9" xlink:href="#img-location-tainan-a"/>
    <g mask="url(#img-location-tainan-b)" opacity=".6">
      <g transform="translate(77 -748)">
        <path fill="#FFF" d="M54.332114,924.876123 C65.4470971,947.113854 74.7085652,965.645805 80.574467,976.146022 C86.4403688,986.649294 88.9076508,989.117777 91.3779863,992.518051 C93.8452683,995.912215 96.3186574,1000.23817 97.5522984,1003.32683 C98.7889929,1006.41243 98.7889929,1008.26685 98.4775291,1009.19558 C98.1691189,1010.11821 97.5522984,1010.11821 95.6987834,1010.73533 C93.8452683,1011.35856 90.7611658,1012.5928 89.8328815,1015.06434 C88.9076508,1017.53282 90.1443454,1021.2386 93.8452683,1026.7988 C97.5522984,1032.359 103.72661,1039.77055 108.047407,1044.71363 C112.371258,1049.65671 114.83854,1052.12519 117.308876,1054.59673 C119.779211,1057.06826 122.249547,1059.53675 124.25574,1061.54392 C126.261933,1063.55414 127.807038,1065.09694 128.423859,1066.33424 C129.040679,1067.56848 128.732269,1068.49416 128.268127,1068.95853 C127.807038,1069.41984 127.187164,1069.41984 125.336703,1068.34141 C123.483188,1067.25687 120.396032,1065.09694 118.85398,1064.32707 C117.308876,1063.55414 117.308876,1064.17126 117.308876,1064.94419 C117.308876,1065.71712 117.308876,1066.6428 119.159337,1068.1856 C121.012852,1069.73146 124.719882,1071.89138 127.807038,1072.97593 C130.891141,1074.05436 133.361476,1074.05436 135.214991,1074.51567 C137.065453,1074.9831 138.302147,1075.90878 140.772483,1077.60433 C143.239765,1079.306 146.946795,1081.77448 151.267592,1084.24602 C155.588389,1086.72061 160.52906,1089.18909 164.233036,1091.04351 C167.937013,1092.89487 170.407349,1094.12911 172.260864,1094.12911 C174.111325,1094.12911 175.344966,1092.89487 176.581661,1091.04351 C177.815302,1089.18909 179.051996,1086.72061 180.285637,1086.09738 C181.519278,1085.48331 182.755973,1086.72061 183.989614,1088.57197 C185.226308,1090.42333 186.459949,1092.89487 187.69359,1094.74929 C188.930285,1096.60065 190.163926,1097.83795 192.017441,1099.07524 C193.867902,1100.30948 196.338238,1101.54373 199.425394,1103.08653 C202.51255,1104.63238 206.216526,1106.48375 209.923556,1110.18953 C228.446493,1128.72453 243.262399,1141.69629 251.907046,1148.79928 C260.54864,1155.90228 263.018976,1157.13652 264.25567,1158.37382 C265.489311,1159.60806 265.489311,1160.8423 268.271111,1166.09394 C271.046803,1171.34558 276.601241,1180.61155 291.423254,1202.84928 C295.124177,1210.26084 295.124177,1212.11526 294.507357,1214.89536 C293.890536,1217.67545 292.656895,1221.38123 291.423254,1225.70413 C290.18656,1230.03009 288.952919,1234.97011 288.333045,1238.05877 C287.719278,1241.14437 287.719278,1242.38472 288.952919,1244.85321 C290.18656,1247.32474 292.656895,1251.03052 296.666228,1255.97054 C300.684722,1260.91362 306.23916,1267.09399 309.634727,1272.96275 C313.030293,1278.82845 314.263934,1284.38865 316.117449,1287.16874 C317.970964,1289.94579 320.438246,1289.94579 321.67494,1288.40298 C322.908581,1286.85713 322.908581,1283.77152 323.220045,1280.37125 C323.525402,1276.97403 324.142222,1273.26825 325.070507,1271.41689 C325.995737,1269.56247 327.229378,1269.56247 328.774483,1270.48815 C330.319588,1271.41689 332.17005,1273.26825 339.581056,1280.67981 C350.692986,1284.38865 350.692986,1288.09442 351.001396,1291.18003 C351.309806,1294.27174 351.926627,1296.74328 353.160268,1297.97752 C354.396962,1299.21176 356.250477,1299.21176 357.175708,1298.59464 C358.100939,1297.97752 358.100939,1296.74328 358.720813,1293.0375 C359.337633,1289.32867 360.571274,1283.15135 360.571274,1278.20827 C360.571274,1273.26825 359.337633,1269.56247 359.646044,1263.0766 C359.954454,1256.59072 361.804915,1247.32474 361.804915,1239.91013 C361.804915,1236.20435 367.362407,1230.64721 370.141153,1227.24999 C372.919898,1223.84972 372.919898,1222.61547 371.686257,1221.38123 C370.449563,1220.14394 367.979227,1218.9097 366.125712,1216.43816 C364.275251,1213.96662 363.04161,1210.26084 363.35002,1200.99486 C363.65843,1191.72889 365.511945,1176.90577 361.804915,1158.37382 C358.100939,1147.25343 359.954454,1139.84187 360.882738,1132.43031 C361.804915,1125.01875 361.804915,1117.60414 363.65843,1112.047 C365.511945,1106.48375 369.212868,1102.77797 372.303078,1097.21777 C375.390234,1091.66063 377.857516,1084.24602 378.474336,1078.68887 C379.091157,1073.12562 377.857516,1069.41984 379.091157,1063.24558 C380.327851,1057.06826 384.034882,1048.41635 385.885343,1041.62497 C387.738858,1034.83053 387.738858,1029.88746 390.822961,1023.08997 C393.910117,1016.29858 400.084429,1007.64973 412.433053,992.823556 C424.781677,978.000439 443.304613,956.99695 453.182902,945.259437 C463.064244,933.521923 464.297885,931.050385 464.297885,928.581902 C464.297885,926.110365 463.064244,923.641882 462.44437,920.550168 C461.827549,917.46151 461.827549,913.75573 464.297885,911.904368 C466.765167,910.049951 471.708891,910.049951 475.409814,910.049951 C479.113791,910.049951 481.58718,910.049951 483.437641,908.81571 C485.291156,907.578413 486.524797,905.106875 492.079235,895.226834 C497.639781,885.343738 507.515016,868.042973 516.159663,854.457152 C524.804311,840.865222 532.212264,830.985181 534.682599,824.187688 C537.152935,817.390195 534.682599,813.684416 533.445905,809.981691 C532.212264,806.275912 532.212264,802.567078 531.595443,798.244178 C530.978623,793.921278 529.741928,788.981257 530.361802,785.272423 C530.978623,781.566644 533.445905,779.092051 537.769755,767.977768 C542.090552,756.857376 548.267918,737.088128 551.355074,725.353669 C554.439177,713.619211 554.439177,709.910377 553.822356,706.204597 C553.205536,702.498818 551.971895,698.789984 551.971895,696.318446 C551.971895,693.849963 553.205536,692.615722 554.439177,690.761305 C555.675871,688.909943 556.909512,686.438405 557.529386,683.966867 C558.143153,681.495329 558.143153,679.023791 556.292692,675.009452 C554.439177,670.992057 550.7352,665.434916 550.7352,661.729137 C550.7352,654.314523 554.439177,652.463161 556.292692,649.683063 C558.143153,646.902964 558.143153,643.197185 559.999722,631.459672 C561.84713,619.722158 565.55416,599.959021 568.024495,583.278432 C570.494831,566.600897 571.728472,553.008967 572.965166,543.125871 C574.198807,533.242774 575.432448,527.065457 576.669143,520.271019 C577.902784,513.476582 579.136425,506.065023 581.60676,499.270585 C584.074042,492.473092 587.778019,486.295775 589.634587,482.589996 C591.485049,478.884217 591.485049,477.64692 590.868228,475.178438 C590.251408,472.7069 589.017767,469.001121 588.397893,465.292286 C587.778019,461.589562 587.778019,457.883783 588.397893,454.174949 C589.017767,450.469169 590.251408,446.76339 592.101869,441.820314 C593.955384,436.880294 596.422666,430.702977 597.659361,426.994142 C598.893002,423.288363 598.893002,422.054122 597.659361,418.965463 C596.422666,415.876805 593.955384,410.933729 593.338564,408.465246 C592.71869,405.993708 593.955384,405.993708 600.126643,401.670808 C606.304009,397.344853 617.415938,388.699054 622.97343,383.755978 C628.530921,378.812902 628.530921,377.578661 627.914101,374.490002 C627.29728,371.401344 626.060586,366.458268 626.060586,362.752489 C626.060586,359.046709 627.29728,356.575172 629.147742,352.252272 C631.001257,347.926317 633.468539,341.749 637.172515,335.571683 C640.879545,329.397421 645.817163,323.220103 648.287498,317.659907 C650.75478,312.099711 650.75478,307.15969 651.991475,303.453911 C653.228169,299.745076 655.695451,297.273539 656.932146,292.950639 C658.165787,288.627739 658.165787,282.450422 660.019302,276.890225 C661.872817,271.330029 665.576794,266.390008 667.427255,263.30135 C669.28077,260.212691 669.28077,258.975395 668.66395,258.358274 C668.044076,257.741153 666.810435,257.741153 663.106458,254.035374 C659.399428,250.329595 653.228169,242.914981 649.521139,238.592081 C645.817163,234.269181 644.583522,233.031885 643.966701,231.797644 C643.349881,230.560347 643.349881,229.326106 642.730007,225.620327 C642.113186,221.914547 640.879545,215.73723 640.262725,209.559913 C639.645904,203.382596 639.645904,197.205279 639.02603,193.4995 C638.40921,189.79372 637.172515,188.556424 637.789336,185.467765 C638.40921,182.379107 640.879545,177.439086 642.730007,173.113131 C644.583522,168.790231 645.817163,165.084452 647.670678,160.141376 C649.521139,155.198301 651.991475,149.024039 656.315325,142.226546 C660.639176,135.432108 666.810435,128.02055 671.131232,123.080529 C675.452029,118.137453 677.925418,115.665915 680.3927,114.431674 C682.863035,113.194378 685.333371,113.194378 687.803706,112.577257 C690.270988,111.960136 692.741324,110.725895 693.978018,109.488598 C695.211659,108.254357 695.211659,107.017061 694.594839,105.165698 C693.978018,103.311281 692.741324,100.839743 690.270988,98.9883813 C687.803706,97.1370192 684.096676,95.8997228 681.012574,95.2826021 C677.925418,94.6654814 675.452029,94.6654814 673.601567,92.1939436 C671.748052,89.7224057 670.514411,84.7823851 668.044076,80.4564301 C665.576794,76.1335301 661.872817,72.4277509 657.548966,70.5733338 C653.228169,68.7189166 648.287498,68.7189166 643.966701,68.1017959 C639.645904,67.4846752 635.938874,66.2473788 632.234898,65.0131374 C628.530921,63.778896 624.823891,62.5415995 621.736735,61.3073581 C618.652633,60.0731167 616.182297,58.8358203 612.475267,58.2186996 C608.771291,57.6015789 603.833673,57.6015789 599.509822,56.9844582 C595.189025,56.3642824 591.485049,55.130041 589.017767,53.278679 C586.544378,51.4242618 585.310737,48.952724 581.915171,45.8640654 C578.519604,42.7754069 572.965166,39.0696276 569.258136,31.6550141 C550.7352,27.9522899 550.7352,26.0978728 549.501559,22.0835332 C548.267918,18.0661385 545.797582,11.8888215 542.710426,7.56592152 C539.62327,3.24302158 535.91624,0.771483734 530.978623,0.151307983 C526.041005,-0.465812715 519.866693,0.771483734 513.072507,4.47726297 C506.281375,8.18304221 498.873422,14.3603593 492.079235,19.303435 C485.291156,24.2434556 479.113791,27.9522899 475.409814,32.2751899 C471.708891,36.5980898 470.472197,41.5411655 469.238556,45.2469447 C468.001861,48.952724 466.765167,51.4242618 465.531526,53.278679 C464.297885,55.130041 463.064244,56.3642824 458.740393,58.8358203 C454.416543,61.3073581 447.011643,65.0131374 440.834277,67.4846752 C434.663019,69.9562131 429.725401,71.1904545 421.0777,73.0448716 C412.433053,74.8962337 400.084429,77.3677715 393.293296,79.8393094 C386.502163,82.3108472 385.268523,84.7823851 379.091157,89.7224057 C372.919898,94.6654814 361.804915,102.07704 355.016836,106.39994 C348.22265,110.725895 345.755368,111.960136 342.051392,114.431674 C338.344362,116.900157 333.406744,120.608991 328.463019,125.549012 C323.525402,130.492087 318.587784,136.669405 313.650167,143.463842 C308.709496,150.25828 303.768825,157.672894 298.211333,163.850211 C292.656895,170.024473 286.47953,174.967548 283.395427,181.761986 C280.308271,188.556424 280.308271,197.205279 279.691451,203.999717 C279.071577,210.794155 277.834882,215.73723 277.221115,220.06013 C276.601241,224.38303 276.601241,228.091864 275.3676,230.560347 C274.133959,233.031885 271.663623,234.269181 268.576467,238.592081 C265.489311,242.914981 261.785335,250.329595 258.081358,254.652495 C254.377382,258.975395 250.670352,260.212691 246.966375,260.829812 C243.262399,261.446933 239.558422,261.446933 236.471266,263.30135 C233.38411,265.155767 230.913775,268.861546 225.973104,274.418687 C221.035486,279.978884 213.627533,287.390442 209.923556,294.805056 C198.808573,317.042786 191.40062,330.014541 183.989614,342.677736 C176.581661,355.34093 169.170654,367.695564 164.849857,376.344419 C160.52906,384.990219 159.295419,389.933295 156.82203,396.727733 C154.354748,403.52217 150.650771,412.171025 146.326921,418.965463 C142.006124,425.759901 137.065453,430.702977 132.127835,439.348777 C127.187164,447.997631 122.249547,460.352266 118.542517,468.384 C114.83854,476.412679 112.371258,480.118458 109.284102,484.444413 C106.193892,488.767313 102.489916,493.710389 98.7889929,498.65041 C95.0819629,503.593485 91.3779863,508.533506 87.0571893,515.327944 C82.7333387,522.125436 77.7957212,530.774291 74.3971014,540.654333 C71.0015351,550.540484 69.1510736,561.657822 58.0360905,572.778215 C43.2201844,591.307111 37.6626928,600.576141 32.4136115,610.767798 C27.1675838,620.959455 22.2269127,632.076792 19.1397567,641.962944 C16.0526006,651.84604 14.8189597,660.49184 14.1990856,668.523574 C13.5822651,676.555309 13.5822651,683.966867 14.1990856,690.144184 C14.8189597,696.318446 16.0526006,701.261522 16.6694211,706.204597 C17.2892952,711.144618 17.2892952,716.087694 17.2892952,722.882132 C17.2892952,729.676569 17.2892952,738.325424 16.6694211,745.736983 C16.0526006,753.148541 14.8189597,759.328913 13.5822651,767.357593 C12.3486241,775.386272 11.1149831,785.272423 9.26146809,795.77264 C7.40795304,806.275912 4.94067107,817.390195 3.08715603,824.187688 C1.23364099,830.985181 0,833.453663 0,835.308081 C0,837.159443 1.23364099,838.393684 2.47033554,839.63098 C3.70397652,840.865222 4.94067107,842.099463 5.55749157,847.662715 C6.17431206,853.219856 6.17431206,863.102952 7.40795304,869.283324 C8.6446476,875.457587 11.1149831,877.929124 18.8313464,885.649243 C26.5477097,893.372417 39.5131543,906.344172 54.332114,924.876123" opacity=".801"/>
        <path stroke="#FFF" stroke-width="6.208" d="M54.332114,924.876123 C65.4470971,947.113854 74.7085652,965.645805 80.574467,976.146022 C86.4403688,986.649294 88.9076508,989.117777 91.3779863,992.518051 C93.8452683,995.912215 96.3186574,1000.23817 97.5522984,1003.32683 C98.7889929,1006.41243 98.7889929,1008.26685 98.4775291,1009.19558 C98.1691189,1010.11821 97.5522984,1010.11821 95.6987834,1010.73533 C93.8452683,1011.35856 90.7611658,1012.5928 89.8328815,1015.06434 C88.9076508,1017.53282 90.1443454,1021.2386 93.8452683,1026.7988 C97.5522984,1032.359 103.72661,1039.77055 108.047407,1044.71363 C112.371258,1049.65671 114.83854,1052.12519 117.308876,1054.59673 C119.779211,1057.06826 122.249547,1059.53675 124.25574,1061.54392 C126.261933,1063.55414 127.807038,1065.09694 128.423859,1066.33424 C129.040679,1067.56848 128.732269,1068.49416 128.268127,1068.95853 C127.807038,1069.41984 127.187164,1069.41984 125.336703,1068.34141 C123.483188,1067.25687 120.396032,1065.09694 118.85398,1064.32707 C117.308876,1063.55414 117.308876,1064.17126 117.308876,1064.94419 C117.308876,1065.71712 117.308876,1066.6428 119.159337,1068.1856 C121.012852,1069.73146 124.719882,1071.89138 127.807038,1072.97593 C130.891141,1074.05436 133.361476,1074.05436 135.214991,1074.51567 C137.065453,1074.9831 138.302147,1075.90878 140.772483,1077.60433 C143.239765,1079.306 146.946795,1081.77448 151.267592,1084.24602 C155.588389,1086.72061 160.52906,1089.18909 164.233036,1091.04351 C167.937013,1092.89487 170.407349,1094.12911 172.260864,1094.12911 C174.111325,1094.12911 175.344966,1092.89487 176.581661,1091.04351 C177.815302,1089.18909 179.051996,1086.72061 180.285637,1086.09738 C181.519278,1085.48331 182.755973,1086.72061 183.989614,1088.57197 C185.226308,1090.42333 186.459949,1092.89487 187.69359,1094.74929 C188.930285,1096.60065 190.163926,1097.83795 192.017441,1099.07524 C193.867902,1100.30948 196.338238,1101.54373 199.425394,1103.08653 C202.51255,1104.63238 206.216526,1106.48375 209.923556,1110.18953 C228.446493,1128.72453 243.262399,1141.69629 251.907046,1148.79928 C260.54864,1155.90228 263.018976,1157.13652 264.25567,1158.37382 C265.489311,1159.60806 265.489311,1160.8423 268.271111,1166.09394 C271.046803,1171.34558 276.601241,1180.61155 291.423254,1202.84928 C295.124177,1210.26084 295.124177,1212.11526 294.507357,1214.89536 C293.890536,1217.67545 292.656895,1221.38123 291.423254,1225.70413 C290.18656,1230.03009 288.952919,1234.97011 288.333045,1238.05877 C287.719278,1241.14437 287.719278,1242.38472 288.952919,1244.85321 C290.18656,1247.32474 292.656895,1251.03052 296.666228,1255.97054 C300.684722,1260.91362 306.23916,1267.09399 309.634727,1272.96275 C313.030293,1278.82845 314.263934,1284.38865 316.117449,1287.16874 C317.970964,1289.94579 320.438246,1289.94579 321.67494,1288.40298 C322.908581,1286.85713 322.908581,1283.77152 323.220045,1280.37125 C323.525402,1276.97403 324.142222,1273.26825 325.070507,1271.41689 C325.995737,1269.56247 327.229378,1269.56247 328.774483,1270.48815 C330.319588,1271.41689 332.17005,1273.26825 339.581056,1280.67981 C350.692986,1284.38865 350.692986,1288.09442 351.001396,1291.18003 C351.309806,1294.27174 351.926627,1296.74328 353.160268,1297.97752 C354.396962,1299.21176 356.250477,1299.21176 357.175708,1298.59464 C358.100939,1297.97752 358.100939,1296.74328 358.720813,1293.0375 C359.337633,1289.32867 360.571274,1283.15135 360.571274,1278.20827 C360.571274,1273.26825 359.337633,1269.56247 359.646044,1263.0766 C359.954454,1256.59072 361.804915,1247.32474 361.804915,1239.91013 C361.804915,1236.20435 367.362407,1230.64721 370.141153,1227.24999 C372.919898,1223.84972 372.919898,1222.61547 371.686257,1221.38123 C370.449563,1220.14394 367.979227,1218.9097 366.125712,1216.43816 C364.275251,1213.96662 363.04161,1210.26084 363.35002,1200.99486 C363.65843,1191.72889 365.511945,1176.90577 361.804915,1158.37382 C358.100939,1147.25343 359.954454,1139.84187 360.882738,1132.43031 C361.804915,1125.01875 361.804915,1117.60414 363.65843,1112.047 C365.511945,1106.48375 369.212868,1102.77797 372.303078,1097.21777 C375.390234,1091.66063 377.857516,1084.24602 378.474336,1078.68887 C379.091157,1073.12562 377.857516,1069.41984 379.091157,1063.24558 C380.327851,1057.06826 384.034882,1048.41635 385.885343,1041.62497 C387.738858,1034.83053 387.738858,1029.88746 390.822961,1023.08997 C393.910117,1016.29858 400.084429,1007.64973 412.433053,992.823556 C424.781677,978.000439 443.304613,956.99695 453.182902,945.259437 C463.064244,933.521923 464.297885,931.050385 464.297885,928.581902 C464.297885,926.110365 463.064244,923.641882 462.44437,920.550168 C461.827549,917.46151 461.827549,913.75573 464.297885,911.904368 C466.765167,910.049951 471.708891,910.049951 475.409814,910.049951 C479.113791,910.049951 481.58718,910.049951 483.437641,908.81571 C485.291156,907.578413 486.524797,905.106875 492.079235,895.226834 C497.639781,885.343738 507.515016,868.042973 516.159663,854.457152 C524.804311,840.865222 532.212264,830.985181 534.682599,824.187688 C537.152935,817.390195 534.682599,813.684416 533.445905,809.981691 C532.212264,806.275912 532.212264,802.567078 531.595443,798.244178 C530.978623,793.921278 529.741928,788.981257 530.361802,785.272423 C530.978623,781.566644 533.445905,779.092051 537.769755,767.977768 C542.090552,756.857376 548.267918,737.088128 551.355074,725.353669 C554.439177,713.619211 554.439177,709.910377 553.822356,706.204597 C553.205536,702.498818 551.971895,698.789984 551.971895,696.318446 C551.971895,693.849963 553.205536,692.615722 554.439177,690.761305 C555.675871,688.909943 556.909512,686.438405 557.529386,683.966867 C558.143153,681.495329 558.143153,679.023791 556.292692,675.009452 C554.439177,670.992057 550.7352,665.434916 550.7352,661.729137 C550.7352,654.314523 554.439177,652.463161 556.292692,649.683063 C558.143153,646.902964 558.143153,643.197185 559.999722,631.459672 C561.84713,619.722158 565.55416,599.959021 568.024495,583.278432 C570.494831,566.600897 571.728472,553.008967 572.965166,543.125871 C574.198807,533.242774 575.432448,527.065457 576.669143,520.271019 C577.902784,513.476582 579.136425,506.065023 581.60676,499.270585 C584.074042,492.473092 587.778019,486.295775 589.634587,482.589996 C591.485049,478.884217 591.485049,477.64692 590.868228,475.178438 C590.251408,472.7069 589.017767,469.001121 588.397893,465.292286 C587.778019,461.589562 587.778019,457.883783 588.397893,454.174949 C589.017767,450.469169 590.251408,446.76339 592.101869,441.820314 C593.955384,436.880294 596.422666,430.702977 597.659361,426.994142 C598.893002,423.288363 598.893002,422.054122 597.659361,418.965463 C596.422666,415.876805 593.955384,410.933729 593.338564,408.465246 C592.71869,405.993708 593.955384,405.993708 600.126643,401.670808 C606.304009,397.344853 617.415938,388.699054 622.97343,383.755978 C628.530921,378.812902 628.530921,377.578661 627.914101,374.490002 C627.29728,371.401344 626.060586,366.458268 626.060586,362.752489 C626.060586,359.046709 627.29728,356.575172 629.147742,352.252272 C631.001257,347.926317 633.468539,341.749 637.172515,335.571683 C640.879545,329.397421 645.817163,323.220103 648.287498,317.659907 C650.75478,312.099711 650.75478,307.15969 651.991475,303.453911 C653.228169,299.745076 655.695451,297.273539 656.932146,292.950639 C658.165787,288.627739 658.165787,282.450422 660.019302,276.890225 C661.872817,271.330029 665.576794,266.390008 667.427255,263.30135 C669.28077,260.212691 669.28077,258.975395 668.66395,258.358274 C668.044076,257.741153 666.810435,257.741153 663.106458,254.035374 C659.399428,250.329595 653.228169,242.914981 649.521139,238.592081 C645.817163,234.269181 644.583522,233.031885 643.966701,231.797644 C643.349881,230.560347 643.349881,229.326106 642.730007,225.620327 C642.113186,221.914547 640.879545,215.73723 640.262725,209.559913 C639.645904,203.382596 639.645904,197.205279 639.02603,193.4995 C638.40921,189.79372 637.172515,188.556424 637.789336,185.467765 C638.40921,182.379107 640.879545,177.439086 642.730007,173.113131 C644.583522,168.790231 645.817163,165.084452 647.670678,160.141376 C649.521139,155.198301 651.991475,149.024039 656.315325,142.226546 C660.639176,135.432108 666.810435,128.02055 671.131232,123.080529 C675.452029,118.137453 677.925418,115.665915 680.3927,114.431674 C682.863035,113.194378 685.333371,113.194378 687.803706,112.577257 C690.270988,111.960136 692.741324,110.725895 693.978018,109.488598 C695.211659,108.254357 695.211659,107.017061 694.594839,105.165698 C693.978018,103.311281 692.741324,100.839743 690.270988,98.9883813 C687.803706,97.1370192 684.096676,95.8997228 681.012574,95.2826021 C677.925418,94.6654814 675.452029,94.6654814 673.601567,92.1939436 C671.748052,89.7224057 670.514411,84.7823851 668.044076,80.4564301 C665.576794,76.1335301 661.872817,72.4277509 657.548966,70.5733338 C653.228169,68.7189166 648.287498,68.7189166 643.966701,68.1017959 C639.645904,67.4846752 635.938874,66.2473788 632.234898,65.0131374 C628.530921,63.778896 624.823891,62.5415995 621.736735,61.3073581 C618.652633,60.0731167 616.182297,58.8358203 612.475267,58.2186996 C608.771291,57.6015789 603.833673,57.6015789 599.509822,56.9844582 C595.189025,56.3642824 591.485049,55.130041 589.017767,53.278679 C586.544378,51.4242618 585.310737,48.952724 581.915171,45.8640654 C578.519604,42.7754069 572.965166,39.0696276 569.258136,31.6550141 C550.7352,27.9522899 550.7352,26.0978728 549.501559,22.0835332 C548.267918,18.0661385 545.797582,11.8888215 542.710426,7.56592152 C539.62327,3.24302158 535.91624,0.771483734 530.978623,0.151307983 C526.041005,-0.465812715 519.866693,0.771483734 513.072507,4.47726297 C506.281375,8.18304221 498.873422,14.3603593 492.079235,19.303435 C485.291156,24.2434556 479.113791,27.9522899 475.409814,32.2751899 C471.708891,36.5980898 470.472197,41.5411655 469.238556,45.2469447 C468.001861,48.952724 466.765167,51.4242618 465.531526,53.278679 C464.297885,55.130041 463.064244,56.3642824 458.740393,58.8358203 C454.416543,61.3073581 447.011643,65.0131374 440.834277,67.4846752 C434.663019,69.9562131 429.725401,71.1904545 421.0777,73.0448716 C412.433053,74.8962337 400.084429,77.3677715 393.293296,79.8393094 C386.502163,82.3108472 385.268523,84.7823851 379.091157,89.7224057 C372.919898,94.6654814 361.804915,102.07704 355.016836,106.39994 C348.22265,110.725895 345.755368,111.960136 342.051392,114.431674 C338.344362,116.900157 333.406744,120.608991 328.463019,125.549012 C323.525402,130.492087 318.587784,136.669405 313.650167,143.463842 C308.709496,150.25828 303.768825,157.672894 298.211333,163.850211 C292.656895,170.024473 286.47953,174.967548 283.395427,181.761986 C280.308271,188.556424 280.308271,197.205279 279.691451,203.999717 C279.071577,210.794155 277.834882,215.73723 277.221115,220.06013 C276.601241,224.38303 276.601241,228.091864 275.3676,230.560347 C274.133959,233.031885 271.663623,234.269181 268.576467,238.592081 C265.489311,242.914981 261.785335,250.329595 258.081358,254.652495 C254.377382,258.975395 250.670352,260.212691 246.966375,260.829812 C243.262399,261.446933 239.558422,261.446933 236.471266,263.30135 C233.38411,265.155767 230.913775,268.861546 225.973104,274.418687 C221.035486,279.978884 213.627533,287.390442 209.923556,294.805056 C198.808573,317.042786 191.40062,330.014541 183.989614,342.677736 C176.581661,355.34093 169.170654,367.695564 164.849857,376.344419 C160.52906,384.990219 159.295419,389.933295 156.82203,396.727733 C154.354748,403.52217 150.650771,412.171025 146.326921,418.965463 C142.006124,425.759901 137.065453,430.702977 132.127835,439.348777 C127.187164,447.997631 122.249547,460.352266 118.542517,468.384 C114.83854,476.412679 112.371258,480.118458 109.284102,484.444413 C106.193892,488.767313 102.489916,493.710389 98.7889929,498.65041 C95.0819629,503.593485 91.3779863,508.533506 87.0571893,515.327944 C82.7333387,522.125436 77.7957212,530.774291 74.3971014,540.654333 C71.0015351,550.540484 69.1510736,561.657822 58.0360905,572.778215 C43.2201844,591.307111 37.6626928,600.576141 32.4136115,610.767798 C27.1675838,620.959455 22.2269127,632.076792 19.1397567,641.962944 C16.0526006,651.84604 14.8189597,660.49184 14.1990856,668.523574 C13.5822651,676.555309 13.5822651,683.966867 14.1990856,690.144184 C14.8189597,696.318446 16.0526006,701.261522 16.6694211,706.204597 C17.2892952,711.144618 17.2892952,716.087694 17.2892952,722.882132 C17.2892952,729.676569 17.2892952,738.325424 16.6694211,745.736983 C16.0526006,753.148541 14.8189597,759.328913 13.5822651,767.357593 C12.3486241,775.386272 11.1149831,785.272423 9.26146809,795.77264 C7.40795304,806.275912 4.94067107,817.390195 3.08715603,824.187688 C1.23364099,830.985181 0,833.453663 0,835.308081 C0,837.159443 1.23364099,838.393684 2.47033554,839.63098 C3.70397652,840.865222 4.94067107,842.099463 5.55749157,847.662715 C6.17431206,853.219856 6.17431206,863.102952 7.40795304,869.283324 C8.6446476,875.457587 11.1149831,877.929124 18.8313464,885.649243 C26.5477097,893.372417 39.5131543,906.344172 54.332114,924.876123 Z"/>
        <path stroke="#FFF" stroke-width="6.208" d="M86.2559071,585.174695 C86.2559071,586.408502 87.4882246,587.645364 88.7235924,588.882225 C89.95591,590.116033 91.1882275,591.34984 91.8043863,592.586702 C92.420545,593.820509 92.420545,595.054317 91.1882275,595.674274 C89.95591,596.291178 87.4882246,596.291178 85.0205393,596.908082 C82.5559042,597.524986 80.0882188,598.761847 77.6205336,599.375697 C75.1528481,599.998708 72.6882131,599.998708 71.4497949,600.612558 C70.2174774,601.232516 70.2174774,602.466323 70.2174774,604.320089 C70.2174774,606.1708 70.2174774,608.641469 70.8366865,610.49218 C71.4497949,612.342891 72.6882131,613.579753 75.7690069,614.199711 C78.852851,614.816614 83.7851714,614.816614 87.4882246,615.433518 C91.1882275,616.050422 93.6559129,617.287283 94.2720716,619.137994 C94.8882304,620.99176 93.6559129,623.459375 93.0428044,626.546947 C92.4510479,629.500145 92.420545,633.015275 93.500348,636.014282 C89.8857533,637.251144 87.2838551,637.663431 84.4043805,638.900292 C80.0882188,640.751003 75.1528481,644.45548 71.4497949,646.926149 C67.7528423,649.393764 65.285157,650.633679 62.8174716,653.101294 C60.3528366,655.571963 57.8851512,659.27644 55.4205161,662.360958 C52.9497805,665.448531 50.4820951,667.922254 48.6336188,670.389869 C46.7851425,672.860538 45.5467244,675.331207 44.3144069,678.418779 C43.0820894,681.506352 41.8467215,685.210829 41.2305628,688.298401 C40.614404,691.38292 40.614404,693.856643 39.9982452,701.885554 C39.3820865,709.91141 38.1497689,723.495509 37.5305599,732.758227 C36.9144011,742.020945 36.9144011,746.962283 36.2982424,750.046801 C35.6820836,753.137428 34.4497661,754.368182 33.2143982,755.608097 L29.5143953,759.312573 C28.2790275,760.546381 27.04671,761.780188 25.8143925,763.633954 C24.5790246,765.487719 23.3467071,767.958388 22.7305483,770.426003 C22.1143896,772.896672 22.1143896,775.364287 22.7305483,777.834956 C23.3467071,780.308679 24.5790246,782.776294 25.8143925,784.630059 C27.04671,786.48077 28.2790275,787.714578 29.5143953,792.039012 C30.7497632,796.360392 31.9820807,803.769345 33.2143982,808.093779 C34.4497661,812.415159 35.6820836,813.652021 39.3820865,816.736539 C43.0820894,819.824112 49.2497776,824.76545 52.3336217,828.469926 C55.4205161,832.177457 55.4205161,834.648126 55.4205161,838.349548 C55.4205161,842.054025 55.4205161,846.995363 54.7982568,850.699839 C54.182098,854.404315 52.9497805,856.878038 51.1013042,858.725696 C49.2497776,860.582515 46.7851425,861.816322 40.614404,864.286991 C34.4497661,866.754606 24.5790246,870.459083 19.6436539,873.549709 C14.7113335,876.637282 14.7113335,879.104897 13.479016,884.660085 C12.2436481,890.22138 9.77901308,898.867195 7.31132772,906.276148 C4.84669265,913.6851 2.37595701,919.8633 1.14363947,924.801584 C-0.0917283486,929.739868 -0.0917283486,933.444344 0.527480709,936.534971 C1.14363947,939.622544 2.37595701,942.090159 4.84669265,948.882208 C7.31132772,955.674257 11.0113306,966.79074 12.8598069,974.819651 C14.7113335,982.845507 14.7113335,987.786845 14.7113335,992.108225 C14.7113335,996.429606 14.7113335,1000.13408 15.3274923,1002.60781 C15.943651,1005.07542 17.1790189,1006.30923 19.6436539,1006.92919 C22.1143896,1007.54609 25.8143925,1007.54609 27.6628688,1008.7799 C29.5143953,1010.0137 29.5143953,1012.48743 29.5143953,1015.575 C29.5143953,1018.65952 29.5143953,1022.36399 30.1305541,1024.83466 C30.7497632,1027.30533 31.9820807,1028.54219 33.830557,1030.39291 C35.6820836,1032.24667 38.1497689,1034.71429 40.614404,1035.95115 C43.0820894,1037.18801 45.5467244,1037.18801 48.6336188,1038.42182 C51.717463,1039.65562 55.4205161,1042.12629 59.120519,1043.3601 C62.8174716,1044.59696 66.5174745,1044.59696 72.9932422,1044.59696 C74.4543315,1044.59696 76.0587845,1044.59696 77.6632376,1044.80769 C77.6510364,1044.73439 77.6357849,1044.6672 77.6205336,1044.59696 C73.9205306,1033.48048 75.7690069,1026.07153 76.6962953,1018.65952 C77.6205336,1011.25362 77.6205336,1003.84161 79.4690098,998.286425 C81.3235867,992.725129 85.0205393,989.020653 88.1043834,983.462411 C91.1882275,977.907223 93.6559129,970.495217 94.2720716,964.940029 C94.8882304,959.378733 93.6559129,955.674257 94.8882304,949.502165 C96.1205479,943.323966 99.8236011,934.678152 101.675128,927.889156 C103.523604,921.097107 103.523604,916.155769 106.607448,909.360666 C109.691292,902.571671 115.85898,893.925857 128.194357,879.104897 C140.529733,864.286991 159.029748,843.290886 168.900489,831.557499 C178.76818,819.824112 180.000498,817.353443 180.000498,814.885828 C180.000498,812.415159 178.76818,809.947544 178.152022,806.856917 C177.535863,803.769345 177.535863,800.064868 180.000498,798.214157 C182.468183,796.360392 187.403554,796.360392 191.103557,796.360392 C194.80356,796.360392 197.271245,796.360392 199.122772,795.126584 C200.971248,793.889723 202.206616,791.419054 207.755095,781.542486 C213.306625,771.65981 223.174316,754.368182 231.809689,740.787137 C240.445063,727.199985 247.845069,717.323417 250.309704,710.528314 C252.780439,703.733211 250.309704,700.028734 249.077386,696.327312 C247.845069,692.622836 247.845069,688.915305 247.22586,684.593925 C246.609701,680.272545 245.377383,675.331207 245.993542,671.62673 C246.609701,667.922254 249.077386,665.448531 253.396598,654.335102 C257.71276,643.221672 263.880448,623.459375 266.964292,611.729042 C270.048136,599.998708 270.048136,596.291178 269.431978,592.586702 C268.815819,588.882225 267.580451,585.174695 267.580451,582.704026 C267.580451,580.236411 268.815819,579.002603 270.048136,577.148838 C271.280454,575.298127 272.512771,572.827458 273.135031,570.353735 C273.748139,567.88612 273.748139,565.415451 271.896613,561.402523 C270.048136,557.38654 266.348133,551.831353 266.348133,548.126876 C266.348133,540.714869 270.048136,538.864158 271.896613,536.085037 C273.748139,533.305917 273.748139,529.60144 275.599666,517.868053 C277.448142,506.134666 281.151195,486.375422 283.61583,469.703751 C286.086566,453.029026 287.318884,439.444928 288.551201,429.565306 C289.786569,419.685684 291.018886,413.510539 292.251204,406.71849 C293.483521,399.926441 294.718889,392.517488 297.183524,385.722385 C299.65121,378.930336 303.351213,372.75519 305.202739,369.050714 C307.054266,365.346237 307.054266,364.109376 306.438107,361.641761 C305.818898,359.171092 304.58658,355.466615 303.970422,351.759085 C303.351213,348.054609 303.351213,344.353186 303.970422,340.645656 C304.58658,336.941179 305.818898,333.236703 307.670425,328.295365 C309.518901,323.357081 311.986586,317.181936 313.218904,313.474405 C314.454272,309.769929 314.454272,308.536121 313.218904,305.448548 C311.986586,302.360976 309.518901,297.419638 308.902742,294.952023 C308.286583,292.481354 309.518901,292.481354 315.686589,288.159974 C321.854277,283.83554 332.957336,275.192779 338.505815,270.251441 C344.060395,265.310103 344.060395,264.076296 343.441186,260.988723 C342.825027,257.901151 341.59271,252.959813 341.59271,249.255336 C341.59271,245.55086 342.825027,243.080191 344.676554,238.758811 C346.52503,234.434376 348.992716,228.259231 352.692719,222.084086 C356.395772,215.911994 361.328092,209.733795 363.792727,204.178607 C366.260413,198.620365 366.260413,193.682082 367.49273,189.977605 C368.728098,186.270075 371.195783,183.799406 372.428101,179.478026 C373.663469,175.156645 373.663469,168.9815 375.511945,163.423258 C377.366522,157.865017 381.063474,152.926733 382.915001,149.83916 C384.763477,146.751587 384.763477,145.514726 384.147319,144.897822 C383.53116,144.280918 382.298842,144.280918 378.598839,140.576442 C374.895786,136.871965 368.728098,129.459959 365.028095,125.138578 C361.328092,120.817198 360.092724,119.580337 359.476566,118.346529 C358.860407,117.109668 358.860407,115.87586 358.244248,112.171384 C357.628089,108.466907 356.395772,102.291762 355.776563,96.1166166 C355.160404,89.9414712 355.160404,83.7663258 354.541195,80.0587954 C353.928086,76.3573729 352.692719,75.1205114 353.308877,72.0329387 C353.928086,68.945366 356.395772,64.0070821 358.244248,59.6826479 C360.092724,55.3612678 361.328092,51.6567913 363.176568,46.7154534 C365.028095,41.7741155 367.49273,35.6020241 371.811942,28.806921 C376.131154,22.0148718 382.298842,14.6059189 386.615004,9.66763499 C390.897612,4.7659988 393.359197,2.29532985 395.80553,1.04930644 C388.930175,-0.157015237 385.391837,-0.0256941427 382.603871,0.401862908 C378.598839,1.02182063 376.131154,2.25562812 371.195783,4.72629707 C366.260413,7.19696603 358.860407,10.9014425 354.541195,13.9890152 C350.225033,17.0735339 348.992716,19.5472568 347.757348,22.0148718 C346.52503,24.4855408 345.292713,26.9562097 342.825027,28.806921 C340.357342,30.6606862 336.657339,31.8944937 334.189654,31.2775899 C331.725019,30.6606862 330.489651,28.1900172 329.254283,28.806921 C328.021966,29.4238247 326.786598,33.1313551 324.938121,36.2189278 C323.089645,39.3065005 320.62196,41.7741155 310.13506,48.5692186 C299.65121,55.3612678 281.151195,66.4746971 271.280454,72.6498425 C261.415813,78.8249879 260.180445,80.0587954 260.180445,83.7663258 C260.180445,87.4708022 261.415813,93.6459476 260.796604,97.3504241 C260.180445,101.054901 257.71276,102.291762 254.012757,104.142473 C250.309704,105.996238 245.377383,108.466907 239.212745,110.934522 C233.042007,113.405191 225.638951,115.87586 221.322789,117.726572 C218.409761,118.978703 216.899867,119.949868 215.469281,119.687226 C212.123112,125.334033 208.215689,130.72736 205.595489,135.0182 C202.206616,140.576442 200.971248,144.280918 200.355089,148.91075 C199.897546,152.343423 199.778584,156.28611 198.241238,159.605785 C199.72978,161.911539 199.653522,164.250887 198.503563,167.127735 C197.271245,170.215307 194.80356,173.919784 191.719716,177.627314 C188.635872,181.331791 184.938919,185.036267 180.619707,190.594509 C176.300495,196.149697 171.368175,203.561703 167.665122,207.883084 C166.576168,209.156593 165.593974,210.164406 164.669736,210.98898 C167.689524,216.574708 170.565948,220.93579 172.603543,224.246303 C175.068178,228.259231 176.300495,230.7299 178.152022,231.966761 C180.000498,233.200569 182.468183,233.200569 185.555078,233.200569 C188.635872,233.200569 192.335874,233.200569 195.419719,232.583665 C198.503563,231.966761 200.971248,230.7299 204.055092,230.7299 C207.138936,230.7299 210.84199,231.966761 214.541992,233.817473 C214.773815,233.933524 215.005637,234.052629 215.237459,234.174788 C204.76581,247.261088 198.829944,254.53872 194.187401,259.44341 C188.635872,265.310103 184.938919,267.780772 183.087392,269.634538 C181.235866,271.485249 181.235866,272.719056 181.235866,275.809683 C181.235866,278.894202 181.235866,283.83554 181.852025,288.159974 C182.468183,292.481354 183.700501,296.18583 186.171237,301.127168 C188.635872,306.065452 192.335874,312.240598 193.571242,315.32817 C194.80356,318.415743 193.571242,318.415743 191.103557,318.415743 C188.635872,318.415743 184.938919,318.415743 182.468183,319.652605 C180.000498,320.886412 178.76818,323.357081 178.152022,325.824696 C177.535863,328.295365 177.535863,330.766034 178.152022,333.236703 C178.76818,335.704318 180.000498,338.174987 179.384339,340.645656 C178.76818,343.116325 176.300495,345.586994 171.981283,351.142181 C167.665122,356.700423 161.500484,365.346237 158.416639,370.904479 C155.329745,376.459667 155.329745,378.930336 155.948954,380.784101 C156.565113,382.634812 157.79743,383.871673 159.029748,385.105481 C160.265116,386.342342 161.500484,387.57615 162.732801,389.426861 C163.968169,391.280626 165.200486,393.751295 165.200486,398.072676 C165.200486,402.394056 163.968169,408.572255 162.732801,413.510539 C161.500484,418.451877 160.265116,422.156353 159.029748,425.243926 C157.79743,428.331499 156.565113,430.802168 155.329745,433.269783 C154.097427,435.740452 152.86511,438.211121 150.397425,441.915597 C147.93279,445.620073 144.229736,450.561411 142.37821,453.648984 C140.529733,456.736557 140.529733,457.970364 141.762051,459.204172 C142.997419,460.441033 145.465104,461.677895 147.93279,463.528606 C150.397425,465.379317 152.86511,467.849986 154.713586,469.703751 C156.565113,471.554463 157.79743,472.791324 157.79743,474.645089 C157.79743,476.4958 156.565113,478.966469 154.713586,487.612284 C152.86511,496.255044 150.397425,511.076004 148.545898,518.484957 C146.697422,525.896964 145.465104,525.896964 142.37821,527.130771 C139.297416,528.364579 134.358995,530.835248 131.89436,533.305917 C129.426675,535.776586 129.426675,538.247254 129.426675,541.334827 C129.426675,544.419346 129.426675,548.126876 128.810516,549.980642 C128.194357,551.831353 126.962039,551.831353 123.258986,552.448257 C119.562034,553.06516 113.391295,554.302022 109.691292,554.918925 C105.991289,555.535829 104.755922,555.535829 103.523604,557.38654 C102.291286,559.24336 101.058969,562.947836 98.5912836,567.269216 C96.1205479,571.590596 92.420545,576.531934 89.95591,579.619507 C87.4882246,582.704026 86.2559071,583.940887 86.2559071,585.174695" transform="translate(284 114)"/>
        <path stroke="#FFF" stroke-width="6.208" d="M362.189339,1158.67765 C365.841797,1177.09962 364.001814,1191.83354 363.693113,1201.05979 C363.384411,1210.31963 364.619217,1214.02295 366.471426,1216.49286 C368.326691,1218.96276 370.799359,1220.19618 372.037222,1221.43266 C373.272027,1222.66608 373.272027,1223.8995 370.490658,1227.29752 C367.709288,1230.69249 362.146549,1236.24595 362.146549,1239.94928 C362.146549,1247.35898 360.29434,1256.61882 359.985639,1263.1004 C359.676937,1269.58198 360.911743,1273.2853 360.911743,1278.22205 C360.911743,1283.16185 359.676937,1289.33507 359.059534,1293.04145 C358.439075,1296.74477 358.439075,1297.9782 357.512971,1298.59491 C356.586866,1299.21162 354.731601,1299.21162 353.493739,1297.9782 C352.258933,1296.74477 351.64153,1294.27487 351.332828,1291.18521 C351.024127,1288.10165 351.024127,1284.39833 339.901705,1280.69195 C332.483701,1273.2853 330.631492,1271.43516 329.084928,1270.50704 C327.538364,1269.58198 326.303558,1269.58198 325.377454,1271.43516 C324.448293,1273.2853 323.83089,1276.98862 323.525245,1280.38359 C323.213487,1283.78161 323.213487,1286.86517 321.978681,1288.41001 C320.740819,1289.95179 318.271207,1289.95179 316.415942,1287.17658 C314.560677,1284.39833 313.325871,1278.84181 309.927099,1272.97694 C306.528326,1267.11513 300.968643,1260.93885 296.946355,1255.99905 C292.933236,1251.0623 290.460568,1247.35898 289.225762,1244.88908 C287.990956,1242.42223 287.990956,1241.1827 288.605303,1238.09914 C289.225762,1235.01253 290.460568,1230.07578 291.69843,1225.75269 C292.933236,1221.43266 294.168042,1217.72933 294.785445,1214.95108 C295.402848,1212.16977 295.402848,1210.31963 291.69843,1202.91298 C276.862421,1180.68998 271.302738,1171.43015 268.521369,1166.18199 C265.739999,1160.93383 265.739999,1159.70041 264.505193,1158.46699 C263.267331,1157.23051 260.794663,1155.99709 252.144909,1148.89879 C243.492099,1141.8005 228.659146,1128.83734 210.121776,1110.31461 C206.411246,1106.61129 202.703772,1104.76115 199.613701,1103.21632 C196.52363,1101.67454 194.050962,1100.44112 192.198753,1099.20769 C190.343488,1097.97122 189.108682,1096.73474 187.87082,1094.88155 C186.636014,1093.03142 185.401208,1090.56152 184.163346,1088.71138 C182.92854,1086.86125 181.690677,1085.62477 180.455872,1086.23843 C179.221066,1086.86125 177.983203,1089.32809 176.748398,1091.18128 C175.510535,1093.03142 174.275729,1094.26484 172.423521,1094.26484 C170.568255,1094.26484 168.095587,1093.03142 164.388113,1091.18128 C160.680639,1089.32809 155.735303,1086.86125 151.410426,1084.38829 C147.085549,1081.91839 143.375019,1079.45154 140.905407,1077.75101 C138.432739,1076.05658 137.194877,1075.13151 135.342668,1074.6644 C133.487403,1074.20339 131.014734,1074.20339 127.924663,1073.12567 C124.837649,1072.04184 121.127118,1069.88335 119.271853,1068.33852 C117.419644,1066.79674 117.419644,1065.87167 117.419644,1065.09926 C117.419644,1064.32684 117.419644,1063.71013 118.966208,1064.47949 C120.509715,1065.25191 123.599786,1067.4104 125.455052,1068.49422 C127.30726,1069.57194 127.924663,1069.57194 128.389244,1069.11094 C128.853824,1068.64687 129.162526,1067.72181 128.545123,1066.48838 C127.924663,1065.25191 126.381156,1063.71013 124.373068,1061.70123 C122.364981,1059.69539 119.892312,1057.22855 117.419644,1054.75865 C114.946976,1052.28875 112.477364,1049.8219 108.149431,1044.8821 C103.824554,1039.9423 97.644412,1032.53565 93.9338816,1026.97914 C90.229464,1021.42262 88.9916017,1017.7193 89.9177061,1015.2494 C90.8468669,1012.78255 93.9338816,1011.54913 95.7891468,1010.92631 C97.644412,1010.3096 98.2618149,1010.3096 98.5705164,1009.38758 C98.8822743,1008.45946 98.8822743,1006.60627 97.644412,1003.52271 C96.4065497,1000.4361 93.9338816,996.113013 91.4642699,992.721098 C88.9916017,989.323076 86.52199,986.856229 80.6505493,976.359916 C74.7791086,965.866655 65.5088954,947.346981 54.383417,925.123983 C39.5504646,906.60431 26.5727773,893.641149 18.8491279,885.923092 C11.1254784,878.208087 8.65281029,875.738187 7.41494799,869.568015 C6.18014214,863.391738 6.18014214,853.515189 5.56273922,847.96173 C4.94533629,842.402164 3.707474,841.16874 2.47266815,839.935316 C1.23480585,838.69884 0,837.465416 0,835.61528 C0,833.762092 1.23480585,831.295244 3.09007107,824.502255 C4.94533629,817.709266 7.41494799,806.602346 9.27021322,796.106033 C10.8198334,787.331627 11.9384942,778.993805 12.9868566,771.803922 C22.305973,770.198029 25.3654795,771.681801 28.4280426,772.957967 C32.1355166,774.499747 35.846047,775.73317 38.9330616,776.969647 C42.0231327,778.203071 44.4958009,779.436495 46.3510661,779.436495 C48.2032748,779.436495 49.4411371,778.203071 50.675943,776.349882 C51.9107488,774.499747 53.1486111,772.029846 54.383417,770.179711 C55.6212793,768.329575 56.8560851,767.093098 58.090891,766.473334 C59.3287533,765.859675 60.5635591,765.859675 61.8014214,766.473334 C63.0362273,767.093098 64.2710331,768.329575 65.5088954,768.946287 C66.7437013,769.562999 67.9785071,769.562999 68.5989665,768.946287 C69.2163694,768.329575 69.2163694,767.093098 68.5989665,765.23991 C67.9785071,763.386721 66.7437013,760.919874 67.3611042,759.066685 C67.9785071,757.21655 70.4511753,755.983126 73.5443028,752.896514 C76.6313174,749.806848 80.3387914,744.870101 84.0493219,741.783488 C87.7567959,738.696876 91.4642699,737.460399 94.5543409,735.610264 C97.644412,733.757075 100.11708,731.290228 102.586692,730.053751 C105.05936,728.820327 107.532028,728.820327 110.004696,728.820327 C112.477364,728.820327 114.946976,728.820327 118.037047,729.437039 C121.127118,730.053751 124.837649,731.290228 126.689857,731.290228 C128.545123,731.290228 128.545123,730.053751 129.779929,729.437039 C131.014734,728.820327 133.487403,728.820327 135.960071,728.203616 C138.432739,727.583851 140.905407,726.350427 142.757616,725.733715 C144.609825,725.11395 145.847687,725.11395 146.46509,725.733715 C147.085549,726.350427 147.085549,727.583851 149.555161,730.053751 C152.027829,732.523651 156.970109,736.226976 160.063236,739.313588 C163.150251,742.4002 164.388113,744.870101 166.243378,746.720236 C168.095587,748.573425 170.568255,749.806848 172.423521,751.040272 C174.275729,752.276749 175.510535,753.510173 176.127938,754.746649 C176.748398,755.983126 176.748398,757.21655 176.127938,758.449973 C175.510535,759.68645 174.275729,760.919874 173.040924,762.153298 C171.803061,763.386721 170.568255,764.626251 170.568255,765.859675 C170.568255,767.093098 171.803061,768.329575 173.658326,771.413134 C175.510535,774.499747 177.983203,779.436495 179.838469,783.142872 C181.690677,786.846196 182.92854,789.319149 184.163346,791.782944 C185.401208,794.255897 186.636014,796.722744 187.253417,798.575933 C187.87082,800.426069 187.87082,801.662545 189.108682,802.279257 C190.343488,802.895969 192.816156,802.895969 194.050962,802.279257 C195.288824,801.662545 195.288824,800.426069 195.906227,800.426069 C196.52363,800.426069 197.761492,801.662545 198.378895,801.662545 C198.996298,801.662545 198.996298,800.426069 198.996298,799.192645 C198.996298,797.959221 198.996298,796.722744 200.231104,794.872609 C201.468966,793.01942 203.941634,790.54952 205.17644,789.932808 C206.411246,789.319149 206.411246,790.54952 206.411246,791.782944 L206.411246,795.489321 C206.411246,796.722744 206.411246,797.959221 209.192616,798.575933 C211.622493,799.116319 216.179661,799.183486 224.719382,799.192645 C224.98835,798.346956 225.2726,797.516532 225.569075,796.722744 C227.424341,791.782944 229.897009,788.079619 231.749217,783.759584 C233.604483,779.436495 234.839289,774.499747 238.546763,770.796423 C242.257293,767.093098 248.434379,764.626251 254.617577,761.536586 C260.794663,758.449973 266.977862,754.746649 270.685336,751.040272 C274.39281,747.340001 275.627615,743.636677 278.097227,739.933353 C280.572952,736.226976 284.280426,732.523651 289.225762,728.820327 C294.168042,725.11395 300.348184,721.410626 305.290464,718.327067 C310.2358,715.240455 313.946331,712.770554 316.724644,710.60901 C319.282892,708.624541 321.055634,706.896526 327.08601,698 C327.83484,698.210659 328.59284,698.412159 329.396686,698.570916 C332.483701,699.187628 336.191175,699.187628 342.680018,699.187628 L370.799359,699.187628 C370.799359,700.421052 372.037222,701.657529 373.272027,702.894005 C374.506833,704.127429 375.744696,705.363906 376.362098,706.59733 C376.979501,707.830753 376.979501,709.064177 375.744696,709.683942 C374.506833,710.300654 372.037222,710.300654 369.561497,710.917366 C367.091885,711.534077 364.619217,712.770554 362.146549,713.384213 C359.676937,714.007031 357.204269,714.007031 355.966407,714.62069 C354.731601,715.240455 354.731601,716.473878 354.731601,718.327067 C354.731601,720.177202 354.731601,722.647103 355.35206,724.497238 C355.966407,726.350427 357.204269,727.583851 360.29434,728.203616 C363.384411,728.820327 368.326691,728.820327 372.037222,729.437039 C375.744696,730.053751 378.214307,731.290228 378.83171,733.140363 C379.449113,734.993552 378.214307,737.460399 377.599961,740.547012 C377.010066,743.499291 376.979501,747.013327 378.058428,750.014454 C374.439591,751.247878 371.829383,751.660037 368.944094,752.896514 C364.619217,754.746649 359.676937,758.449973 355.966407,760.919874 C352.258933,763.386721 349.786265,764.626251 347.316653,767.093098 C344.843985,769.562999 342.374373,773.266323 339.901705,776.349882 C337.42598,779.436495 334.956369,781.909448 333.101103,784.376295 C331.248895,786.846196 330.011032,789.319149 328.77317,792.402708 C327.538364,795.489321 326.303558,799.192645 325.686155,802.279257 C325.065696,805.362816 325.065696,807.83577 324.448293,815.862183 C323.83089,823.885543 322.596084,837.465416 321.978681,846.725253 C321.361279,855.98509 321.361279,860.92489 320.740819,864.00845 C320.123416,867.098115 318.88861,868.328486 317.653805,869.568015 L313.946331,873.27134 C312.708468,874.504763 311.470606,875.738187 310.2358,877.591376 C309.000994,879.444564 307.763132,881.914465 307.145729,884.381312 C306.528326,886.851212 306.528326,889.31806 307.145729,891.78796 C307.763132,894.260914 309.000994,896.727761 310.2358,898.58095 C311.470606,900.431085 312.708468,901.664509 313.946331,905.987598 C315.181136,910.307634 316.415942,917.714282 317.653805,922.037371 C318.88861,926.357407 320.123416,927.593884 323.83089,930.677443 C327.538364,933.764055 333.721563,938.703856 336.808577,942.40718 C339.901705,946.113558 339.901705,948.583458 339.901705,952.283729 C339.901705,955.987053 339.901705,960.929907 339.281246,964.630178 C338.663843,968.333502 337.42598,970.806456 335.573772,972.653538 C333.721563,974.50978 331.248895,975.743204 325.065696,978.213104 C318.88861,980.679951 309.000994,984.383276 304.052602,987.472941 C299.110322,990.559553 299.110322,993.026401 297.875516,998.582913 C296.64071,1004.13943 294.168042,1012.78255 291.69843,1020.1892 C289.225762,1027.59585 286.750037,1033.77213 285.515232,1038.70887 C284.280426,1043.64562 284.280426,1047.34894 284.897829,1050.43861 C285.515232,1053.52522 286.750037,1055.99207 289.225762,1062.78201 C291.69843,1069.57194 295.402848,1080.68497 297.258113,1088.71138 C299.110322,1096.73474 299.110322,1101.67454 299.110322,1105.99458 C299.110322,1110.31461 299.110322,1114.01794 299.727725,1116.49089 C300.348184,1118.95774 301.58299,1120.19422 304.052602,1120.81093 C306.528326,1121.42764 310.2358,1121.42764 312.088009,1122.66106 C313.946331,1123.89449 313.946331,1126.36744 313.946331,1129.45405 C313.946331,1132.53761 313.946331,1136.24094 314.560677,1138.71084 C315.181136,1141.18379 316.415942,1142.41721 318.271207,1144.26735 C320.123416,1146.12054 322.596084,1148.58739 325.065696,1149.82386 C327.538364,1151.06034 330.011032,1151.06034 333.101103,1152.29376 C336.191175,1153.52719 339.901705,1155.99709 343.609179,1157.23051 C347.316653,1158.46699 351.024127,1158.46699 357.512971,1158.46699 C358.973954,1158.46699 360.584703,1158.46699 362.189339,1158.67765 Z"/>
        <path stroke="#FFF" stroke-width="6.208" d="M15.8232684,701.045444 C16.1532608,702.922406 16.4710313,704.759563 16.6971372,706.575286 C17.3174007,711.526424 17.3174007,716.483686 17.3174007,723.290353 C17.3174007,730.103143 17.3174007,738.771462 16.6971372,746.1997 C16.0799292,753.624876 14.8455131,759.819157 13.6110971,767.868966 C13.4063795,769.185595 13.2047175,770.557339 13,771.975012 C22.3192301,770.361376 25.3777709,771.852535 28.4363116,773.129359 C32.1426153,774.675633 35.8519744,775.915714 38.9380145,777.152733 C42.0301656,778.389752 44.5020532,779.629833 46.3536773,779.629833 C48.2083568,779.629833 49.4427729,778.389752 50.677189,776.534223 C51.9146605,774.675633 53.1490765,772.201595 54.3834926,770.343004 C55.6209641,768.487476 56.8584357,767.250457 58.0928517,766.625823 C59.3272678,766.010376 60.5647393,766.010376 61.7991554,766.625823 C63.0366269,767.250457 64.271043,768.487476 65.505459,769.105985 C66.7429305,769.724495 67.9773466,769.724495 68.5945546,769.105985 C69.2117626,768.487476 69.2117626,767.250457 68.5945546,765.388804 C67.9773466,763.533276 66.7429305,761.056176 67.3570831,759.200647 C67.9773466,757.342057 70.4461787,756.105038 73.5383298,753.009428 C76.6243699,749.910757 80.3337291,744.959619 84.0400327,741.867071 C87.7493918,738.771462 91.45264,737.531381 94.5447911,735.672791 C97.6308312,733.817262 100.105774,731.340162 102.574606,730.103143 C105.046494,728.863062 107.518382,728.863062 109.987214,728.863062 C112.459101,728.863062 114.930989,728.863062 118.020084,729.484634 C121.10918,730.103143 124.815484,731.340162 126.667108,731.340162 C128.521787,731.340162 128.521787,730.103143 129.759259,729.484634 C130.993675,728.863062 133.465563,728.863062 135.93745,728.244553 C138.406282,727.622981 140.87817,726.385962 142.732849,725.770515 C144.584473,725.148943 145.81889,725.148943 146.439153,725.770515 C147.056361,726.385962 147.056361,727.622981 149.528249,730.103143 C152.000136,732.577181 156.940856,736.2913 160.029952,739.386909 C163.119047,742.485581 164.353463,744.959619 166.208143,746.818209 C168.059767,748.673738 170.531654,749.910757 172.386334,751.150838 C174.241014,752.387857 175.47543,753.624876 176.092638,754.868019 C176.712901,756.105038 176.712901,757.342057 176.092638,758.582138 C175.47543,759.819157 174.241014,761.056176 173.003542,762.293195 C171.769126,763.533276 170.531654,764.773357 170.531654,766.010376 C170.531654,767.250457 171.769126,768.487476 173.62075,771.583085 C175.47543,774.675633 177.947317,779.629833 179.798941,783.343952 C181.653621,787.058071 182.888037,789.538232 184.125508,792.009209 C185.359924,794.48937 186.594341,796.96647 187.214604,798.821999 C187.828757,800.680589 187.828757,801.917608 189.066228,802.536118 C190.3037,803.154627 192.772532,803.154627 194.006948,802.536118 C195.244419,801.917608 195.244419,800.680589 195.861627,800.680589 C196.481891,800.680589 197.716307,801.917608 198.333515,801.917608 C198.953778,801.917608 198.953778,800.680589 198.953778,799.440508 C198.953778,798.203489 198.953778,796.96647 200.188195,795.10788 C201.422611,793.252351 203.894498,790.77219 205.13197,790.15368 C206.366386,789.538232 206.366386,790.77219 206.366386,792.009209 L206.366386,795.726389 C206.366386,796.96647 206.366386,798.203489 209.146877,798.821999 C211.572933,799.36396 216.131717,799.431323 224.668743,799.440508 C224.937625,798.592354 225.21873,797.75951 225.515112,796.96647 C227.369792,792.009209 229.841679,788.298151 231.696359,783.965523 C233.547983,779.629833 234.782399,774.675633 238.491758,770.961514 C242.198062,767.250457 248.376253,764.773357 254.554444,761.674685 C260.72958,758.582138 266.910827,754.868019 270.61713,751.150838 C274.326489,747.436719 275.55785,743.7226 278.029737,740.008481 C280.501625,736.2913 284.207929,732.577181 289.154759,728.863062 C294.095479,725.148943 300.270615,721.434824 305.211334,718.339215 C310.158165,715.243605 313.864469,712.769567 316.641905,710.601722 C319.202402,708.608407 320.971528,706.878417 327,697.955958 L322.951482,604.031309 L118.832844,601 L31.6445712,656.619927 L15.8232684,701.045444 Z"/>
        <path stroke="#FFF" stroke-width="6.208" d="M93.7739637,0.0130700097 C90.1487913,1.24678121 87.5392791,1.65903619 84.6513781,2.89580113 C80.3225858,4.74942167 75.3727724,8.453609 71.6588827,10.9210314 C67.9511115,13.3915075 65.4762048,14.6282725 63.0012981,17.0987486 C60.5294507,19.566171 58.054544,23.2703584 55.5826965,26.3576901 C53.1047306,29.4450218 50.6298239,31.915498 48.7759383,34.3859741 C46.9220527,36.8533965 45.6800105,39.3269264 44.4440868,42.4142581 C43.208163,45.5015899 41.9691801,49.2027234 41.3512182,52.2900552 C40.7332564,55.3773869 40.7332564,57.8478631 40.1152945,65.8761471 C39.4973326,73.9013773 38.2614089,87.4874692 37.6403878,96.7494644 C37.0224259,106.01146 37.0224259,110.949358 36.4044641,114.03669 C35.7865022,117.127075 34.5505785,118.357733 33.3115955,119.594498 L29.6007651,123.298685 C28.3617821,124.532396 27.1258584,125.769161 25.8899346,127.619728 C24.6509517,129.476402 23.415028,131.943825 22.7970661,134.414301 C22.1791042,136.881723 22.1791042,139.352199 22.7970661,141.822676 C23.415028,144.293152 24.6509517,146.763628 25.8899346,148.614195 C27.1258584,150.467815 28.3617821,151.701526 29.6007651,156.025623 C30.839748,160.346666 32.0756718,167.755041 33.3115955,172.079137 C34.5505785,176.40018 35.7865022,177.633891 39.4973326,180.721223 C43.208163,183.808555 49.3939002,188.749507 52.4867687,192.453695 C55.5826965,196.157882 55.5826965,198.628358 55.5826965,202.332545 C55.5826965,206.036733 55.5826965,210.977685 54.9586162,214.681872 C54.3406543,218.38606 53.1047306,220.856536 51.250845,222.707103 C49.3939002,224.560723 46.9220527,225.797488 40.7332564,228.26491 C34.5505785,230.735387 24.6509517,234.439574 19.7011383,237.526906 C14.7543841,240.614237 14.7543841,243.084714 13.5184604,248.639468 C12.2794775,254.197276 9.80762998,262.842415 7.33272329,270.25079 C4.86087582,277.662218 2.38290991,283.836882 1.14698618,288.777834 C-0.0919967787,293.715733 -0.0919967787,297.41992 0.529024307,300.507252 C1.14698618,303.594583 2.38290991,306.06506 4.86087582,312.853525 C7.33272329,319.648098 11.0435537,330.763713 12.8974393,338.788944 C14.7543841,346.814174 14.7543841,351.75818 14.7543841,356.079223 C14.7543841,360.400266 14.7543841,364.104453 15.372346,366.574929 C15.9903079,369.045405 17.2292908,370.279117 19.7011383,370.895972 C22.1791042,371.512828 25.8899346,371.512828 27.7438203,372.749593 C29.6007651,373.983304 29.6007651,376.45378 29.6007651,379.541112 C29.6007651,382.628444 29.6007651,386.332631 30.2187269,388.800053 C30.839748,391.273583 32.0756718,392.507294 33.9295574,394.360915 C35.7865022,396.211482 38.2614089,398.681958 40.7332564,399.915669 C43.208163,401.152434 45.6800105,401.152434 48.7759383,402.389199 C51.8688069,403.62291 55.5826965,406.093386 59.2935269,407.327098 C63.0012981,408.560809 66.7121286,408.560809 73.2068466,408.560809 C74.6722116,408.560809 76.2813599,408.560809 77.8905081,408.771517" transform="translate(284 750)"/>
        <path stroke="#FFF" stroke-width="6.208" d="M0.846684585,228.761305 C2.19174187,226.674125 3.16164712,225.550965 4.03395185,224.326813 C5.57421019,222.163123 6.80946688,219.684214 8.04167355,219.684214 C9.27693024,219.684214 10.5091369,222.163123 13.5927036,224.014654 C16.6762703,225.875365 21.611197,227.111759 26.5430737,227.111759 C31.4749504,227.111759 36.4098772,225.875365 39.4934439,226.493562 C42.5770106,227.111759 43.8092172,229.587608 46.2797306,230.824002 C48.744144,232.060396 52.443814,232.060396 56.143484,231.442199 C59.8462041,230.824002 63.5458741,229.587608 66.6294408,228.96635 C69.7130075,228.348153 72.1804709,228.348153 73.4126776,227.729956 C74.6448842,227.111759 74.6448842,225.875365 75.2609876,224.014654 C75.8801409,222.163123 77.1123476,219.684214 78.9637076,217.829623 C80.8120176,215.971972 83.279481,214.735578 85.130841,214.735578 C86.979151,214.735578 88.2144077,215.971972 89.4466144,216.590169 C90.6788211,217.211426 91.9140778,217.211426 92.5301811,216.590169 C93.1462844,215.971972 93.1462844,214.735578 93.1462844,212.25973 C93.1462844,209.783882 93.1462844,206.071639 93.7623878,202.977594 C94.3815411,199.883549 95.6137478,197.410761 96.8490045,196.174367 C98.0812111,194.931852 99.3134178,194.931852 101.780881,194.313655 C104.245295,193.695458 107.948015,192.459064 110.415478,191.21961 C112.879891,189.983216 114.115148,188.746822 114.731251,187.510428 C115.347355,186.270973 115.347355,185.034579 115.347355,182.558731 C115.347355,180.082883 115.347355,176.370641 115.963458,174.512989 C116.579561,172.658398 117.814818,172.658398 121.514488,168.943096 C125.214158,165.230853 131.381291,157.806369 138.783682,150.381884 C146.183022,142.954339 154.814568,135.529855 159.749495,129.959961 C164.684422,124.390067 165.916629,120.677825 167.148835,115.726129 C168.384092,110.777492 169.616299,104.589402 171.467659,99.6407654 C173.315969,94.6860084 175.783432,90.9768265 177.634792,86.6433269 C179.483102,82.3098272 180.718359,77.361191 184.418029,73.6489487 C188.117699,69.9397668 194.284832,67.4639185 200.451966,64.3668128 C206.619099,61.2727675 212.786232,57.5635856 216.485902,53.8482829 C220.188622,50.1360406 221.417779,46.4237983 223.885242,42.7115561 C226.355756,38.9962534 230.052376,35.2840111 234.990353,31.5717688 C239.922229,27.8595265 246.086313,24.1472843 251.018189,21.053239 C255.956166,17.9591937 259.655836,15.4864057 262.431351,13.3196559 C264.984215,11.3273478 266.753225,9.59823246 272.767857,0.680281915" transform="translate(54 697)"/>
        <path stroke="#FFF" stroke-width="6.208" d="M0.277929405,168.643923 C2.36117809,166.496913 3.66244487,164.949353 4.79876233,162.906329 C6.34134384,160.123168 7.57846366,156.410248 8.81252887,152.700386 C10.0465941,148.990524 11.2837139,145.280662 11.9007465,142.1886 C12.5177791,139.096539 12.5177791,136.622278 13.1348117,134.151076 C13.7548989,131.673757 14.9889641,129.202554 15.6059967,126.728293 C16.2230293,124.254033 16.2230293,121.78283 15.6059967,119.923312 C14.9889641,118.072968 13.7548989,116.837367 12.5177791,115.595649 C11.2837139,114.360048 10.0465941,113.124447 9.42956147,111.267987 C8.81252887,109.414585 8.81252887,106.937266 8.81252887,104.466063 L8.81252887,97.0463393 L8.81252887,82.8216336 L8.81252887,48.1911579 C8.81252887,38.9149738 8.81252887,36.440713 9.42956147,35.2051118 C10.0465941,33.9695106 11.2837139,33.9695106 13.1348117,33.35171 C14.9889641,32.7339094 17.4601491,31.4952498 19.9313342,30.8774492 C22.3994646,30.2596487 24.8706496,30.2596487 28.5758998,30.2596487 C32.2842047,30.2596487 37.2235201,30.2596487 39.6947052,29.6418481 C42.1628356,29.0240475 42.1628356,27.7853879 44.6340206,25.9289277 C47.1052056,24.0724675 52.0475757,21.6012651 54.5157061,18.5092038 C56.9868911,15.414084 56.9868911,11.7072804 57.6069783,9.23301963 C58.2240109,6.75875885 59.4580761,5.52315767 61.3091739,4.90535708 C63.1633264,4.28755649 65.6345114,4.28755649 67.4856092,4.28755649 C69.3397616,4.28755649 70.5768814,4.28755649 72.4279792,4.90535708 C74.2821317,5.52315767 76.7533167,6.75875885 79.2214471,6.14095826 C81.6926321,5.52315767 84.1638172,3.04889689 86.014915,1.81329571 C87.8690674,0.574636107 89.1061872,0.574636107 90.3402524,0.574636107 C91.5743176,0.574636107 92.8083828,0.574636107 93.42847,1.1924367 C94.0455027,1.81329571 94.0455027,3.04889689 95.2795679,4.90535708 C96.5166877,6.75875885 98.9848181,9.23301963 101.459058,10.4686208 C103.927188,11.7072804 106.398373,11.7072804 107.632438,11.0864214 C108.869558,10.4686208 108.869558,9.23301963 110.103623,7.99741845 C111.337689,6.75875885 113.808874,5.52315767 116.280059,5.52315767 C118.751244,5.52315767 121.222429,6.75875885 123.690559,8.61521904 C126.15869,10.4686208 128.632929,12.9428816 130.484027,14.7993418 C132.338179,16.6527436 133.572245,17.8914032 134.189277,17.8914032 C134.809364,17.8914032 134.809364,16.6527436 136.046484,14.7993418 C137.280549,12.9428816 139.751734,10.4686208 142.219865,7.99741845 C144.69105,5.52315767 147.15918,3.04889689 149.630365,1.81329571 C152.10155,0.574636107 154.572735,0.574636107 155.809855,1.50439541 C156.80566,2.25064959 156.998101,3.60247069 164.802647,6.04308886" transform="translate(153 917)"/>
        <path stroke="#FFF" stroke-width="6.208" d="M0.482839073,46.9570986 C9.77766397,45.3527899 12.832244,46.835098 15.8837756,48.1100049 C19.584634,49.6502632 23.282444,50.8824699 26.3644604,52.1146766 C29.4464768,53.3499332 31.9126996,54.5821399 33.7600803,54.5821399 C35.6105095,54.5821399 36.8420967,53.3499332 38.0767324,51.4985732 C39.3083195,49.6502632 40.5399067,47.1827998 41.7714938,45.3344898 C43.0061295,43.4831298 44.2407651,42.2509231 45.4723523,41.6317698 C46.7039395,41.0187165 47.9385751,41.0187165 49.1701623,41.6317698 C50.4047979,42.2509231 51.6363851,43.4831298 52.8679722,44.0992331 C54.0995594,44.7183865 55.334195,44.7183865 55.9499886,44.0992331 C56.5657822,43.4831298 56.5657822,42.2509231 55.9499886,40.3995631 C55.334195,38.5482031 54.0995594,36.0837897 54.7184015,34.2324297 C55.334195,32.3841197 57.8004178,31.148863 60.8824342,28.0683463 C63.9644506,24.9817296 67.6622606,20.0498529 71.3600706,16.9662862 C75.0578805,13.8827195 78.7556905,12.6474628 81.8407554,10.7991528 C84.9197233,8.94779279 87.3859461,6.48032943 89.8521689,5.24812275 C92.3183917,4.01591608 94.7846145,4.01591608 97.2477888,4.01591608 C99.7140116,4.01591608 102.180234,4.01591608 105.262251,4.63201942 C108.344267,5.24812275 112.042077,6.48032943 113.892506,6.48032943 C115.739887,6.48032943 115.739887,5.24812275 116.971474,4.63201942 C118.20611,4.01591608 120.672333,4.01591608 123.135507,3.39981274 C125.60173,2.78065939 128.067953,1.5454027 129.918382,0.932349382 C131.765763,0.313196029 133.000398,0.313196029 133.616192,0.932349382 C134.231985,1.5454027 134.231985,2.78065939 136.698208,5.24812275 C139.164431,7.71558612 144.093828,11.4152562 147.175845,14.4957728 C150.257861,17.5823895 151.492497,20.0498529 153.339877,21.8981629 C155.190307,23.7495229 157.653481,24.9817296 159.50391,26.2139363 C161.354339,27.449193 162.585927,28.6813997 163.20172,29.9166563 C163.820562,31.148863 163.820562,32.3841197 163.20172,33.6163264 C162.585927,34.8485331 161.354339,36.0837897 160.119704,37.3159964 C158.888117,38.5482031 157.653481,39.7834598 157.653481,41.0187165 C157.653481,42.2509231 158.888117,43.4831298 160.735497,46.5666965 C162.585927,49.6502632 165.052149,54.5821399 166.89953,58.28486 C168.749959,61.98453 169.981547,64.4519934 171.216182,66.9164067 C172.447769,69.3869201 173.679356,71.8513334 174.298199,73.7026935 C174.913992,75.5510035 174.913992,76.7832101 176.145579,77.3993135 C177.380215,78.0184668 179.843389,78.0184668 181.078025,77.3993135 C182.309612,76.7832101 182.309612,75.5510035 182.925406,75.5510035 C183.541199,75.5510035 184.775835,76.7832101 185.391628,76.7832101 C186.007422,76.7832101 186.007422,75.5510035 186.007422,74.3187968 C186.007422,73.0835401 186.007422,71.8513334 187.242058,70.0030234 C188.473645,68.1516634 190.939868,65.6842 192.171455,65.0650467 C193.40609,64.4519934 193.40609,65.6842 193.40609,66.9164067 L193.40609,70.6191268 C193.40609,71.8513334 193.40609,73.0835401 196.18021,73.7026935 C198.603754,74.2394964 203.149042,74.3096467 211.666504,74.3187968" transform="translate(13 725)"/>
      </g>
    </g>
    <path fill="#173E6F" fill-rule="nonzero" d="M170.04,137.872 L174.936,135.472 C171.48,129.664 167.88,124.384 164.04,119.584 L159.48,121.744 C160.968,123.616 162.456,125.632 163.896,127.744 C156.504,128.416 148.92,128.944 141.144,129.328 C145.08,125.68 148.872,121.264 152.568,116.176 L147.384,114.352 C140.856,123.904 135.864,128.944 132.504,129.472 L133.416,134.224 C145.656,133.792 156.792,133.12 166.776,132.208 C167.88,134.032 168.984,135.904 170.04,137.872 Z M141.528,159.088 L141.528,157.264 L164.472,157.264 L164.472,159.088 L169.56,159.088 L169.56,138.496 L136.44,138.496 L136.44,159.088 L141.528,159.088 Z M164.472,152.464 L141.528,152.464 L141.528,143.296 L164.472,143.296 L164.472,152.464 Z M190.744,158.992 L190.744,131.488 L219.352,131.488 L219.352,152.032 C219.352,153.28 218.776,153.952 217.624,153.952 L213.496,153.808 L214.792,158.656 L219.256,158.656 C222.616,158.656 224.296,156.832 224.296,153.184 L224.296,126.784 L206.536,126.784 C206.824,125.584 207.064,124.336 207.352,123.088 L226.552,123.088 L226.552,118.384 L208.168,118.384 L208.6,114.832 L203.512,114.112 C203.32,115.504 203.176,116.944 202.984,118.384 L183.448,118.384 L183.448,123.088 L202.168,123.088 C201.928,124.288 201.688,125.536 201.4,126.784 L185.8,126.784 L185.8,158.992 L190.744,158.992 Z M207.448,158.224 L207.448,149.968 L217.528,149.968 L217.528,145.6 L207.448,145.6 L207.448,141.952 L216.28,141.952 L216.28,137.584 L211.912,137.584 C212.68,136.384 213.4,135.04 214.072,133.552 L209.56,131.92 C208.84,133.936 208.024,135.808 207.064,137.584 L202.984,137.584 C202.216,135.472 201.352,133.648 200.44,132.064 L195.976,133.696 C196.792,134.896 197.512,136.192 198.184,137.584 L193.864,137.584 L193.864,141.952 L202.552,141.952 L202.552,145.6 L192.52,145.6 L192.52,149.968 L202.552,149.968 L202.552,158.224 L207.448,158.224 Z" mask="url(#img-location-tainan-b)"/>
    <g fill-rule="nonzero" mask="url(#img-location-tainan-b)">
      <g transform="translate(148 27)">
        <path fill="#FFF" d="M32.9998182,0 C51.2254872,0 66,14.998369 66,33.4998154 C66,51.1530281 52.5496996,65.6168018 35.4847565,66.9064537 L32.628536,71.9208443 C32.5684367,72.0263852 32.4315633,72.0263852 32.3718114,71.9208443 L32.3718114,71.9208443 L29.4591826,66.8094371 C12.898824,65.0161967 0,50.7873404 0,33.4998154 C0,14.998369 14.7745128,0 32.9998182,0 Z"/>
        <path fill="#06F3F9" d="M49.3576534,44.1802628 C50.683973,44.7065438 51.3400021,46.2291059 50.8236626,47.5805894 C47.941011,55.1251922 40.9448305,60 32.9997116,60 C25.0549584,60 18.0587779,55.1248195 15.176492,47.5802167 C14.6597868,46.2287332 15.3161816,44.7061711 16.6421355,44.1798901 C17.9680894,43.6532364 19.4618902,44.3222692 19.9782297,45.6737528 C22.0841781,51.1862849 27.1952807,54.7472539 32.9997116,54.7472539 C38.8045083,54.7472539 43.9156109,51.1862849 46.0215592,45.6741255 C46.537533,44.322642 48.0309681,43.6532364 49.3576534,44.1802628 Z M42.5,23 C47.1869541,23 51,26.8131292 51,31.5001856 C51,36.187242 47.1869541,40 42.5,40 C37.8130459,40 34,36.187242 34,31.5001856 C34,26.8131292 37.8130459,23 42.5,23 Z M23.3982637,11.000563 C27.996304,10.9478957 31.7760707,14.5970364 31.9839268,19.1698795 C31.992694,19.3621334 31.8392677,19.5234498 31.6482154,19.5234498 L31.6482154,19.5234498 L27.133829,19.5234498 C26.9610418,19.5234498 26.8211316,19.3893878 26.8032318,19.2162856 C26.6300793,17.546034 25.2357264,16.2363505 23.5389045,16.214989 C21.6875604,16.1917859 20.172293,17.7659106 20.172293,19.633204 L20.172293,19.633204 L20.172293,31.433246 C20.172293,33.2622359 21.6327653,34.7534925 23.4395427,34.7847982 C25.299654,34.8164722 26.8222275,33.241611 26.8222275,31.3662149 L26.8222275,31.3662149 L26.8222275,28.0805888 L23.7865784,28.0805888 C23.601371,28.0805888 23.4512324,27.9292165 23.4512324,27.7424872 L23.4512324,27.7424872 L23.4512324,23.7574547 C23.4512324,23.5707254 23.601371,23.4193531 23.7865784,23.4193531 L23.7865784,23.4193531 L31.832327,23.4193531 C31.9251134,23.4193531 32,23.4948551 32,23.5884039 L32,23.5884039 L32,28.0805888 L31.9941552,28.0805888 L31.9941552,31.433246 C31.9941552,36.1847158 28.1369448,40.0456303 23.4132411,39.9995925 C18.7355652,39.953923 15,36.0407095 15,31.3238601 L15,31.3238601 L15,19.6755588 C15,14.9653388 18.7264327,11.0547035 23.3982637,11.000563 Z M42.5,28 C40.5701384,28 39,29.5699345 39,31.5 C39,33.4300655 40.5701384,35 42.5,35 C44.4298616,35 46,33.4300655 46,31.5 C46,29.5699345 44.4298616,28 42.5,28 Z"/>
      </g>
    </g>
  </g>
</svg>
